<svg width="36" height="36" viewBox="0 0 36 36" fill="none" xmlns="http://www.w3.org/2000/svg">
<path d="M21 4.5V10.5C21 10.8978 21.158 11.2794 21.4393 11.5607C21.7206 11.842 22.1022 12 22.5 12H28.5" stroke="#806DFB" stroke-width="2.75" stroke-linecap="round" stroke-linejoin="round"/>
<path d="M25.5 31.5H10.5C9.70435 31.5 8.94129 31.1839 8.37868 30.6213C7.81607 30.0587 7.5 29.2956 7.5 28.5V7.5C7.5 6.70435 7.81607 5.94129 8.37868 5.37868C8.94129 4.81607 9.70435 4.5 10.5 4.5H21L28.5 12V28.5C28.5 29.2956 28.1839 30.0587 27.6213 30.6213C27.0587 31.1839 26.2956 31.5 25.5 31.5Z" stroke="#806DFB" stroke-width="2.75" stroke-linecap="round" stroke-linejoin="round"/>
<path d="M18.5149 17.235C18.5879 17.1605 18.6745 17.1014 18.77 17.0611C18.8654 17.0208 18.9677 17 19.071 17C19.1744 17 19.2767 17.0208 19.3721 17.0611C19.4675 17.1014 19.5542 17.1605 19.6272 17.235L22.7692 20.434C22.8424 20.5083 22.9004 20.5965 22.94 20.6937C22.9796 20.7909 23 20.895 23 21.0002C23 21.1054 22.9796 21.2096 22.94 21.3067C22.9004 21.4039 22.8424 21.4921 22.7692 21.5664L19.6272 24.7655C19.4797 24.9156 19.2796 25 19.071 25C18.8624 25 18.6624 24.9156 18.5149 24.7655C18.3674 24.6153 18.2845 24.4116 18.2845 24.1992C18.2845 23.9869 18.3674 23.7832 18.5149 23.633L21.1024 21.0002L18.5149 18.3674C18.4417 18.2931 18.3837 18.2049 18.3441 18.1077C18.3045 18.0105 18.2841 17.9064 18.2841 17.8012C18.2841 17.696 18.3045 17.5918 18.3441 17.4947C18.3837 17.3975 18.4417 17.3092 18.5149 17.235ZM16.4851 17.235C16.4121 17.1605 16.3255 17.1014 16.23 17.0611C16.1346 17.0208 16.0323 17 15.929 17C15.8257 17 15.7233 17.0208 15.6279 17.0611C15.5325 17.1014 15.4458 17.1605 15.3728 17.235L12.2308 20.434C12.1576 20.5083 12.0996 20.5965 12.06 20.6937C12.0204 20.7909 12 20.895 12 21.0002C12 21.1054 12.0204 21.2096 12.06 21.3067C12.0996 21.4039 12.1576 21.4921 12.2308 21.5664L15.3728 24.7655C15.5203 24.9156 15.7204 25 15.929 25C16.1376 25 16.3376 24.9156 16.4851 24.7655C16.6326 24.6153 16.7155 24.4116 16.7155 24.1992C16.7155 23.9869 16.6326 23.7832 16.4851 23.633L13.8976 21.0002L16.4851 18.3674C16.5583 18.2931 16.6163 18.2049 16.6559 18.1077C16.6955 18.0105 16.7159 17.9064 16.7159 17.8012C16.7159 17.696 16.6955 17.5918 16.6559 17.4947C16.6163 17.3975 16.5583 17.3092 16.4851 17.235Z" fill="#806DFB"/>
</svg>
