<svg width="36" height="36" viewBox="0 0 36 36" fill="none" xmlns="http://www.w3.org/2000/svg">
<path d="M20.9999 11.9997C22.6566 11.9997 23.9997 10.6566 23.9997 8.99986C23.9997 7.34308 22.6566 6 20.9999 6C19.3431 6 18 7.34308 18 8.99986C18 10.6566 19.3431 11.9997 20.9999 11.9997Z" stroke="#806DFB" stroke-width="2.75" stroke-linecap="round" stroke-linejoin="round"/>
<path d="M6 9.0011H18.0006" stroke="#806DFB" stroke-width="2.75" stroke-linecap="round" stroke-linejoin="round"/>
<path d="M23.9998 9.0011H29.9995" stroke="#806DFB" stroke-width="2.75" stroke-linecap="round" stroke-linejoin="round"/>
<path d="M12.0011 20.9999C13.6579 20.9999 15.0009 19.6568 15.0009 18C15.0009 16.3433 13.6579 15.0002 12.0011 15.0002C10.3443 15.0002 9.00122 16.3433 9.00122 18C9.00122 19.6568 10.3443 20.9999 12.0011 20.9999Z" stroke="#806DFB" stroke-width="2.75" stroke-linecap="round" stroke-linejoin="round"/>
<path d="M6 18.0013H8.99986" stroke="#806DFB" stroke-width="2.75" stroke-linecap="round" stroke-linejoin="round"/>
<path d="M15.001 18.0013H30.0017" stroke="#806DFB" stroke-width="2.75" stroke-linecap="round" stroke-linejoin="round"/>
<path d="M25.5003 29.9994C27.1571 29.9994 28.5002 28.6563 28.5002 26.9996C28.5002 25.3428 27.1571 23.9997 25.5003 23.9997C23.8436 23.9997 22.5005 25.3428 22.5005 26.9996C22.5005 28.6563 23.8436 29.9994 25.5003 29.9994Z" stroke="#806DFB" stroke-width="2.75" stroke-linecap="round" stroke-linejoin="round"/>
<path d="M6 27.0008H22.5008" stroke="#806DFB" stroke-width="2.75" stroke-linecap="round" stroke-linejoin="round"/>
<path d="M28.5005 27.0008H30.0004" stroke="#806DFB" stroke-width="2.75" stroke-linecap="round" stroke-linejoin="round"/>
</svg>
