<svg width="105" height="104" viewBox="0 0 105 104" fill="none" xmlns="http://www.w3.org/2000/svg">
<rect x="0.5" width="104" height="104" rx="52" fill="#0CEADF"/>
<path d="M43.1157 18.8126C38.5011 18.7969 33.9832 20.1356 30.122 22.6626L45.522 38.0626C46.0348 38.5002 46.455 39.036 46.7576 39.6385C47.0602 40.241 47.2392 40.8979 47.2841 41.5706C47.3289 42.2433 47.2387 42.9182 47.0187 43.5555C46.7987 44.1927 46.4535 44.7796 46.0032 45.2814C45.5014 45.7316 44.9146 46.0769 44.2773 46.2969C43.64 46.5169 42.9651 46.6071 42.2924 46.5623C41.6197 46.5174 40.9628 46.3384 40.3603 46.0358C39.7579 45.7331 39.2221 45.313 38.7845 44.8001L22.9032 29.4001C20.1574 33.4406 18.7286 38.2314 18.8126 43.1158C18.8379 49.5535 21.4066 55.7204 25.9588 60.2727C30.511 64.8249 36.6779 67.3935 43.1157 67.4189C45.2226 67.4304 47.3231 67.188 49.372 66.697L65.4938 82.8189C67.7594 85.0844 70.8321 86.3572 74.036 86.3572C77.24 86.3572 80.3127 85.0844 82.5782 82.8189C84.8437 80.5534 86.1165 77.4806 86.1165 74.2767C86.1165 71.0728 84.8437 68 82.5782 65.7345L66.4563 49.6126C66.9474 47.5638 67.1897 45.4632 67.1782 43.3564C67.2422 40.1562 66.6671 36.9754 65.4866 34.0002C64.306 31.025 62.5437 28.3153 60.3029 26.0297C58.0621 23.744 55.3878 21.9284 52.4366 20.6892C49.4853 19.45 46.3165 18.812 43.1157 18.8126ZM62.3657 43.1158C62.3622 44.8256 62.1192 46.5265 61.6438 48.1689L60.922 50.8158L62.847 52.7408L78.9688 68.8626C79.6554 69.5126 80.2017 70.2962 80.5742 71.1653C80.9466 72.0343 81.1373 72.9703 81.1345 73.9158C81.1615 74.8647 80.9819 75.8082 80.6079 76.6807C80.234 77.5533 79.6747 78.3341 78.9688 78.9689C78.3171 79.6532 77.5331 80.198 76.6645 80.5703C75.7959 80.9426 74.8607 81.1345 73.9157 81.1345C72.9707 81.1345 72.0355 80.9426 71.1669 80.5703C70.2983 80.198 69.5143 79.6532 68.8626 78.9689L52.7407 62.847L50.8157 60.922L48.1688 61.6439C46.5264 62.1192 44.8255 62.3622 43.1157 62.3658C38.0026 62.3516 33.0912 60.3697 29.4001 56.8314C27.5334 55.075 26.0552 52.9472 25.0606 50.5849C24.066 48.2227 23.577 45.6784 23.6251 43.1158C23.6284 41.3269 23.8712 39.5465 24.347 37.822L34.9345 48.4095C35.8291 49.383 36.9086 50.1688 38.11 50.7208C39.3114 51.2729 40.6106 51.5803 41.9321 51.6251C43.2535 51.6699 44.5706 51.4512 45.8066 50.9817C47.0426 50.5123 48.1728 49.8015 49.1313 48.8908C50.0421 47.9323 50.7529 46.802 51.2223 45.566C51.6917 44.33 51.9105 43.0129 51.8657 41.6915C51.8209 40.3701 51.5135 39.0708 50.9614 37.8694C50.4093 36.668 49.6236 35.5885 48.6501 34.6939L38.0626 24.1064C39.6188 23.6142 41.2429 23.3706 42.8751 23.3845C47.9882 23.3987 52.8996 25.3805 56.5907 28.9189C60.2852 32.7224 62.3561 37.8133 62.3657 43.1158Z" fill="#27176C"/>
</svg>
