<svg width="36" height="36" viewBox="0 0 36 36" fill="none" xmlns="http://www.w3.org/2000/svg">
<path d="M27.2656 17.8082H27.2776L27.2896 17.808C28.0058 17.7966 28.7012 18.0493 29.2429 18.518C29.7797 18.9824 30.1284 19.6265 30.2239 20.3293C30.2605 20.7119 30.2174 21.098 30.0974 21.4633C29.9754 21.8348 29.7765 22.1765 29.5138 22.466C29.251 22.7556 28.9302 22.9866 28.5723 23.144C28.2144 23.3014 27.8273 23.3817 27.4363 23.3797V23.3797H27.4285H26.5713H25.0713V24.8797V29.8768C25.0713 29.9336 25.0487 29.9881 25.0086 30.0283C24.9684 30.0685 24.9139 30.0911 24.857 30.0911H5.14275C5.08592 30.0911 5.03142 30.0685 4.99123 30.0283C4.95104 29.9881 4.92847 29.9336 4.92847 29.8768V23.8082L5.9999 23.8083L6.00795 23.8082C6.57711 23.8052 7.1393 23.6828 7.65825 23.449C8.17391 23.2168 8.63548 22.8796 9.01358 22.4591C9.39605 22.0415 9.68722 21.5486 9.86842 21.012C10.0508 20.4719 10.1177 19.8996 10.0649 19.3321L10.0615 19.2964L10.0565 19.2609C9.91234 18.2423 9.39787 17.3126 8.61144 16.6494C7.83116 15.9914 6.83748 15.6416 5.81765 15.6654H4.92847V10.1625C4.92847 10.1057 4.95104 10.0512 4.99123 10.011C5.03142 9.97082 5.08592 9.94824 5.14275 9.94824H11.1428H12.6002L12.6421 8.49135C12.6531 8.10837 12.743 7.73177 12.9062 7.38511C13.0694 7.03845 13.3023 6.72917 13.5904 6.47661C13.8785 6.22405 14.2156 6.03363 14.5807 5.91728C14.9403 5.80264 15.3194 5.76231 15.695 5.79866C16.3646 5.88709 16.9826 6.20606 17.4427 6.70097C17.9067 7.20009 18.1805 7.8464 18.2162 8.52693L18.2909 9.94824H19.7142H24.857C24.9139 9.94824 24.9684 9.97082 25.0086 10.011C25.0487 10.0512 25.0713 10.1057 25.0713 10.1625V16.3082V17.8082H26.5713H27.2656Z" stroke="#806DFB" stroke-width="3"/>
</svg>
