<svg width="33" height="35" viewBox="0 0 33 35" fill="none" xmlns="http://www.w3.org/2000/svg">
<path fill-rule="evenodd" clip-rule="evenodd" d="M13.8333 3.25C13.5018 3.25 13.1838 3.3817 12.9494 3.61612C12.715 3.85054 12.5833 4.16848 12.5833 4.5V18.6667C12.5833 19.1722 12.2787 19.628 11.8116 19.8215C11.3445 20.015 10.8069 19.908 10.4494 19.5505L7.99991 17.1011C7.70635 16.8081 7.32285 16.621 6.91118 16.5704C6.49928 16.5198 6.08228 16.6083 5.72642 16.8219C5.44721 16.9893 5.24394 17.2592 5.16052 17.5739C5.0771 17.8886 5.11974 18.2234 5.27937 18.5071C8.42416 24.0971 10.2219 27.2287 10.7137 27.984C10.7138 27.9841 10.7137 27.9839 10.7137 27.984L11.0372 28.4792C11.0376 28.4797 11.038 28.4803 11.0384 28.4809C11.8353 29.6903 12.9199 30.6831 14.1951 31.37C15.47 32.0568 16.8954 32.4164 18.3435 32.4167C18.3444 32.4167 18.3454 32.4167 18.3464 32.4167H21.3333C23.6539 32.4167 25.8795 31.4948 27.5205 29.8538C29.1614 28.2129 30.0833 25.9873 30.0833 23.6667V16.1667C30.0833 15.8351 29.9516 15.5172 29.7172 15.2828C29.4827 15.0484 29.1648 14.9167 28.8333 14.9167C28.5018 14.9167 28.1838 15.0484 27.9494 15.2828C27.715 15.5172 27.5833 15.8351 27.5833 16.1667V17C27.5833 17.6904 27.0236 18.25 26.3333 18.25C25.6429 18.25 25.0833 17.6904 25.0833 17V14.5C25.0833 14.1685 24.9516 13.8505 24.7172 13.6161C24.4827 13.3817 24.1648 13.25 23.8333 13.25C23.5018 13.25 23.1838 13.3817 22.9494 13.6161C22.715 13.8505 22.5833 14.1685 22.5833 14.5V17C22.5833 17.6904 22.0236 18.25 21.3333 18.25C20.6429 18.25 20.0833 17.6904 20.0833 17V12.8333C20.0833 12.5018 19.9516 12.1839 19.7172 11.9494C19.4827 11.715 19.1648 11.5833 18.8333 11.5833C18.5018 11.5833 18.1838 11.715 17.9494 11.9494C17.715 12.1839 17.5833 12.5018 17.5833 12.8333V17C17.5833 17.6904 17.0236 18.25 16.3333 18.25C15.6429 18.25 15.0833 17.6904 15.0833 17V4.5C15.0833 4.16848 14.9516 3.85054 14.7172 3.61612C14.4827 3.3817 14.1648 3.25 13.8333 3.25ZM17.5833 9.29779V4.5C17.5833 3.50544 17.1882 2.55161 16.4849 1.84835C15.7817 1.14509 14.8278 0.75 13.8333 0.75C12.8387 0.75 11.8849 1.14509 11.1816 1.84835C10.4784 2.55161 10.0833 3.50544 10.0833 4.5V15.6489L9.76717 15.3328C9.07925 14.6457 8.18096 14.2076 7.21591 14.0891C6.25101 13.9706 5.27418 14.1778 4.44053 14.6779M17.5833 9.29779C17.981 9.15716 18.4034 9.08333 18.8333 9.08333C19.8278 9.08333 20.7817 9.47842 21.4849 10.1817C21.7671 10.4638 21.9996 10.7863 22.177 11.1356C22.6875 10.8843 23.2535 10.75 23.8333 10.75C24.8278 10.75 25.7817 11.1451 26.4849 11.8483C26.7671 12.1305 26.9996 12.453 27.177 12.8023C27.6875 12.5509 28.2535 12.4167 28.8333 12.4167C29.8278 12.4167 30.7817 12.8118 31.4849 13.515C32.1882 14.2183 32.5833 15.1721 32.5833 16.1667V23.6667C32.5833 26.6503 31.398 29.5118 29.2882 31.6216C27.1784 33.7314 24.317 34.9167 21.3333 34.9167H18.3468C18.3468 34.9167 18.3469 34.9167 18.3468 34.9167H17.9999C17.941 34.9167 17.8831 34.9126 17.8264 34.9047C16.1432 34.827 14.4967 34.3721 13.0094 33.5709C11.3692 32.6873 9.97404 31.4102 8.94933 29.8542L8.94683 29.8503L8.61921 29.3489C8.07067 28.5068 6.21847 25.2752 3.10053 19.7329C2.62165 18.8817 2.49374 17.8773 2.74398 16.9333C2.99419 15.9894 3.6031 15.1801 4.44053 14.6779M20.1259 2.43955C20.3048 1.77275 20.9903 1.37717 21.6571 1.556C23.9803 2.17905 26.1588 3.14349 28.1412 4.39238C28.7253 4.76036 28.9005 5.53218 28.5326 6.11629C28.1646 6.7004 27.3928 6.8756 26.8087 6.50762C25.0344 5.38984 23.0863 4.52762 21.0095 3.97067C20.3427 3.79185 19.9471 3.10634 20.1259 2.43955ZM7.4763 3.43528C7.75781 4.06563 7.47502 4.80484 6.84467 5.08635C5.47845 5.69649 4.18057 6.44937 2.97266 7.33243C2.41536 7.73986 1.63328 7.61836 1.22585 7.06105C0.818424 6.50374 0.939924 5.72166 1.49723 5.31424C2.84739 4.32718 4.29812 3.48564 5.82523 2.80365C6.45558 2.52214 7.19479 2.80493 7.4763 3.43528Z" fill="#806DFB"/>
</svg>
