<svg width="53" height="51" viewBox="0 0 53 51" fill="none" xmlns="http://www.w3.org/2000/svg">
<rect x="0.390625" y="0.783203" width="39.8551" height="39.8551" rx="19.9275" fill="#0CEADF"/>
<g filter="url(#filter0_bd_4394_9095)">
<rect x="17.1289" y="11.334" width="33.4783" height="34.087" rx="6" fill="url(#paint0_linear_4394_9095)" shape-rendering="crispEdges"/>
</g>
<path d="M46.4429 25.4691C46.4047 25.3839 46.3418 25.3109 46.2615 25.2584C46.1813 25.2059 46.087 25.176 45.9896 25.1723H43.6585C43.5611 25.176 43.4668 25.2059 43.3866 25.2584C43.3064 25.3109 43.2435 25.3839 43.2052 25.4691C43.1499 25.617 43.1052 25.7684 43.0716 25.9222L41.5159 21.8438C41.3902 21.5131 41.1606 21.2271 40.858 21.0245C40.5554 20.8218 40.1945 20.7124 39.8243 20.7109H27.9205C27.5505 20.7118 27.1897 20.8212 26.8874 21.0239C26.5851 21.2267 26.3559 21.5129 26.2312 21.8438L24.6732 25.9222C24.6396 25.7684 24.595 25.617 24.5396 25.4691C24.5013 25.3839 24.4385 25.3109 24.3582 25.2584C24.278 25.2059 24.1837 25.176 24.0863 25.1723H21.7456C21.6482 25.176 21.554 25.2059 21.4737 25.2584C21.3935 25.3109 21.3306 25.3839 21.2923 25.4691C21.1754 25.735 21.1152 26.0204 21.1152 26.3085C21.1152 26.5967 21.1754 26.8821 21.2923 27.148C21.3308 27.2335 21.3941 27.3068 21.4748 27.3593C21.5555 27.4119 21.6502 27.4416 21.748 27.4449H24.0839L24.0481 27.5378C23.8098 27.6126 23.6025 27.7569 23.4556 27.9501C23.3086 28.1433 23.2296 28.3757 23.2298 28.614V36.1069C23.2298 36.2517 23.2903 36.3906 23.3981 36.493C23.506 36.5954 23.6522 36.653 23.8047 36.653H26.6942C26.7696 36.653 26.8442 36.6388 26.9138 36.6114C26.9835 36.5839 27.0467 36.5436 27.0999 36.4929C27.1531 36.4421 27.1952 36.3819 27.2239 36.3156C27.2525 36.2494 27.2672 36.1785 27.2668 36.1069V33.4537H40.459V36.1069C40.4587 36.1785 40.4732 36.2494 40.5019 36.3156C40.5305 36.3819 40.5726 36.4421 40.6258 36.4929C40.679 36.5436 40.7422 36.5839 40.8119 36.6114C40.8815 36.6388 40.9562 36.653 41.0316 36.653H43.9353C44.0878 36.653 44.2341 36.5954 44.3419 36.493C44.4498 36.3906 44.5104 36.2517 44.5104 36.1069V28.614C44.5105 28.3757 44.4314 28.1433 44.2845 27.9501C44.1375 27.7569 43.9302 27.6126 43.6919 27.5378L43.6585 27.4449H45.9944C46.0918 27.4411 46.1861 27.4113 46.2663 27.3588C46.3466 27.3062 46.4094 27.2331 46.4477 27.148C46.5638 26.8818 46.6233 26.5963 46.6225 26.3081C46.6217 26.0199 46.5606 25.7347 46.4429 25.4691ZM28.1425 22.7094H39.5952L41.4109 27.4788H26.3268L28.1425 22.7094ZM28.4622 30.839H26.0404C25.7996 30.8274 25.5727 30.7284 25.4065 30.5625C25.2404 30.3966 25.1476 30.1764 25.1476 29.9474C25.1476 29.7184 25.2404 29.4982 25.4065 29.3323C25.5727 29.1663 25.7996 29.0673 26.0404 29.0558H28.4598C28.7007 29.0673 28.9276 29.1663 29.0937 29.3323C29.2599 29.4982 29.3525 29.7184 29.3525 29.9474C29.3525 30.1764 29.2599 30.3966 29.0937 30.5625C28.9276 30.7284 28.7007 30.8274 28.4598 30.839H28.4622ZM41.7021 30.839H39.285C39.1577 30.8451 39.0305 30.8265 38.911 30.7844C38.7915 30.7424 38.6823 30.6777 38.5899 30.5944C38.4976 30.511 38.4241 30.4106 38.3738 30.2994C38.3236 30.1882 38.2976 30.0684 38.2976 29.9474C38.2976 29.8264 38.3236 29.7067 38.3738 29.5955C38.4241 29.4842 38.4976 29.3838 38.5899 29.3004C38.6823 29.217 38.7915 29.1524 38.911 29.1103C39.0305 29.0683 39.1577 29.0497 39.285 29.0558H41.7021C41.9429 29.0673 42.1698 29.1663 42.336 29.3323C42.5021 29.4982 42.5947 29.7184 42.5947 29.9474C42.5947 30.1764 42.5021 30.3966 42.336 30.5625C42.1698 30.7284 41.9429 30.8274 41.7021 30.839Z" fill="white"/>
<defs>
<filter id="filter0_bd_4394_9095" x="12.1289" y="6.33398" width="43.4785" height="47.0879" filterUnits="userSpaceOnUse" color-interpolation-filters="sRGB">
<feFlood flood-opacity="0" result="BackgroundImageFix"/>
<feGaussianBlur in="BackgroundImage" stdDeviation="2.5"/>
<feComposite in2="SourceAlpha" operator="in" result="effect1_backgroundBlur_4394_9095"/>
<feColorMatrix in="SourceAlpha" type="matrix" values="0 0 0 0 0 0 0 0 0 0 0 0 0 0 0 0 0 0 127 0" result="hardAlpha"/>
<feOffset dy="4"/>
<feGaussianBlur stdDeviation="2"/>
<feComposite in2="hardAlpha" operator="out"/>
<feColorMatrix type="matrix" values="0 0 0 0 0.7125 0 0 0 0 0.7125 0 0 0 0 0.7125 0 0 0 0.25 0"/>
<feBlend mode="normal" in2="effect1_backgroundBlur_4394_9095" result="effect2_dropShadow_4394_9095"/>
<feBlend mode="normal" in="SourceGraphic" in2="effect2_dropShadow_4394_9095" result="shape"/>
</filter>
<linearGradient id="paint0_linear_4394_9095" x1="49.4346" y1="44.6846" x2="30.1416" y2="5.67526" gradientUnits="userSpaceOnUse">
<stop stop-color="#1E1360" stop-opacity="0"/>
<stop offset="1" stop-color="#F5F5F5" stop-opacity="0.63"/>
</linearGradient>
</defs>
</svg>
