<svg width="53" height="51" viewBox="0 0 53 51" fill="none" xmlns="http://www.w3.org/2000/svg">
<rect x="0.390625" y="0.783203" width="39.8551" height="40.5791" rx="19.9275" fill="#5200E3"/>
<g filter="url(#filter0_bd_4394_9141)">
<rect x="17.1289" y="11.3359" width="33.4783" height="34.0864" rx="6" fill="url(#paint0_linear_4394_9141)" shape-rendering="crispEdges"/>
</g>
<path fill-rule="evenodd" clip-rule="evenodd" d="M27.1567 20.154C27.1567 20.184 27.0912 20.2085 27.0111 20.2085C26.931 20.2085 26.8655 20.233 26.8655 20.2629C26.8655 20.2928 26.8048 20.3173 26.7306 20.3173C26.6514 20.3173 26.5668 20.3623 26.5257 20.4262C26.4872 20.4861 26.4272 20.535 26.3924 20.535C26.304 20.535 25.8947 21.0038 25.8947 21.1051C25.8947 21.1508 25.8729 21.1882 25.8462 21.1882C25.8195 21.1882 25.7977 21.2372 25.7977 21.2971C25.7977 21.3569 25.7758 21.4059 25.7491 21.4059C25.7224 21.4059 25.7006 21.4794 25.7006 21.5692C25.7006 21.659 25.6787 21.7325 25.6521 21.7325C25.6211 21.7325 25.6035 22.1861 25.6035 22.9844V24.2362H34.3402H43.0768V22.9844C43.0768 22.1861 43.0592 21.7325 43.0283 21.7325C43.0016 21.7325 42.9797 21.659 42.9797 21.5692C42.9797 21.4794 42.9579 21.4059 42.9312 21.4059C42.9045 21.4059 42.8827 21.3569 42.8827 21.2971C42.8827 21.2372 42.8608 21.1882 42.8341 21.1882C42.8074 21.1882 42.7856 21.1509 42.7856 21.1054C42.7856 20.9976 42.2761 20.4262 42.18 20.4262C42.1393 20.4262 42.1061 20.4017 42.1061 20.3718C42.1061 20.3418 42.0624 20.3173 42.009 20.3173C41.9556 20.3173 41.9119 20.2928 41.9119 20.2629C41.9119 20.233 41.8246 20.2085 41.7178 20.2085C41.611 20.2085 41.5236 20.184 41.5236 20.154C41.5236 20.118 39.0968 20.0996 34.3402 20.0996C29.5835 20.0996 27.1567 20.118 27.1567 20.154ZM25.6035 27.0121C25.6035 27.8105 25.6211 28.264 25.6521 28.264C25.6787 28.264 25.7006 28.3375 25.7006 28.4273C25.7006 28.5171 25.7224 28.5906 25.7491 28.5906C25.7758 28.5906 25.7977 28.6342 25.7977 28.6874C25.7977 28.7407 25.8413 28.8196 25.8947 28.8627C25.9481 28.9059 25.9918 28.9733 25.9918 29.0126C25.9918 29.1055 26.3092 29.4615 26.392 29.4615C26.4271 29.4615 26.4872 29.5105 26.5257 29.5703C26.5642 29.6302 26.6345 29.6792 26.6821 29.6792C26.7295 29.6792 26.7684 29.7037 26.7684 29.7336C26.7684 29.7635 26.8558 29.788 26.9626 29.788C27.0693 29.788 27.1567 29.8125 27.1567 29.8425C27.1567 29.8747 27.3347 29.8969 27.5935 29.8969H28.0304V27.8286V25.7603H26.8169H25.6035V27.0121ZM29.3894 31.2576C29.3894 34.8863 29.4059 36.755 29.4379 36.755C29.4646 36.755 29.4865 36.8285 29.4865 36.9183C29.4865 37.0081 29.5083 37.0816 29.535 37.0816C29.5617 37.0816 29.5835 37.1252 29.5835 37.1784C29.5835 37.2317 29.6272 37.3106 29.6806 37.3537C29.734 37.3969 29.7777 37.4647 29.7777 37.5043C29.7777 37.5977 29.9969 37.8436 30.0803 37.8436C30.1156 37.8436 30.176 37.8926 30.2145 37.9524C30.253 38.0123 30.3233 38.0613 30.3709 38.0613C30.4183 38.0613 30.4572 38.0858 30.4572 38.1157C30.4572 38.1457 30.5227 38.1702 30.6028 38.1702C30.6829 38.1702 30.7484 38.1947 30.7484 38.2246C30.7484 38.2604 31.9942 38.279 34.3887 38.279C36.7832 38.279 38.029 38.2604 38.029 38.2246C38.029 38.1947 38.0727 38.1702 38.126 38.1702C38.1794 38.1702 38.2231 38.1457 38.2231 38.1157C38.2231 38.0858 38.262 38.0613 38.3095 38.0613C38.357 38.0613 38.4273 38.0123 38.4658 37.9524C38.5043 37.8926 38.5647 37.8436 38.6001 37.8436C38.6834 37.8436 38.9026 37.5977 38.9026 37.5043C38.9026 37.4647 38.9463 37.3969 38.9997 37.3537C39.0531 37.3106 39.0968 37.2317 39.0968 37.1784C39.0968 37.1252 39.1186 37.0816 39.1453 37.0816C39.172 37.0816 39.1939 37.0081 39.1939 36.9183C39.1939 36.8285 39.2157 36.755 39.2424 36.755C39.2744 36.755 39.2909 34.8863 39.2909 31.2576V25.7603H34.3402H29.3894V31.2576ZM40.65 27.8286V29.8969H41.0868C41.3456 29.8969 41.5236 29.8747 41.5236 29.8425C41.5236 29.8125 41.611 29.788 41.7178 29.788C41.8246 29.788 41.9119 29.7635 41.9119 29.7336C41.9119 29.7037 41.9556 29.6792 42.009 29.6792C42.0624 29.6792 42.1061 29.6547 42.1061 29.6248C42.1061 29.5948 42.1393 29.5703 42.18 29.5703C42.2206 29.5703 42.3735 29.4362 42.5197 29.2722C42.666 29.1082 42.7856 28.9367 42.7856 28.8912C42.7856 28.8456 42.8074 28.8083 42.8341 28.8083C42.8608 28.8083 42.8827 28.7593 42.8827 28.6995C42.8827 28.6396 42.9045 28.5906 42.9312 28.5906C42.9579 28.5906 42.9797 28.5171 42.9797 28.4273C42.9797 28.3375 43.0016 28.264 43.0283 28.264C43.0592 28.264 43.0768 27.8105 43.0768 27.0121V25.7603H41.8634H40.65V27.8286ZM34.146 28.3184C34.146 28.3495 34.2916 28.3729 34.4858 28.3729H34.8255V28.9172V29.4615H34.9711C35.0512 29.4615 35.1168 29.486 35.1168 29.5159C35.1168 29.5458 35.1604 29.5703 35.2138 29.5703C35.2672 29.5703 35.3109 29.5948 35.3109 29.6248C35.3109 29.6547 35.3443 29.6792 35.385 29.6792C35.5101 29.6792 35.8933 30.1499 35.8933 30.3037C35.8933 30.3793 35.8715 30.4412 35.8448 30.4412C35.8181 30.4412 35.7963 30.4787 35.7963 30.5246C35.7963 30.5706 35.7206 30.693 35.628 30.7968C35.4285 31.0205 35.1832 31.0555 35.0682 30.8766C35.0297 30.8168 34.9594 30.7678 34.9119 30.7678C34.8644 30.7678 34.8255 30.7433 34.8255 30.7133C34.8255 30.6834 34.7819 30.6589 34.7285 30.6589C34.6751 30.6589 34.6314 30.6344 34.6314 30.6045C34.6314 30.5745 34.5315 30.5501 34.4095 30.5501C34.1828 30.5501 34.0489 30.6378 34.0489 30.7865C34.0489 30.8311 34.0217 30.8819 33.9883 30.8993C33.9397 30.9247 33.9397 30.9374 33.9883 30.9628C34.0217 30.9803 34.0489 31.031 34.0489 31.0756C34.0489 31.1817 34.1675 31.3121 34.2639 31.3121C34.3059 31.3121 34.3402 31.3366 34.3402 31.3665C34.3402 31.3964 34.4057 31.4209 34.4858 31.4209C34.5659 31.4209 34.6314 31.4454 34.6314 31.4754C34.6314 31.5053 34.6751 31.5298 34.7285 31.5298C34.7819 31.5298 34.8255 31.5543 34.8255 31.5842C34.8255 31.6141 34.8911 31.6386 34.9711 31.6386C35.0512 31.6386 35.1168 31.6631 35.1168 31.6931C35.1168 31.723 35.1604 31.7475 35.2138 31.7475C35.2672 31.7475 35.3109 31.772 35.3109 31.8019C35.3109 31.8319 35.3442 31.8564 35.3848 31.8564C35.5118 31.8564 35.9904 32.436 35.9904 32.59C35.9904 32.6654 36.0123 32.7272 36.039 32.7272C36.0673 32.7272 36.0875 32.9086 36.0875 33.1627C36.0875 33.4167 36.0673 33.5981 36.039 33.5981C36.0123 33.5981 35.9904 33.6662 35.9904 33.7494C35.9904 33.8382 35.9503 33.933 35.8933 33.9791C35.84 34.0223 35.7963 34.0906 35.7963 34.1311C35.7963 34.2258 35.6765 34.3601 35.592 34.3601C35.556 34.3601 35.495 34.4091 35.4565 34.469C35.418 34.5288 35.3477 34.5778 35.3002 34.5778C35.2527 34.5778 35.2138 34.6023 35.2138 34.6323C35.2138 34.6622 35.1265 34.6867 35.0197 34.6867H34.8255V35.1765V35.6664H34.3887H33.9519V35.2543C33.9519 34.8004 33.8991 34.6867 33.6884 34.6867C33.6197 34.6867 33.5636 34.6622 33.5636 34.6323C33.5636 34.6023 33.5029 34.5778 33.4287 34.5778C33.3495 34.5778 33.2649 34.5329 33.2238 34.469C33.1853 34.4091 33.1253 34.3601 33.0905 34.3601C33.0556 34.3601 32.9294 34.2505 32.81 34.1166C32.5716 33.8493 32.534 33.6697 32.6899 33.5437C32.7433 33.5005 32.787 33.4331 32.787 33.3938C32.787 33.2887 33.1401 32.9083 33.1637 32.9878C33.1746 33.0241 33.2204 33.0538 33.2657 33.0538C33.3109 33.0538 33.3795 33.1028 33.418 33.1627C33.4565 33.2225 33.5268 33.2715 33.5743 33.2715C33.6218 33.2715 33.6606 33.296 33.6606 33.3259C33.6606 33.3559 33.7043 33.3804 33.7577 33.3804C33.8111 33.3804 33.8548 33.4049 33.8548 33.4348C33.8548 33.4663 34.0096 33.4892 34.2223 33.4892C34.6622 33.4892 34.7285 33.4363 34.7285 33.0849C34.7285 32.8724 34.7143 32.8361 34.6314 32.8361C34.578 32.8361 34.5343 32.8116 34.5343 32.7817C34.5343 32.7517 34.4906 32.7272 34.4372 32.7272C34.3839 32.7272 34.3402 32.7027 34.3402 32.6728C34.3402 32.6429 34.2965 32.6184 34.2431 32.6184C34.1897 32.6184 34.146 32.5939 34.146 32.5639C34.146 32.534 34.0805 32.5095 34.0004 32.5095C33.9203 32.5095 33.8548 32.485 33.8548 32.4551C33.8548 32.4251 33.8111 32.4007 33.7577 32.4007C33.7043 32.4007 33.6606 32.3762 33.6606 32.3462C33.6606 32.3163 33.617 32.2918 33.5636 32.2918C33.5102 32.2918 33.4665 32.2673 33.4665 32.2374C33.4665 32.2074 33.4332 32.1829 33.3924 32.1829C33.2961 32.1829 32.8841 31.7209 32.8841 31.6128C32.8841 31.5672 32.8622 31.5298 32.8355 31.5298C32.8088 31.5298 32.787 31.4563 32.787 31.3665C32.787 31.2767 32.7651 31.2032 32.7384 31.2032C32.7118 31.2032 32.6899 31.1052 32.6899 30.9855C32.6899 30.8657 32.7118 30.7678 32.7384 30.7678C32.7651 30.7678 32.787 30.6698 32.787 30.5501C32.787 30.4303 32.8088 30.3323 32.8355 30.3323C32.8622 30.3323 32.8841 30.295 32.8841 30.2495C32.8841 30.107 33.401 29.5703 33.5382 29.5703C33.6056 29.5703 33.6606 29.5458 33.6606 29.5159C33.6606 29.486 33.695 29.4615 33.7369 29.4615C33.9004 29.4615 33.9519 29.3186 33.9519 28.8643C33.9519 28.5885 33.9746 28.3937 34.0125 28.3454C34.084 28.2543 34.146 28.2418 34.146 28.3184Z" fill="white"/>
<defs>
<filter id="filter0_bd_4394_9141" x="12.1289" y="6.33594" width="43.4785" height="47.0859" filterUnits="userSpaceOnUse" color-interpolation-filters="sRGB">
<feFlood flood-opacity="0" result="BackgroundImageFix"/>
<feGaussianBlur in="BackgroundImage" stdDeviation="2.5"/>
<feComposite in2="SourceAlpha" operator="in" result="effect1_backgroundBlur_4394_9141"/>
<feColorMatrix in="SourceAlpha" type="matrix" values="0 0 0 0 0 0 0 0 0 0 0 0 0 0 0 0 0 0 127 0" result="hardAlpha"/>
<feOffset dy="4"/>
<feGaussianBlur stdDeviation="2"/>
<feComposite in2="hardAlpha" operator="out"/>
<feColorMatrix type="matrix" values="0 0 0 0 0.7125 0 0 0 0 0.7125 0 0 0 0 0.7125 0 0 0 0.25 0"/>
<feBlend mode="normal" in2="effect1_backgroundBlur_4394_9141" result="effect2_dropShadow_4394_9141"/>
<feBlend mode="normal" in="SourceGraphic" in2="effect2_dropShadow_4394_9141" result="shape"/>
</filter>
<linearGradient id="paint0_linear_4394_9141" x1="49.4346" y1="44.686" x2="30.1421" y2="5.67706" gradientUnits="userSpaceOnUse">
<stop stop-color="#1E1360" stop-opacity="0"/>
<stop offset="1" stop-color="#F5F5F5" stop-opacity="0.63"/>
</linearGradient>
</defs>
</svg>
