<svg width="54" height="50" viewBox="0 0 54 50" fill="none" xmlns="http://www.w3.org/2000/svg">
<rect x="0.59375" y="0.580078" width="39.8551" height="39.8551" rx="19.9275" fill="#FF6400"/>
<g filter="url(#filter0_bd_4394_9123)">
<rect x="18.8574" y="9.25977" width="31.9544" height="33.5673" rx="6" fill="url(#paint0_linear_4394_9123)" shape-rendering="crispEdges"/>
</g>
<path fill-rule="evenodd" clip-rule="evenodd" d="M33.617 15.5167C33.617 15.5453 33.508 15.5686 33.3749 15.5686C33.2418 15.5686 33.1328 15.592 33.1328 15.6205C33.1328 15.6491 33.0457 15.6724 32.9392 15.6724C32.8327 15.6724 32.7455 15.6958 32.7455 15.7243C32.7455 15.7529 32.6802 15.7762 32.6003 15.7762C32.5204 15.7762 32.4551 15.7996 32.4551 15.8281C32.4551 15.8567 32.4115 15.88 32.3583 15.88C32.305 15.88 32.2614 15.9034 32.2614 15.9319C32.2614 15.9605 32.2179 15.9838 32.1646 15.9838C32.1113 15.9838 32.0678 16.0072 32.0678 16.0357C32.0678 16.0643 32.0242 16.0876 31.971 16.0876C31.9177 16.0876 31.8741 16.111 31.8741 16.1395C31.8741 16.1681 31.8306 16.1914 31.7773 16.1914C31.7241 16.1914 31.6805 16.2148 31.6805 16.2433C31.6805 16.2719 31.6417 16.2952 31.5944 16.2952C31.547 16.2952 31.4768 16.342 31.4384 16.399C31.4 16.4561 31.3386 16.5028 31.3019 16.5028C31.2652 16.5028 31.1741 16.5729 31.0995 16.6585C31.0249 16.7442 30.9396 16.8142 30.9099 16.8142C30.8395 16.8142 30.1313 17.5734 30.1313 17.649C30.1313 17.6808 30.0659 17.7723 29.9861 17.8523C29.9062 17.9322 29.8408 18.0257 29.8408 18.0599C29.8408 18.0941 29.7755 18.1875 29.6956 18.2675C29.6157 18.3474 29.5503 18.4502 29.5503 18.4959C29.5503 18.5415 29.5286 18.5789 29.5019 18.5789C29.4753 18.5789 29.4535 18.6256 29.4535 18.6827C29.4535 18.7397 29.4317 18.7865 29.4051 18.7865C29.3785 18.7865 29.3567 18.8332 29.3567 18.8903C29.3567 18.9473 29.3349 18.9941 29.3083 18.9941C29.2817 18.9941 29.2599 19.0408 29.2599 19.0979C29.2599 19.1549 29.2381 19.2017 29.2115 19.2017C29.1848 19.2017 29.163 19.2717 29.163 19.3574C29.163 19.443 29.1413 19.5131 29.1146 19.5131C29.088 19.5131 29.0662 19.5831 29.0662 19.6688C29.0662 19.7544 29.0444 19.8245 29.0178 19.8245C28.9912 19.8245 28.9694 19.9179 28.9694 20.0321C28.9694 20.1462 28.9476 20.2397 28.921 20.2397C28.8933 20.2397 28.8726 20.3954 28.8726 20.603C28.8726 20.8106 28.8518 20.9663 28.8242 20.9663C28.7926 20.9663 28.7758 21.8313 28.7758 23.4575V25.9487H28.34C28.0819 25.9487 27.9043 25.9698 27.9043 26.0006C27.9043 26.0291 27.8711 26.0525 27.8305 26.0525C27.7344 26.0525 27.3234 26.4931 27.3234 26.5961C27.3234 26.6396 27.3016 26.6753 27.275 26.6753C27.2431 26.6753 27.2266 28.1804 27.2266 31.0868C27.2266 33.9932 27.2431 35.4983 27.275 35.4983C27.3016 35.4983 27.3234 35.534 27.3234 35.5775C27.3234 35.6805 27.7344 36.1211 27.8305 36.1211C27.8711 36.1211 27.9043 36.1445 27.9043 36.173C27.9043 36.2073 29.9699 36.2249 34.0043 36.2249C38.0386 36.2249 40.1042 36.2425 40.1042 36.2768C40.1042 36.3054 40.1478 36.3287 40.201 36.3287C40.2543 36.3287 40.2978 36.3054 40.2978 36.2768C40.2978 36.2019 40.4782 36.2128 40.5117 36.2898C40.5342 36.3417 40.5456 36.3417 40.5681 36.2898C40.5837 36.2541 40.6817 36.2249 40.786 36.2249C40.8903 36.2249 40.9756 36.2016 40.9756 36.173C40.9756 36.1445 41.0192 36.1211 41.0724 36.1211C41.1257 36.1211 41.1693 36.0978 41.1693 36.0692C41.1693 36.0407 41.2035 36.0173 41.2453 36.0173C41.3387 36.0173 41.4597 35.894 41.4597 35.7989C41.4597 35.7604 41.5033 35.6952 41.5566 35.654C41.6134 35.6101 41.6534 35.5196 41.6534 35.4349C41.6534 35.3556 41.6752 35.2907 41.7018 35.2907C41.7337 35.2907 41.7502 33.8548 41.7502 31.0868C41.7502 28.3188 41.7337 26.8829 41.7018 26.8829C41.6752 26.8829 41.6534 26.8222 41.6534 26.748C41.6534 26.6651 41.5975 26.5571 41.5081 26.4677C41.4283 26.3877 41.3629 26.2849 41.3629 26.2393C41.3629 26.1909 41.3225 26.1563 41.2661 26.1563C41.2128 26.1563 41.1693 26.1329 41.1693 26.1044C41.1693 26.0758 41.1257 26.0525 41.0724 26.0525C41.0192 26.0525 40.9756 26.0291 40.9756 26.0006C40.9756 25.9663 39.3135 25.9487 36.086 25.9487H31.1964V23.4056C31.1964 21.7448 31.2132 20.8625 31.2448 20.8625C31.2714 20.8625 31.2932 20.769 31.2932 20.6549C31.2932 20.5407 31.315 20.4473 31.3416 20.4473C31.3682 20.4473 31.39 20.3772 31.39 20.2916C31.39 20.2059 31.4118 20.1359 31.4384 20.1359C31.465 20.1359 31.4868 20.0892 31.4868 20.0321C31.4868 19.975 31.5086 19.9283 31.5352 19.9283C31.5619 19.9283 31.5837 19.8867 31.5837 19.8359C31.5837 19.7851 31.6272 19.7099 31.6805 19.6688C31.7337 19.6276 31.7773 19.5637 31.7773 19.5267C31.7773 19.439 32.4829 18.6827 32.5646 18.6827C32.5992 18.6827 32.6587 18.6359 32.6971 18.5789C32.7355 18.5218 32.8057 18.4751 32.8531 18.4751C32.9004 18.4751 32.9392 18.4517 32.9392 18.4232C32.9392 18.3946 32.9828 18.3713 33.036 18.3713C33.0893 18.3713 33.1328 18.3479 33.1328 18.3194C33.1328 18.2908 33.1982 18.2675 33.2781 18.2675C33.358 18.2675 33.4233 18.2441 33.4233 18.2156C33.4233 18.187 33.4887 18.1637 33.5686 18.1637C33.6484 18.1637 33.7138 18.1403 33.7138 18.1118C33.7138 18.0795 33.9881 18.0599 34.44 18.0599C34.8918 18.0599 35.1662 18.0795 35.1662 18.1118C35.1662 18.1403 35.2533 18.1637 35.3598 18.1637C35.4663 18.1637 35.5535 18.187 35.5535 18.2156C35.5535 18.2441 35.597 18.2675 35.6503 18.2675C35.7035 18.2675 35.7471 18.2908 35.7471 18.3194C35.7471 18.3479 35.7907 18.3713 35.8439 18.3713C35.8972 18.3713 35.9408 18.3946 35.9408 18.4232C35.9408 18.4517 35.9843 18.4751 36.0376 18.4751C36.0908 18.4751 36.1344 18.4984 36.1344 18.527C36.1344 18.5555 36.1692 18.5789 36.2118 18.5789C36.2544 18.5789 36.3503 18.6489 36.4249 18.7346C36.4995 18.8202 36.586 18.8903 36.6172 18.8903C36.6899 18.8903 36.8122 19.0207 36.8122 19.0982C36.8122 19.131 36.8993 19.2476 37.0058 19.3574C37.1123 19.4671 37.1995 19.5885 37.1995 19.6273C37.1995 19.6661 37.243 19.7314 37.2963 19.7726C37.3495 19.8137 37.3931 19.8889 37.3931 19.9397C37.3931 19.9905 37.4149 20.0321 37.4415 20.0321C37.4682 20.0321 37.4899 20.1021 37.4899 20.1878C37.4899 20.2734 37.5117 20.3435 37.5384 20.3435C37.565 20.3435 37.5868 20.4135 37.5868 20.4992C37.5868 20.5848 37.6086 20.6549 37.6352 20.6549C37.6634 20.6549 37.6836 20.8278 37.6836 21.0701C37.6836 21.3123 37.7038 21.4853 37.732 21.4853C37.7586 21.4853 37.7804 21.5787 37.7804 21.6929C37.7804 21.807 37.8022 21.9005 37.8288 21.9005C37.8555 21.9005 37.8772 21.9372 37.8772 21.982C37.8772 22.0869 37.9938 22.2119 38.0917 22.2119C38.1335 22.2119 38.1677 22.2352 38.1677 22.2638C38.1677 22.2923 38.2113 22.3157 38.2645 22.3157C38.3178 22.3157 38.3614 22.339 38.3614 22.3676C38.3614 22.399 38.5711 22.4195 38.8939 22.4195C39.2167 22.4195 39.4264 22.399 39.4264 22.3676C39.4264 22.339 39.4816 22.3157 39.5491 22.3157C39.6854 22.3157 40.0074 22.007 40.0074 21.8762C40.0074 21.8325 40.0292 21.7967 40.0558 21.7967C40.0851 21.7967 40.1042 21.5718 40.1042 21.2258C40.1042 20.8797 40.0851 20.6549 40.0558 20.6549C40.0292 20.6549 40.0074 20.5381 40.0074 20.3954C40.0074 20.2526 39.9856 20.1359 39.959 20.1359C39.9323 20.1359 39.9105 20.0424 39.9105 19.9283C39.9105 19.8141 39.8888 19.7207 39.8621 19.7207C39.8355 19.7207 39.8137 19.6506 39.8137 19.565C39.8137 19.4793 39.7919 19.4093 39.7653 19.4093C39.7387 19.4093 39.7169 19.3625 39.7169 19.3055C39.7169 19.2484 39.6951 19.2017 39.6685 19.2017C39.6419 19.2017 39.6201 19.1316 39.6201 19.046C39.6201 18.9603 39.5983 18.8903 39.5717 18.8903C39.545 18.8903 39.5233 18.8435 39.5233 18.7865C39.5233 18.7294 39.5015 18.6827 39.4748 18.6827C39.4482 18.6827 39.4264 18.6411 39.4264 18.5903C39.4264 18.5395 39.3829 18.4643 39.3296 18.4232C39.2763 18.382 39.2328 18.3161 39.2328 18.2768C39.2328 18.2375 39.1674 18.1398 39.0875 18.0599C39.0077 17.9799 38.9423 17.8885 38.9423 17.8568C38.9423 17.7816 37.9432 16.7104 37.873 16.7104C37.8434 16.7104 37.7582 16.6404 37.6836 16.5547C37.609 16.4691 37.5179 16.399 37.4812 16.399C37.4445 16.399 37.3831 16.3523 37.3447 16.2952C37.3063 16.2382 37.2362 16.1914 37.1888 16.1914C37.1414 16.1914 37.1026 16.1681 37.1026 16.1395C37.1026 16.111 37.0591 16.0876 37.0058 16.0876C36.9526 16.0876 36.909 16.0643 36.909 16.0357C36.909 16.0072 36.8436 15.9838 36.7638 15.9838C36.6839 15.9838 36.6185 15.9605 36.6185 15.9319C36.6185 15.9034 36.575 15.88 36.5217 15.88C36.4684 15.88 36.4249 15.8567 36.4249 15.8281C36.4249 15.7996 36.3595 15.7762 36.2796 15.7762C36.1998 15.7762 36.1344 15.7529 36.1344 15.7243C36.1344 15.6958 36.0473 15.6724 35.9408 15.6724C35.8342 15.6724 35.7471 15.6491 35.7471 15.6205C35.7471 15.592 35.6382 15.5686 35.505 15.5686C35.3719 15.5686 35.263 15.5453 35.263 15.5167C35.263 15.4842 34.9564 15.4648 34.44 15.4648C33.9236 15.4648 33.617 15.4842 33.617 15.5167ZM35.0693 28.6994C35.0693 28.7279 35.1129 28.7513 35.1662 28.7513C35.2194 28.7513 35.263 28.7746 35.263 28.8032C35.263 28.8317 35.2964 28.8551 35.3372 28.8551C35.4336 28.8551 35.7471 29.1912 35.7471 29.2945C35.7471 29.3383 35.7689 29.3741 35.7955 29.3741C35.8221 29.3741 35.8439 29.4442 35.8439 29.5298C35.8439 29.6154 35.8657 29.6855 35.8923 29.6855C35.9193 29.6855 35.9408 29.8239 35.9408 29.9969C35.9408 30.1699 35.9193 30.3083 35.8923 30.3083C35.8657 30.3083 35.8439 30.3784 35.8439 30.464C35.8439 30.5496 35.8221 30.6197 35.7955 30.6197C35.7689 30.6197 35.7471 30.6558 35.7471 30.6999C35.7471 30.744 35.6936 30.8374 35.6283 30.9075C35.5629 30.9776 35.4758 31.0349 35.4346 31.0349C35.3935 31.0349 35.3598 31.0482 35.3598 31.0645C35.3598 31.116 35.4958 31.2425 35.551 31.2425C35.5802 31.2425 35.7233 31.3704 35.8692 31.5268C36.0503 31.721 36.1344 31.8526 36.1344 31.942C36.1344 32.014 36.1562 32.0729 36.1828 32.0729C36.2119 32.0729 36.2312 32.2805 36.2312 32.5919C36.2312 32.9033 36.2119 33.1109 36.1828 33.1109C36.1562 33.1109 36.1344 33.1576 36.1344 33.2147C36.1344 33.2718 36.1126 33.3185 36.086 33.3185C36.0594 33.3185 36.0376 33.3546 36.0376 33.3987C36.0376 33.5025 35.8219 33.7337 35.7251 33.7337C35.6839 33.7337 35.6503 33.7571 35.6503 33.7856C35.6503 33.8142 35.6067 33.8375 35.5535 33.8375C35.5002 33.8375 35.4566 33.8609 35.4566 33.8894C35.4566 33.918 35.4131 33.9413 35.3598 33.9413C35.3066 33.9413 35.263 33.9647 35.263 33.9932C35.263 34.0221 35.1339 34.0451 34.9725 34.0451C34.8112 34.0451 34.682 34.0682 34.682 34.097C34.682 34.1299 34.334 34.1489 33.7346 34.1489C32.9779 34.1489 32.7731 34.134 32.7179 34.0747C32.6597 34.0124 32.6487 33.5745 32.6487 31.324V28.6475H33.859C34.6336 28.6475 35.0693 28.6662 35.0693 28.6994ZM33.7138 30.1822C33.7138 30.5436 33.7326 30.6992 33.783 30.7531C33.8615 30.8374 34.2947 30.8562 34.2947 30.7754C34.2947 30.7469 34.372 30.7235 34.4664 30.7235C34.7297 30.7235 34.8757 30.5384 34.8757 30.2045C34.8757 29.9932 34.8519 29.9148 34.7568 29.8129C34.6473 29.6954 34.602 29.6855 34.1759 29.6855H33.7138V30.1822ZM33.7743 31.7353C33.7328 31.7859 33.7138 32.0131 33.7138 32.46V33.1109H34.1495C34.4077 33.1109 34.5852 33.0898 34.5852 33.059C34.5852 33.0305 34.6404 33.0071 34.7078 33.0071C34.7833 33.0071 34.8951 32.9378 34.9983 32.8272C35.1457 32.6692 35.1662 32.6152 35.1662 32.3843C35.1662 32.1535 35.1457 32.0994 34.9983 31.9414C34.8951 31.8308 34.7833 31.7615 34.7078 31.7615C34.6404 31.7615 34.5852 31.7381 34.5852 31.7096C34.5852 31.6247 33.8459 31.6482 33.7743 31.7353Z" fill="white"/>
<defs>
<filter id="filter0_bd_4394_9123" x="13.8574" y="4.25977" width="41.9551" height="46.5664" filterUnits="userSpaceOnUse" color-interpolation-filters="sRGB">
<feFlood flood-opacity="0" result="BackgroundImageFix"/>
<feGaussianBlur in="BackgroundImage" stdDeviation="2.5"/>
<feComposite in2="SourceAlpha" operator="in" result="effect1_backgroundBlur_4394_9123"/>
<feColorMatrix in="SourceAlpha" type="matrix" values="0 0 0 0 0 0 0 0 0 0 0 0 0 0 0 0 0 0 127 0" result="hardAlpha"/>
<feOffset dy="4"/>
<feGaussianBlur stdDeviation="2"/>
<feComposite in2="hardAlpha" operator="out"/>
<feColorMatrix type="matrix" values="0 0 0 0 0.7125 0 0 0 0 0.7125 0 0 0 0 0.7125 0 0 0 0.25 0"/>
<feBlend mode="normal" in2="effect1_backgroundBlur_4394_9123" result="effect2_dropShadow_4394_9123"/>
<feBlend mode="normal" in="SourceGraphic" in2="effect2_dropShadow_4394_9123" result="shape"/>
</filter>
<linearGradient id="paint0_linear_4394_9123" x1="49.6927" y1="42.1019" x2="30.3363" y2="4.16771" gradientUnits="userSpaceOnUse">
<stop stop-color="#1E1360" stop-opacity="0"/>
<stop offset="1" stop-color="#F5F5F5" stop-opacity="0.63"/>
</linearGradient>
</defs>
</svg>
