<svg width="53" height="51" viewBox="0 0 53 51" fill="none" xmlns="http://www.w3.org/2000/svg">
<rect x="0.390625" y="0.783203" width="39.8551" height="39.8551" rx="19.9275" fill="#BB13FF"/>
<g filter="url(#filter0_bd_4394_9072)">
<rect x="16.5898" y="12.5312" width="34.0182" height="32.8909" rx="6" fill="url(#paint0_linear_4394_9072)" shape-rendering="crispEdges"/>
</g>
<path fill-rule="evenodd" clip-rule="evenodd" d="M33.5386 20.0813C33.5386 20.1113 33.3391 20.1313 33.0398 20.1313C32.7406 20.1313 32.5411 20.1514 32.5411 20.1814C32.5411 20.2089 32.4288 20.2314 32.2917 20.2314C32.1545 20.2314 32.0423 20.254 32.0423 20.2815C32.0423 20.309 31.9525 20.3315 31.8428 20.3315C31.7331 20.3315 31.6433 20.3541 31.6433 20.3816C31.6433 20.4091 31.5535 20.4316 31.4438 20.4316C31.334 20.4316 31.2443 20.4542 31.2443 20.4817C31.2443 20.5092 31.1769 20.5317 31.0946 20.5317C31.0123 20.5317 30.945 20.5543 30.945 20.5818C30.945 20.6093 30.8777 20.6318 30.7954 20.6318C30.7131 20.6318 30.6457 20.6544 30.6457 20.6819C30.6457 20.7094 30.6009 20.7319 30.546 20.7319C30.4911 20.7319 30.4462 20.7545 30.4462 20.782C30.4462 20.8095 30.4014 20.832 30.3465 20.832C30.2916 20.832 30.2467 20.8546 30.2467 20.8821C30.2467 20.9096 30.2018 20.9321 30.147 20.9321C30.0921 20.9321 30.0472 20.9547 30.0472 20.9822C30.0472 21.0097 30.0023 21.0322 29.9475 21.0322C29.881 21.0322 29.8477 21.0656 29.8477 21.1323C29.8477 21.1874 29.8253 21.2324 29.7979 21.2324C29.7704 21.2324 29.748 21.3 29.748 21.3826C29.748 21.4651 29.7704 21.5327 29.7979 21.5327C29.8253 21.5327 29.8477 21.6003 29.8477 21.6829C29.8477 21.7654 29.8702 21.833 29.8976 21.833C29.925 21.833 29.9475 21.8781 29.9475 21.9331C29.9475 21.9882 29.9699 22.0332 29.9974 22.0332C30.0248 22.0332 30.0472 22.0782 30.0472 22.1333C30.0472 22.1884 30.0697 22.2334 30.0971 22.2334C30.1245 22.2334 30.147 22.2784 30.147 22.3335C30.147 22.3886 30.1694 22.4336 30.1969 22.4336C30.2243 22.4336 30.2467 22.4786 30.2467 22.5337C30.2467 22.5887 30.2692 22.6338 30.2966 22.6338C30.324 22.6338 30.3465 22.6686 30.3465 22.7111C30.3465 22.7537 30.4016 22.8437 30.4689 22.9113C30.5694 23.0122 30.6408 23.0342 30.8679 23.0342C31.0201 23.0342 31.1445 23.0117 31.1445 22.9841C31.1445 22.9566 31.2118 22.9341 31.2941 22.9341C31.3764 22.9341 31.4438 22.9116 31.4438 22.884C31.4438 22.8565 31.5111 22.834 31.5934 22.834C31.6757 22.834 31.743 22.8115 31.743 22.7839C31.743 22.7564 31.8104 22.7339 31.8927 22.7339C31.975 22.7339 32.0423 22.7114 32.0423 22.6838C32.0423 22.6563 32.1321 22.6338 32.2418 22.6338C32.3515 22.6338 32.4413 22.6113 32.4413 22.5837C32.4413 22.5559 32.5743 22.5337 32.7406 22.5337C32.9068 22.5337 33.0398 22.5115 33.0398 22.4836C33.0398 22.4518 33.4388 22.4336 34.1371 22.4336C34.8354 22.4336 35.2344 22.4518 35.2344 22.4836C35.2344 22.5112 35.3466 22.5337 35.4838 22.5337C35.6209 22.5337 35.7331 22.5562 35.7331 22.5837C35.7331 22.6113 35.8229 22.6338 35.9326 22.6338C36.0424 22.6338 36.1321 22.6563 36.1321 22.6838C36.1321 22.7114 36.1995 22.7339 36.2818 22.7339C36.3641 22.7339 36.4314 22.7564 36.4314 22.7839C36.4314 22.8115 36.4987 22.834 36.581 22.834C36.6633 22.834 36.7307 22.8565 36.7307 22.884C36.7307 22.9116 36.798 22.9341 36.8803 22.9341C36.9626 22.9341 37.0299 22.9566 37.0299 22.9841C37.0299 23.0117 37.0748 23.0342 37.1297 23.0342C37.1845 23.0342 37.2294 23.0567 37.2294 23.0842C37.2294 23.1118 37.2743 23.1343 37.3292 23.1343C37.384 23.1343 37.4289 23.1568 37.4289 23.1843C37.4289 23.2119 37.4738 23.2344 37.5287 23.2344C37.5835 23.2344 37.6284 23.2569 37.6284 23.2844C37.6284 23.312 37.6733 23.3345 37.7282 23.3345C37.7831 23.3345 37.8279 23.357 37.8279 23.3845C37.8279 23.412 37.8679 23.4346 37.9167 23.4346C37.9655 23.4346 38.0378 23.4796 38.0773 23.5347C38.1169 23.5897 38.1802 23.6348 38.218 23.6348C38.2557 23.6348 38.3496 23.7023 38.4265 23.7849C38.5033 23.8675 38.5911 23.9351 38.6215 23.9351C38.6937 23.9351 39.9228 25.1684 39.9228 25.2408C39.9228 25.2713 39.9901 25.3594 40.0724 25.4365C40.1547 25.5137 40.222 25.6078 40.222 25.6457C40.222 25.6837 40.2669 25.7472 40.3218 25.7869C40.3766 25.8266 40.4215 25.8941 40.4215 25.937C40.4215 25.9799 40.4664 26.0475 40.5213 26.0872C40.5761 26.1268 40.621 26.1994 40.621 26.2484C40.621 26.2973 40.6435 26.3374 40.6709 26.3374C40.6983 26.3374 40.7208 26.3824 40.7208 26.4375C40.7208 26.4926 40.7432 26.5376 40.7706 26.5376C40.7981 26.5376 40.8205 26.5826 40.8205 26.6377C40.8205 26.6928 40.843 26.7378 40.8704 26.7378C40.8978 26.7378 40.9203 26.8054 40.9203 26.8879C40.9203 26.9705 40.9427 27.0381 40.9702 27.0381C40.9976 27.0381 41.02 27.0831 41.02 27.1382C41.02 27.1932 41.0425 27.2383 41.0699 27.2383C41.0973 27.2383 41.1198 27.3059 41.1198 27.3884C41.1198 27.471 41.1422 27.5386 41.1697 27.5386C41.1971 27.5386 41.2195 27.6287 41.2195 27.7388C41.2195 27.8489 41.242 27.939 41.2694 27.939C41.2968 27.939 41.3193 28.0291 41.3193 28.1392C41.3193 28.2493 41.3417 28.3394 41.3692 28.3394C41.3969 28.3394 41.419 28.4728 41.419 28.6397C41.419 28.8065 41.4412 28.9399 41.4689 28.9399C41.5003 28.9399 41.5188 29.2736 41.5188 29.8408C41.5188 30.408 41.5003 30.7417 41.4689 30.7417C41.4412 30.7417 41.419 30.8752 41.419 31.042C41.419 31.2088 41.3969 31.3423 41.3692 31.3423C41.3417 31.3423 41.3193 31.4324 41.3193 31.5425C41.3193 31.6526 41.2968 31.7427 41.2694 31.7427C41.242 31.7427 41.2195 31.8328 41.2195 31.9429C41.2195 32.053 41.1971 32.1431 41.1697 32.1431C41.1422 32.1431 41.1198 32.2106 41.1198 32.2932C41.1198 32.3758 41.0973 32.4434 41.0699 32.4434C41.0425 32.4434 41.02 32.4884 41.02 32.5435C41.02 32.5985 40.9976 32.6436 40.9702 32.6436C40.9427 32.6436 40.9203 32.7111 40.9203 32.7937C40.9203 32.8763 40.8978 32.9439 40.8704 32.9439C40.843 32.9439 40.8205 32.9889 40.8205 33.044C40.8205 33.099 40.7981 33.144 40.7706 33.144C40.7432 33.144 40.7208 33.1891 40.7208 33.2441C40.7208 33.2992 40.6983 33.3442 40.6709 33.3442C40.6435 33.3442 40.621 33.379 40.621 33.4216C40.621 33.5098 40.4037 33.7446 40.3221 33.7446C40.2924 33.7446 40.0678 33.5419 39.823 33.2942C39.4072 32.8734 39.3645 32.8438 39.1743 32.8438C38.9582 32.8438 38.7257 33.0112 38.7257 33.1668C38.7257 33.2094 38.7033 33.2441 38.6758 33.2441C38.6435 33.2441 38.626 33.8948 38.626 35.096C38.626 36.2971 38.6435 36.9478 38.6758 36.9478C38.7033 36.9478 38.7257 36.9825 38.7257 37.0251C38.7257 37.1252 38.9479 37.3482 39.0477 37.3482C39.0901 37.3482 39.1247 37.3707 39.1247 37.3982C39.1247 37.4306 39.7565 37.4482 40.9203 37.4482C42.084 37.4482 42.7158 37.4306 42.7158 37.3982C42.7158 37.3707 42.7735 37.3482 42.8441 37.3482C42.9884 37.3482 43.1148 37.2447 43.1148 37.1265C43.1148 37.0832 43.1373 37.0479 43.1647 37.0479C43.1921 37.0479 43.2146 36.9803 43.2146 36.8977C43.2146 36.8151 43.1921 36.7476 43.1647 36.7476C43.1373 36.7476 43.1148 36.713 43.1148 36.6707C43.1148 36.6285 42.8904 36.3703 42.6161 36.0969C42.2457 35.7279 42.1173 35.5673 42.1173 35.4731C42.1173 35.4033 42.1398 35.3462 42.1672 35.3462C42.1946 35.3462 42.2171 35.3061 42.2171 35.2572C42.2171 35.2082 42.262 35.1356 42.3168 35.096C42.3717 35.0563 42.4166 34.9837 42.4166 34.9347C42.4166 34.8858 42.439 34.8457 42.4664 34.8457C42.4939 34.8457 42.5163 34.8007 42.5163 34.7456C42.5163 34.6906 42.5388 34.6455 42.5662 34.6455C42.5936 34.6455 42.6161 34.6005 42.6161 34.5454C42.6161 34.4904 42.6385 34.4453 42.666 34.4453C42.6934 34.4453 42.7158 34.4003 42.7158 34.3452C42.7158 34.2902 42.7383 34.2451 42.7657 34.2451C42.7931 34.2451 42.8156 34.2001 42.8156 34.145C42.8156 34.09 42.838 34.0449 42.8655 34.0449C42.8929 34.0449 42.9153 33.9999 42.9153 33.9448C42.9153 33.8898 42.9378 33.8447 42.9652 33.8447C42.9926 33.8447 43.0151 33.7997 43.0151 33.7446C43.0151 33.6896 43.0375 33.6445 43.065 33.6445C43.0924 33.6445 43.1148 33.5995 43.1148 33.5444C43.1148 33.4894 43.1373 33.4443 43.1647 33.4443C43.1921 33.4443 43.2146 33.3768 43.2146 33.2942C43.2146 33.2116 43.237 33.144 43.2645 33.144C43.2919 33.144 43.3143 33.0765 43.3143 32.9939C43.3143 32.9113 43.3368 32.8438 43.3642 32.8438C43.3917 32.8438 43.4141 32.7762 43.4141 32.6936C43.4141 32.611 43.4365 32.5435 43.464 32.5435C43.4914 32.5435 43.5138 32.4534 43.5138 32.3433C43.5138 32.2332 43.5363 32.1431 43.5637 32.1431C43.5912 32.1431 43.6136 32.0305 43.6136 31.8928C43.6136 31.7552 43.636 31.6426 43.6635 31.6426C43.6912 31.6426 43.7134 31.5091 43.7134 31.3423C43.7134 31.1755 43.7355 31.042 43.7632 31.042C43.7951 31.042 43.8131 30.6082 43.8131 29.8408C43.8131 29.0734 43.7951 28.6397 43.7632 28.6397C43.7355 28.6397 43.7134 28.5062 43.7134 28.3394C43.7134 28.1725 43.6912 28.0391 43.6635 28.0391C43.636 28.0391 43.6136 27.9265 43.6136 27.7888C43.6136 27.6512 43.5912 27.5386 43.5637 27.5386C43.5363 27.5386 43.5138 27.471 43.5138 27.3884C43.5138 27.3059 43.4914 27.2383 43.464 27.2383C43.4365 27.2383 43.4141 27.1482 43.4141 27.0381C43.4141 26.928 43.3917 26.8379 43.3642 26.8379C43.3368 26.8379 43.3143 26.7703 43.3143 26.6877C43.3143 26.6052 43.2919 26.5376 43.2645 26.5376C43.237 26.5376 43.2146 26.4926 43.2146 26.4375C43.2146 26.3824 43.1921 26.3374 43.1647 26.3374C43.1373 26.3374 43.1148 26.2698 43.1148 26.1873C43.1148 26.1047 43.0924 26.0371 43.065 26.0371C43.0375 26.0371 43.0151 25.9921 43.0151 25.937C43.0151 25.882 42.9926 25.8369 42.9652 25.8369C42.9378 25.8369 42.9153 25.7919 42.9153 25.7368C42.9153 25.6818 42.8929 25.6367 42.8655 25.6367C42.838 25.6367 42.8156 25.5917 42.8156 25.5366C42.8156 25.4816 42.7931 25.4365 42.7657 25.4365C42.7383 25.4365 42.7158 25.3915 42.7158 25.3364C42.7158 25.2814 42.6934 25.2363 42.666 25.2363C42.6385 25.2363 42.6161 25.1913 42.6161 25.1362C42.6161 25.0812 42.5936 25.0361 42.5662 25.0361C42.5388 25.0361 42.5163 24.9911 42.5163 24.936C42.5163 24.881 42.4939 24.8359 42.4664 24.8359C42.439 24.8359 42.4166 24.7958 42.4166 24.7469C42.4166 24.6979 42.3717 24.6254 42.3168 24.5857C42.262 24.546 42.2171 24.4784 42.2171 24.4355C42.2171 24.3927 42.1722 24.3251 42.1173 24.2854C42.0624 24.2457 42.0176 24.183 42.0176 24.146C42.0176 24.109 41.9053 23.969 41.7682 23.835C41.631 23.7009 41.5188 23.567 41.5188 23.5374C41.5188 23.4667 40.3889 22.3335 40.3184 22.3335C40.2885 22.3335 40.1778 22.2434 40.0724 22.1333C39.9669 22.0232 39.8502 21.9331 39.813 21.9331C39.7757 21.9331 39.7129 21.8881 39.6734 21.833C39.6338 21.778 39.5665 21.7329 39.5237 21.7329C39.481 21.7329 39.4137 21.6879 39.3741 21.6328C39.3346 21.5778 39.2623 21.5327 39.2135 21.5327C39.1647 21.5327 39.1247 21.5102 39.1247 21.4827C39.1247 21.4551 39.0798 21.4326 39.025 21.4326C38.9701 21.4326 38.9252 21.4101 38.9252 21.3826C38.9252 21.355 38.8853 21.3325 38.8365 21.3325C38.7877 21.3325 38.7154 21.2875 38.6758 21.2324C38.6363 21.1774 38.564 21.1323 38.5152 21.1323C38.4664 21.1323 38.4265 21.1098 38.4265 21.0823C38.4265 21.0547 38.3816 21.0322 38.3267 21.0322C38.2718 21.0322 38.227 21.0097 38.227 20.9822C38.227 20.9547 38.1821 20.9321 38.1272 20.9321C38.0723 20.9321 38.0274 20.9096 38.0274 20.8821C38.0274 20.8546 37.9601 20.832 37.8778 20.832C37.7955 20.832 37.7282 20.8095 37.7282 20.782C37.7282 20.7545 37.6833 20.7319 37.6284 20.7319C37.5736 20.7319 37.5287 20.7094 37.5287 20.6819C37.5287 20.6544 37.4614 20.6318 37.3791 20.6318C37.2968 20.6318 37.2294 20.6093 37.2294 20.5818C37.2294 20.5543 37.1621 20.5317 37.0798 20.5317C36.9975 20.5317 36.9302 20.5092 36.9302 20.4817C36.9302 20.4542 36.8628 20.4316 36.7805 20.4316C36.6982 20.4316 36.6309 20.4091 36.6309 20.3816C36.6309 20.3541 36.5187 20.3315 36.3815 20.3315C36.2444 20.3315 36.1321 20.309 36.1321 20.2815C36.1321 20.254 36.0199 20.2314 35.8828 20.2314C35.7456 20.2314 35.6334 20.2089 35.6334 20.1814C35.6334 20.1514 35.4339 20.1313 35.1346 20.1313C34.8354 20.1313 34.6359 20.1113 34.6359 20.0813C34.6359 20.051 34.4197 20.0312 34.0872 20.0312C33.7547 20.0312 33.5386 20.051 33.5386 20.0813ZM25.1219 22.5107C24.8353 22.8119 24.8708 22.8981 25.5688 23.5952C25.9038 23.9297 26.1507 24.2124 26.1175 24.2235C26.0843 24.2346 26.0571 24.2819 26.0571 24.3286C26.0571 24.3752 26.0122 24.4459 25.9574 24.4856C25.9025 24.5253 25.8576 24.5978 25.8576 24.6468C25.8576 24.6958 25.8352 24.7358 25.8077 24.7358C25.7803 24.7358 25.7579 24.7759 25.7579 24.8249C25.7579 24.8739 25.713 24.9464 25.6581 24.9861C25.6032 25.0258 25.5584 25.0983 25.5584 25.1473C25.5584 25.1962 25.5359 25.2363 25.5085 25.2363C25.4811 25.2363 25.4586 25.2814 25.4586 25.3364C25.4586 25.3915 25.4362 25.4365 25.4087 25.4365C25.3813 25.4365 25.3589 25.4816 25.3589 25.5366C25.3589 25.5917 25.3364 25.6367 25.309 25.6367C25.2815 25.6367 25.2591 25.6818 25.2591 25.7368C25.2591 25.7919 25.2367 25.8369 25.2092 25.8369C25.1818 25.8369 25.1593 25.882 25.1593 25.937C25.1593 25.9921 25.1369 26.0371 25.1095 26.0371C25.082 26.0371 25.0596 26.1047 25.0596 26.1873C25.0596 26.2698 25.0372 26.3374 25.0097 26.3374C24.9823 26.3374 24.9598 26.3824 24.9598 26.4375C24.9598 26.4926 24.9374 26.5376 24.91 26.5376C24.8825 26.5376 24.8601 26.6052 24.8601 26.6877C24.8601 26.7703 24.8376 26.8379 24.8102 26.8379C24.7828 26.8379 24.7603 26.928 24.7603 27.0381C24.7603 27.1482 24.7379 27.2383 24.7105 27.2383C24.683 27.2383 24.6606 27.3059 24.6606 27.3884C24.6606 27.471 24.6381 27.5386 24.6107 27.5386C24.5833 27.5386 24.5608 27.6512 24.5608 27.7888C24.5608 27.9265 24.5384 28.0391 24.511 28.0391C24.4825 28.0391 24.4611 28.1892 24.4611 28.3894C24.4611 28.5896 24.4397 28.7397 24.4112 28.7397C24.3795 28.7397 24.3613 29.1401 24.3613 29.8408C24.3613 30.5415 24.3795 30.9419 24.4112 30.9419C24.4397 30.9419 24.4611 31.092 24.4611 31.2922C24.4611 31.4924 24.4825 31.6426 24.511 31.6426C24.5384 31.6426 24.5608 31.7552 24.5608 31.8928C24.5608 32.0305 24.5833 32.1431 24.6107 32.1431C24.6381 32.1431 24.6606 32.2332 24.6606 32.3433C24.6606 32.4534 24.683 32.5435 24.7105 32.5435C24.7379 32.5435 24.7603 32.611 24.7603 32.6936C24.7603 32.7762 24.7828 32.8438 24.8102 32.8438C24.8376 32.8438 24.8601 32.9113 24.8601 32.9939C24.8601 33.0765 24.8825 33.144 24.91 33.144C24.9374 33.144 24.9598 33.2116 24.9598 33.2942C24.9598 33.3768 24.9823 33.4443 25.0097 33.4443C25.0372 33.4443 25.0596 33.4894 25.0596 33.5444C25.0596 33.5995 25.082 33.6445 25.1095 33.6445C25.1369 33.6445 25.1593 33.6896 25.1593 33.7446C25.1593 33.7997 25.1818 33.8447 25.2092 33.8447C25.2367 33.8447 25.2591 33.8898 25.2591 33.9448C25.2591 33.9999 25.2815 34.0449 25.309 34.0449C25.3364 34.0449 25.3589 34.09 25.3589 34.145C25.3589 34.2001 25.3813 34.2451 25.4087 34.2451C25.4362 34.2451 25.4586 34.2902 25.4586 34.3452C25.4586 34.4003 25.4811 34.4453 25.5085 34.4453C25.5359 34.4453 25.5584 34.4904 25.5584 34.5454C25.5584 34.6005 25.5808 34.6455 25.6082 34.6455C25.6357 34.6455 25.6581 34.6856 25.6581 34.7346C25.6581 34.7835 25.703 34.8561 25.7579 34.8958C25.8127 34.9354 25.8576 35.003 25.8576 35.0459C25.8576 35.0888 25.9025 35.1564 25.9574 35.1961C26.0122 35.2357 26.0571 35.3033 26.0571 35.3462C26.0571 35.3891 26.102 35.4567 26.1569 35.4963C26.2117 35.536 26.2566 35.599 26.2566 35.6364C26.2566 35.6738 26.3464 35.7909 26.4561 35.8967C26.5659 36.0025 26.6556 36.1136 26.6556 36.1436C26.6556 36.2147 27.7851 37.3482 27.8561 37.3482C27.8859 37.3482 27.9966 37.4382 28.1021 37.5483C28.2075 37.6585 28.3242 37.7485 28.3615 37.7485C28.3987 37.7485 28.4615 37.7936 28.5011 37.8486C28.5406 37.9037 28.608 37.9487 28.6507 37.9487C28.6934 37.9487 28.7608 37.9938 28.8003 38.0488C28.8399 38.1039 28.9121 38.1489 28.961 38.1489C29.0098 38.1489 29.0497 38.1715 29.0497 38.199C29.0497 38.2265 29.0897 38.249 29.1384 38.249C29.1873 38.249 29.2595 38.2941 29.2991 38.3491C29.3386 38.4042 29.4109 38.4492 29.4597 38.4492C29.5085 38.4492 29.5485 38.4717 29.5485 38.4993C29.5485 38.5268 29.5934 38.5493 29.6482 38.5493C29.7031 38.5493 29.748 38.5718 29.748 38.5994C29.748 38.6269 29.7929 38.6494 29.8477 38.6494C29.9026 38.6494 29.9475 38.6719 29.9475 38.6995C29.9475 38.727 29.9924 38.7495 30.0472 38.7495C30.1021 38.7495 30.147 38.772 30.147 38.7996C30.147 38.8271 30.2143 38.8496 30.2966 38.8496C30.3789 38.8496 30.4462 38.8721 30.4462 38.8997C30.4462 38.9272 30.4911 38.9497 30.546 38.9497C30.6009 38.9497 30.6457 38.9722 30.6457 38.9998C30.6457 39.0273 30.7131 39.0498 30.7954 39.0498C30.8777 39.0498 30.945 39.0723 30.945 39.0999C30.945 39.1274 31.0123 39.1499 31.0946 39.1499C31.1769 39.1499 31.2443 39.1724 31.2443 39.2C31.2443 39.2275 31.3116 39.25 31.3939 39.25C31.4762 39.25 31.5435 39.2725 31.5435 39.3001C31.5435 39.3276 31.6333 39.3501 31.743 39.3501C31.8528 39.3501 31.9425 39.3726 31.9425 39.4002C31.9425 39.4277 32.0548 39.4502 32.1919 39.4502C32.3291 39.4502 32.4413 39.4727 32.4413 39.5003C32.4413 39.5288 32.5909 39.5503 32.7904 39.5503C32.9899 39.5503 33.1396 39.5718 33.1396 39.6003C33.1396 39.6319 33.4721 39.6504 34.0373 39.6504C34.6026 39.6504 34.9351 39.6319 34.9351 39.6003C34.9351 39.5712 35.1014 39.5503 35.3341 39.5503C35.5669 39.5503 35.7331 39.5294 35.7331 39.5003C35.7331 39.4727 35.8454 39.4502 35.9825 39.4502C36.1197 39.4502 36.2319 39.4277 36.2319 39.4002C36.2319 39.3726 36.3217 39.3501 36.4314 39.3501C36.5411 39.3501 36.6309 39.3276 36.6309 39.3001C36.6309 39.2725 36.6982 39.25 36.7805 39.25C36.8628 39.25 36.9302 39.2275 36.9302 39.2C36.9302 39.1724 36.9975 39.1499 37.0798 39.1499C37.1621 39.1499 37.2294 39.1274 37.2294 39.0999C37.2294 39.0723 37.2968 39.0498 37.3791 39.0498C37.4614 39.0498 37.5287 39.0273 37.5287 38.9998C37.5287 38.9722 37.5736 38.9497 37.6284 38.9497C37.6833 38.9497 37.7282 38.9272 37.7282 38.8997C37.7282 38.8721 37.7955 38.8496 37.8778 38.8496C37.9601 38.8496 38.0274 38.8271 38.0274 38.7996C38.0274 38.772 38.0627 38.7495 38.1058 38.7495C38.2066 38.7495 38.3267 38.629 38.3267 38.5279C38.3267 38.4846 38.3492 38.4492 38.3766 38.4492C38.404 38.4492 38.4265 38.3591 38.4265 38.249C38.4265 38.1389 38.404 38.0488 38.3766 38.0488C38.3492 38.0488 38.3267 38.0038 38.3267 37.9487C38.3267 37.8937 38.3043 37.8486 38.2768 37.8486C38.2494 37.8486 38.227 37.8036 38.227 37.7485C38.227 37.6935 38.2045 37.6484 38.1771 37.6484C38.1496 37.6484 38.1272 37.6034 38.1272 37.5483C38.1272 37.4933 38.1048 37.4482 38.0773 37.4482C38.0499 37.4482 38.0274 37.4032 38.0274 37.3482C38.0274 37.2931 38.005 37.2481 37.9776 37.2481C37.9501 37.2481 37.9277 37.203 37.9277 37.148C37.9277 37.0929 37.9053 37.0479 37.8778 37.0479C37.8504 37.0479 37.8279 37.0131 37.8279 36.9705C37.8279 36.928 37.7728 36.8379 37.7055 36.7703C37.605 36.6694 37.5337 36.6475 37.3065 36.6475C37.1544 36.6475 37.0299 36.67 37.0299 36.6975C37.0299 36.725 36.985 36.7476 36.9302 36.7476C36.8753 36.7476 36.8304 36.7701 36.8304 36.7976C36.8304 36.8251 36.7631 36.8477 36.6808 36.8477C36.5985 36.8477 36.5312 36.8702 36.5312 36.8977C36.5312 36.9252 36.4638 36.9478 36.3815 36.9478C36.2992 36.9478 36.2319 36.9703 36.2319 36.9978C36.2319 37.0253 36.1421 37.0479 36.0324 37.0479C35.9227 37.0479 35.8329 37.0704 35.8329 37.0979C35.8329 37.1254 35.7207 37.148 35.5835 37.148C35.4463 37.148 35.3341 37.1705 35.3341 37.198C35.3341 37.23 34.8852 37.2481 34.0872 37.2481C33.2892 37.2481 32.8403 37.23 32.8403 37.198C32.8403 37.1705 32.7281 37.148 32.5909 37.148C32.4538 37.148 32.3415 37.1254 32.3415 37.0979C32.3415 37.0704 32.2518 37.0479 32.142 37.0479C32.0323 37.0479 31.9425 37.0253 31.9425 36.9978C31.9425 36.9703 31.8752 36.9478 31.7929 36.9478C31.7106 36.9478 31.6433 36.9252 31.6433 36.8977C31.6433 36.8702 31.5984 36.8477 31.5435 36.8477C31.4887 36.8477 31.4438 36.8251 31.4438 36.7976C31.4438 36.7701 31.3764 36.7476 31.2941 36.7476C31.2118 36.7476 31.1445 36.725 31.1445 36.6975C31.1445 36.67 31.0996 36.6475 31.0448 36.6475C30.9899 36.6475 30.945 36.6249 30.945 36.5974C30.945 36.5699 30.9001 36.5474 30.8453 36.5474C30.7904 36.5474 30.7455 36.5248 30.7455 36.4973C30.7455 36.4698 30.7006 36.4473 30.6457 36.4473C30.5909 36.4473 30.546 36.4247 30.546 36.3972C30.546 36.3697 30.5011 36.3472 30.4462 36.3472C30.3914 36.3472 30.3465 36.3247 30.3465 36.2971C30.3465 36.2696 30.3065 36.2471 30.2578 36.2471C30.2089 36.2471 30.1367 36.202 30.0971 36.147C30.0576 36.0919 29.9943 36.0469 29.9565 36.0469C29.9187 36.0469 29.8248 35.9793 29.748 35.8967C29.6711 35.8142 29.5833 35.7466 29.5529 35.7466C29.4807 35.7466 28.2517 34.5133 28.2517 34.4409C28.2517 34.4103 28.1844 34.3222 28.1021 34.2451C28.0198 34.168 27.9524 34.0738 27.9524 34.0359C27.9524 33.998 27.9075 33.9345 27.8527 33.8948C27.7978 33.8551 27.7529 33.7826 27.7529 33.7336C27.7529 33.6846 27.7305 33.6445 27.703 33.6445C27.6756 33.6445 27.6532 33.5995 27.6532 33.5444C27.6532 33.4894 27.6307 33.4443 27.6033 33.4443C27.5759 33.4443 27.5534 33.3993 27.5534 33.3442C27.5534 33.2892 27.531 33.2441 27.5035 33.2441C27.4761 33.2441 27.4537 33.1991 27.4537 33.144C27.4537 33.089 27.4312 33.044 27.4038 33.044C27.3764 33.044 27.3539 32.9989 27.3539 32.9439C27.3539 32.8888 27.3315 32.8438 27.304 32.8438C27.2766 32.8438 27.2542 32.7987 27.2542 32.7437C27.2542 32.6886 27.2317 32.6436 27.2043 32.6436C27.1768 32.6436 27.1544 32.576 27.1544 32.4934C27.1544 32.4108 27.132 32.3433 27.1045 32.3433C27.0771 32.3433 27.0547 32.2757 27.0547 32.1931C27.0547 32.1105 27.0322 32.043 27.0048 32.043C26.9773 32.043 26.9549 31.9754 26.9549 31.8928C26.9549 31.8102 26.9325 31.7427 26.905 31.7427C26.8776 31.7427 26.8551 31.6526 26.8551 31.5425C26.8551 31.4324 26.8327 31.3423 26.8053 31.3423C26.7768 31.3423 26.7554 31.1921 26.7554 30.9919C26.7554 30.7918 26.734 30.6416 26.7055 30.6416C26.6743 30.6416 26.6556 30.3413 26.6556 29.8408C26.6556 29.3403 26.6743 29.04 26.7055 29.04C26.734 29.04 26.7554 28.8899 26.7554 28.6897C26.7554 28.4895 26.7768 28.3394 26.8053 28.3394C26.8327 28.3394 26.8551 28.2493 26.8551 28.1392C26.8551 28.0291 26.8776 27.939 26.905 27.939C26.9325 27.939 26.9549 27.8714 26.9549 27.7888C26.9549 27.7062 26.9773 27.6387 27.0048 27.6387C27.0322 27.6387 27.0547 27.5711 27.0547 27.4885C27.0547 27.4059 27.0771 27.3384 27.1045 27.3384C27.132 27.3384 27.1544 27.2933 27.1544 27.2383C27.1544 27.1832 27.1768 27.1382 27.2043 27.1382C27.2317 27.1382 27.2542 27.0706 27.2542 26.988C27.2542 26.9055 27.2766 26.8379 27.304 26.8379C27.3315 26.8379 27.3539 26.7928 27.3539 26.7378C27.3539 26.6827 27.3764 26.6377 27.4038 26.6377C27.4312 26.6377 27.4537 26.5927 27.4537 26.5376C27.4537 26.4825 27.4761 26.4375 27.5035 26.4375C27.531 26.4375 27.5534 26.3925 27.5534 26.3374C27.5534 26.2824 27.5759 26.2373 27.6033 26.2373C27.6307 26.2373 27.6532 26.2019 27.6532 26.1587C27.6532 26.0678 27.7699 25.937 27.851 25.937C27.8815 25.937 28.1066 26.1397 28.3514 26.3875C28.7668 26.8078 28.81 26.8379 28.9996 26.8379C29.1648 26.8379 29.2349 26.8056 29.3755 26.6644L29.5485 26.4909V24.5857V22.6805L29.3755 22.507L29.2027 22.3335L27.2433 22.337L25.284 22.3404L25.1219 22.5107ZM33.7381 24.3855C33.7381 24.413 33.7028 24.4355 33.6597 24.4355C33.4684 24.4355 33.4388 24.5524 33.4388 25.3078V26.0371H33.2892C33.2069 26.0371 33.1396 26.0596 33.1396 26.0872C33.1396 26.1147 33.0722 26.1372 32.9899 26.1372C32.9076 26.1372 32.8403 26.1597 32.8403 26.1873C32.8403 26.2148 32.7954 26.2373 32.7406 26.2373C32.6857 26.2373 32.6408 26.2598 32.6408 26.2874C32.6408 26.3149 32.6049 26.3374 32.5611 26.3374C32.5172 26.3374 32.4184 26.405 32.3415 26.4876C32.2647 26.5701 32.1755 26.6377 32.1434 26.6377C32.0641 26.6377 31.9425 26.7652 31.9425 26.8483C31.9425 26.8855 31.8976 26.9484 31.8428 26.988C31.7879 27.0277 31.743 27.1002 31.743 27.1492C31.743 27.1982 31.7206 27.2383 31.6932 27.2383C31.6657 27.2383 31.6433 27.2833 31.6433 27.3384C31.6433 27.3934 31.6208 27.4385 31.5934 27.4385C31.566 27.4385 31.5435 27.506 31.5435 27.5886C31.5435 27.6712 31.5211 27.7388 31.4936 27.7388C31.4637 27.7388 31.4438 27.939 31.4438 28.2393C31.4438 28.5396 31.4637 28.7397 31.4936 28.7397C31.5211 28.7397 31.5435 28.8073 31.5435 28.8899C31.5435 28.9725 31.566 29.04 31.5934 29.04C31.6208 29.04 31.6433 29.0801 31.6433 29.1291C31.6433 29.1781 31.6882 29.2506 31.743 29.2903C31.7979 29.33 31.8428 29.392 31.8428 29.4281C31.8428 29.5135 32.169 29.8408 32.2541 29.8408C32.2901 29.8408 32.3519 29.8859 32.3914 29.9409C32.431 29.996 32.5032 30.041 32.5521 30.041C32.6009 30.041 32.6408 30.0635 32.6408 30.0911C32.6408 30.1186 32.6857 30.1411 32.7406 30.1411C32.7954 30.1411 32.8403 30.1636 32.8403 30.1912C32.8403 30.2187 32.8852 30.2412 32.9401 30.2412C32.9949 30.2412 33.0398 30.2637 33.0398 30.2913C33.0398 30.3188 33.1071 30.3413 33.1894 30.3413C33.2717 30.3413 33.3391 30.3638 33.3391 30.3914C33.3391 30.4189 33.384 30.4414 33.4388 30.4414C33.4937 30.4414 33.5386 30.4639 33.5386 30.4915C33.5386 30.519 33.5835 30.5415 33.6383 30.5415C33.6932 30.5415 33.7381 30.564 33.7381 30.5916C33.7381 30.6191 33.8054 30.6416 33.8877 30.6416C33.97 30.6416 34.0373 30.6641 34.0373 30.6917C34.0373 30.7192 34.0822 30.7417 34.1371 30.7417C34.192 30.7417 34.2368 30.7642 34.2368 30.7918C34.2368 30.8193 34.2817 30.8418 34.3366 30.8418C34.3915 30.8418 34.4364 30.8643 34.4364 30.8918C34.4364 30.9194 34.471 30.9419 34.5134 30.9419C34.6346 30.9419 34.8354 31.1745 34.8354 31.315C34.8354 31.3851 34.8578 31.4424 34.8852 31.4424C34.9127 31.4424 34.9351 31.4874 34.9351 31.5425C34.9351 31.5975 34.9127 31.6426 34.8852 31.6426C34.8578 31.6426 34.8354 31.7005 34.8354 31.7713C34.8354 31.9161 34.7322 32.043 34.6145 32.043C34.5714 32.043 34.5361 32.0655 34.5361 32.093C34.5361 32.1205 34.4688 32.1431 34.3865 32.1431C34.3042 32.1431 34.2368 32.1656 34.2368 32.1931C34.2368 32.2206 34.1246 32.2432 33.9875 32.2432C33.8503 32.2432 33.7381 32.2206 33.7381 32.1931C33.7381 32.1656 33.6483 32.1431 33.5386 32.1431C33.4289 32.1431 33.3391 32.1205 33.3391 32.093C33.3391 32.0655 33.2717 32.043 33.1894 32.043C33.1071 32.043 33.0398 32.0205 33.0398 31.9929C33.0398 31.9654 32.9999 31.9429 32.9511 31.9429C32.9023 31.9429 32.83 31.8978 32.7904 31.8428C32.7509 31.7877 32.6835 31.7427 32.6408 31.7427C32.5981 31.7427 32.5307 31.6976 32.4912 31.6426C32.4516 31.5875 32.3876 31.5425 32.3489 31.5425C32.3101 31.5425 32.2335 31.4918 32.1786 31.4299C32.1109 31.3535 32.0715 31.3374 32.0564 31.3798C32.044 31.4143 31.991 31.4424 31.9384 31.4424C31.884 31.4424 31.8428 31.4769 31.8428 31.5224C31.8428 31.5664 31.7754 31.6656 31.6932 31.7427C31.6109 31.8198 31.5435 31.9099 31.5435 31.9429C31.5435 31.9759 31.4762 32.0659 31.3939 32.1431C31.2743 32.2551 31.2443 32.3249 31.2443 32.4902C31.2443 32.6594 31.2757 32.7284 31.4172 32.8704C31.5123 32.9659 31.6155 33.044 31.6465 33.044C31.6776 33.044 31.7659 33.1115 31.8428 33.1941C31.9196 33.2767 32.0184 33.3442 32.0623 33.3442C32.1062 33.3442 32.142 33.3668 32.142 33.3943C32.142 33.4218 32.1869 33.4443 32.2418 33.4443C32.2967 33.4443 32.3415 33.4669 32.3415 33.4944C32.3415 33.5219 32.3864 33.5444 32.4413 33.5444C32.4962 33.5444 32.5411 33.567 32.5411 33.5945C32.5411 33.622 32.5859 33.6445 32.6408 33.6445C32.6957 33.6445 32.7406 33.6671 32.7406 33.6946C32.7406 33.7221 32.8079 33.7446 32.8902 33.7446C32.9725 33.7446 33.0398 33.7672 33.0398 33.7947C33.0398 33.8222 33.1296 33.8447 33.2393 33.8447H33.4388V34.5239C33.4388 35.0459 33.4553 35.2198 33.5101 35.2747C33.5633 35.3281 33.7219 35.3462 34.1371 35.3462C34.5523 35.3462 34.7109 35.3281 34.7641 35.2747C34.8189 35.2198 34.8354 35.0459 34.8354 34.5239V33.8447H35.0349C35.1446 33.8447 35.2344 33.8222 35.2344 33.7947C35.2344 33.7672 35.3017 33.7446 35.384 33.7446C35.4663 33.7446 35.5336 33.7221 35.5336 33.6946C35.5336 33.6671 35.5785 33.6445 35.6334 33.6445C35.6882 33.6445 35.7331 33.622 35.7331 33.5945C35.7331 33.567 35.7731 33.5444 35.8219 33.5444C35.8707 33.5444 35.943 33.4994 35.9825 33.4443C36.0221 33.3893 36.0839 33.3442 36.1199 33.3442C36.205 33.3442 36.5312 33.0169 36.5312 32.9315C36.5312 32.8954 36.576 32.8334 36.6309 32.7937C36.6858 32.754 36.7307 32.6815 36.7307 32.6325C36.7307 32.5836 36.7531 32.5435 36.7805 32.5435C36.808 32.5435 36.8304 32.4534 36.8304 32.3433C36.8304 32.2332 36.8529 32.1431 36.8803 32.1431C36.9108 32.1431 36.9302 31.9095 36.9302 31.5425C36.9302 31.1755 36.9108 30.9419 36.8803 30.9419C36.8529 30.9419 36.8304 30.8969 36.8304 30.8418C36.8304 30.7867 36.808 30.7417 36.7805 30.7417C36.7531 30.7417 36.7307 30.6967 36.7307 30.6416C36.7307 30.5866 36.7082 30.5415 36.6808 30.5415C36.6534 30.5415 36.6309 30.5072 36.6309 30.4653C36.6309 30.3726 36.1104 29.8408 36.0195 29.8408C35.9839 29.8408 35.9223 29.7958 35.8828 29.7407C35.8432 29.6857 35.7709 29.6406 35.7221 29.6406C35.6733 29.6406 35.6334 29.6181 35.6334 29.5906C35.6334 29.5631 35.5885 29.5405 35.5336 29.5405C35.4788 29.5405 35.4339 29.518 35.4339 29.4905C35.4339 29.463 35.389 29.4404 35.3341 29.4404C35.2793 29.4404 35.2344 29.4179 35.2344 29.3904C35.2344 29.3629 35.167 29.3403 35.0847 29.3403C35.0024 29.3403 34.9351 29.3178 34.9351 29.2903C34.9351 29.2628 34.8902 29.2402 34.8354 29.2402C34.7805 29.2402 34.7356 29.2177 34.7356 29.1902C34.7356 29.1627 34.6683 29.1401 34.586 29.1401C34.5037 29.1401 34.4364 29.1176 34.4364 29.0901C34.4364 29.0626 34.3915 29.04 34.3366 29.04C34.2817 29.04 34.2368 29.0175 34.2368 28.99C34.2368 28.9625 34.1745 28.9399 34.0982 28.9399C34.0168 28.9399 33.93 28.8986 33.8877 28.8398C33.8482 28.7848 33.7855 28.7397 33.7485 28.7397C33.6571 28.7397 33.5386 28.6146 33.5386 28.5181C33.5386 28.4748 33.5161 28.4395 33.4887 28.4395C33.4613 28.4395 33.4388 28.3374 33.4388 28.2126C33.4388 28.0204 33.4653 27.9591 33.6117 27.8122C33.718 27.7055 33.8333 27.6387 33.911 27.6387C33.9805 27.6387 34.0373 27.6162 34.0373 27.5886C34.0373 27.5611 34.1271 27.5386 34.2368 27.5386C34.3466 27.5386 34.4364 27.5611 34.4364 27.5886C34.4364 27.6162 34.5261 27.6387 34.6359 27.6387C34.7456 27.6387 34.8354 27.6612 34.8354 27.6887C34.8354 27.7163 34.8753 27.7388 34.9241 27.7388C34.9729 27.7388 35.0452 27.7838 35.0847 27.8389C35.1243 27.8939 35.1876 27.939 35.2254 27.939C35.2632 27.939 35.357 28.0065 35.4339 28.0891C35.5107 28.1717 35.6076 28.2393 35.6492 28.2393C35.6908 28.2393 35.7338 28.2664 35.7449 28.2995C35.7672 28.3669 36.3317 27.8238 36.3317 27.7349C36.3317 27.7041 36.399 27.6157 36.4813 27.5386C36.7064 27.3276 36.6861 27.1409 36.4078 26.8616C36.2851 26.7384 36.1594 26.6377 36.1286 26.6377C36.0977 26.6377 36.0095 26.5701 35.9326 26.4876C35.8558 26.405 35.757 26.3374 35.7131 26.3374C35.6692 26.3374 35.6334 26.3149 35.6334 26.2874C35.6334 26.2598 35.5661 26.2373 35.4838 26.2373C35.4015 26.2373 35.3341 26.2148 35.3341 26.1873C35.3341 26.1597 35.2892 26.1372 35.2344 26.1372C35.1795 26.1372 35.1346 26.1147 35.1346 26.0872C35.1346 26.0596 35.0673 26.0371 34.985 26.0371H34.8354V25.3092C34.8354 24.603 34.8317 24.5775 34.7129 24.4583C34.602 24.347 34.5503 24.3355 34.1643 24.3355C33.9134 24.3355 33.7381 24.356 33.7381 24.3855Z" fill="white"/>
<defs>
<filter id="filter0_bd_4394_9072" x="11.5898" y="7.53125" width="44.0176" height="45.8906" filterUnits="userSpaceOnUse" color-interpolation-filters="sRGB">
<feFlood flood-opacity="0" result="BackgroundImageFix"/>
<feGaussianBlur in="BackgroundImage" stdDeviation="2.5"/>
<feComposite in2="SourceAlpha" operator="in" result="effect1_backgroundBlur_4394_9072"/>
<feColorMatrix in="SourceAlpha" type="matrix" values="0 0 0 0 0 0 0 0 0 0 0 0 0 0 0 0 0 0 127 0" result="hardAlpha"/>
<feOffset dy="4"/>
<feGaussianBlur stdDeviation="2"/>
<feComposite in2="hardAlpha" operator="out"/>
<feColorMatrix type="matrix" values="0 0 0 0 0.7125 0 0 0 0 0.7125 0 0 0 0 0.7125 0 0 0 0.25 0"/>
<feBlend mode="normal" in2="effect1_backgroundBlur_4394_9072" result="effect2_dropShadow_4394_9072"/>
<feBlend mode="normal" in="SourceGraphic" in2="effect2_dropShadow_4394_9072" result="shape"/>
</filter>
<linearGradient id="paint0_linear_4394_9072" x1="49.4166" y1="44.7117" x2="31.3907" y2="6.32982" gradientUnits="userSpaceOnUse">
<stop stop-color="#1E1360" stop-opacity="0"/>
<stop offset="1" stop-color="#F5F5F5" stop-opacity="0.63"/>
</linearGradient>
</defs>
</svg>
