<svg width="55" height="55" viewBox="0 0 55 55" fill="none" xmlns="http://www.w3.org/2000/svg">
<g clip-path="url(#clip0_4394_9080)">
<rect x="2.39062" y="4.7832" width="39.8551" height="40.5797" rx="19.9275" fill="#00FFAA"/>
<g filter="url(#filter0_bd_4394_9080)">
<rect x="19.1289" y="15.334" width="33.4783" height="34.087" rx="6" fill="url(#paint0_linear_4394_9080)" shape-rendering="crispEdges"/>
</g>
<path d="M31.9027 27.0625C31.7944 27.0641 31.6866 27.0775 31.5812 27.1027C31.2812 27.1736 31.014 27.344 30.823 27.5861C30.632 27.8281 30.5285 28.1276 30.5293 28.4359V30.4311C30.5299 30.5302 30.5694 30.6251 30.6392 30.6954C30.7091 30.7657 30.8037 30.8056 30.9028 30.8069H32.9003C32.9996 30.8063 33.0946 30.7664 33.1645 30.696C33.2345 30.6255 33.2738 30.5303 33.2738 30.4311V28.4359C33.2738 28.0721 33.1294 27.7231 32.8724 27.4656C32.6153 27.2081 32.2666 27.0631 31.9027 27.0625ZM32.5244 30.0575H31.2787V28.4359C31.2734 28.3509 31.2856 28.2657 31.3146 28.1856C31.3435 28.1055 31.3885 28.0321 31.4469 27.9701C31.5052 27.908 31.5757 27.8586 31.6539 27.8248C31.7321 27.791 31.8164 27.7735 31.9015 27.7735C31.9867 27.7735 32.071 27.791 32.1492 27.8248C32.2274 27.8586 32.2979 27.908 32.3562 27.9701C32.4146 28.0321 32.4596 28.1055 32.4885 28.1856C32.5175 28.2657 32.5297 28.3509 32.5244 28.4359V30.0575Z" fill="white"/>
<path d="M36.7684 35.3007H40.2623V29.19C40.2623 28.6258 40.0381 28.0847 39.6391 27.6857C39.2402 27.2867 38.699 27.0625 38.1348 27.0625H31.9035C31.7952 27.0641 31.6874 27.0775 31.582 27.1027L32.5276 27.7882V35.6718C32.5276 36.2361 32.7517 36.7773 33.1507 37.1763C33.5497 37.5753 34.0909 37.7993 34.6551 37.7993H39.1465C39.5287 37.8001 39.9036 37.6945 40.2292 37.4944C40.2434 37.4731 40.2552 37.4448 40.2694 37.4235V36.478C40.1429 36.6583 39.9748 36.8056 39.7793 36.9072C39.5839 37.0089 39.3668 37.0618 39.1465 37.0618H36.2649C36.5898 36.6779 36.7682 36.1914 36.7684 35.6884V35.3007ZM36.3949 33.8044C36.2953 33.8044 36.1996 33.7647 36.1292 33.6942C36.0587 33.6238 36.0191 33.5282 36.0191 33.4285V33.3434C35.8343 33.2801 35.6681 33.1722 35.5353 33.0291C35.4024 32.8859 35.3071 32.7121 35.2579 32.5231C35.2334 32.4269 35.2482 32.3249 35.299 32.2395C35.3498 32.1542 35.4323 32.0925 35.5286 32.068C35.6248 32.0436 35.7268 32.0584 35.8121 32.1091C35.8975 32.1599 35.9592 32.2425 35.9836 32.3387C36.0125 32.4473 36.0831 32.54 36.1801 32.5967C36.2771 32.6534 36.3926 32.6695 36.5013 32.6413C36.6026 32.6169 36.6914 32.556 36.7506 32.4702C36.8098 32.3844 36.8352 32.2798 36.822 32.1764C36.8088 32.073 36.758 31.9782 36.6792 31.91C36.6003 31.8418 36.4991 31.805 36.3949 31.8068C36.1173 31.8072 35.8486 31.7089 35.6368 31.5294C35.425 31.35 35.284 31.1011 35.2388 30.8272C35.1936 30.5533 35.2473 30.2722 35.3902 30.0342C35.5332 29.7963 35.756 29.6169 36.0191 29.5281V29.4264C36.0266 29.3322 36.0693 29.2442 36.1387 29.1801C36.2082 29.1159 36.2992 29.0804 36.3938 29.0804C36.4883 29.0804 36.5793 29.1159 36.6488 29.1801C36.7182 29.2442 36.7609 29.3322 36.7684 29.4264V29.5139C36.9529 29.5769 37.119 29.6845 37.2518 29.8272C37.3846 29.9699 37.48 30.1433 37.5296 30.3318C37.5465 30.3808 37.553 30.4328 37.5488 30.4845C37.5446 30.5362 37.5297 30.5865 37.5051 30.6321C37.4805 30.6778 37.4468 30.7179 37.4059 30.7499C37.3651 30.7818 37.3181 30.805 37.2678 30.818C37.2176 30.8309 37.1652 30.8333 37.114 30.825C37.0628 30.8167 37.0139 30.7978 36.9703 30.7697C36.9268 30.7416 36.8895 30.7048 36.8608 30.6616C36.8322 30.6183 36.8128 30.5697 36.8039 30.5186C36.784 30.442 36.743 30.3724 36.6856 30.3179C36.6282 30.2635 36.5567 30.2262 36.4791 30.2104C36.4016 30.1945 36.3212 30.2007 36.247 30.2283C36.1728 30.2558 36.1078 30.3037 36.0595 30.3663C36.0111 30.4289 35.9812 30.5039 35.9733 30.5826C35.9654 30.6614 35.9797 30.7407 36.0147 30.8117C36.0496 30.8827 36.1038 30.9425 36.171 30.9843C36.2382 31.0261 36.3158 31.0481 36.3949 31.048C36.6723 31.0482 36.9407 31.147 37.152 31.3266C37.3634 31.5063 37.504 31.7551 37.5489 32.0289C37.5938 32.3026 37.5399 32.5834 37.397 32.8212C37.254 33.0589 37.0313 33.2381 36.7684 33.3268V33.4191C36.7697 33.469 36.761 33.5187 36.7428 33.5652C36.7246 33.6117 36.6974 33.6542 36.6626 33.6901C36.6278 33.726 36.5862 33.7546 36.5403 33.7742C36.4943 33.7939 36.4449 33.8041 36.3949 33.8044Z" fill="white"/>
<path d="M40.8858 34.5508H36.3943C36.2949 34.5515 36.1996 34.5912 36.1293 34.6615C36.0589 34.7319 36.0191 34.8272 36.0185 34.9267V35.6737C36.0191 35.8538 35.9842 36.0323 35.9157 36.1989C35.8472 36.3655 35.7464 36.5169 35.6193 36.6445C35.4921 36.7721 35.341 36.8734 35.1747 36.9425C35.0083 37.0115 34.8299 37.0471 34.6498 37.0471C34.5981 37.043 34.5461 37.0496 34.4971 37.0665C34.448 37.0835 34.4031 37.1105 34.365 37.1457C34.3269 37.1809 34.2965 37.2236 34.2757 37.2711C34.2549 37.3186 34.2441 37.3699 34.2441 37.4218C34.2441 37.4737 34.2549 37.5249 34.2757 37.5724C34.2965 37.62 34.3269 37.6627 34.365 37.6979C34.4031 37.7331 34.448 37.76 34.4971 37.777C34.5461 37.7939 34.5981 37.8006 34.6498 37.7965H39.1412C39.7055 37.7965 40.2466 37.5723 40.6456 37.1733C41.0446 36.7743 41.2687 36.2332 41.2687 35.669V34.9219C41.2681 34.8724 41.2577 34.8234 41.2381 34.7779C41.2185 34.7324 41.1901 34.6912 41.1545 34.6567C41.1189 34.6222 41.0768 34.5951 41.0307 34.5769C40.9846 34.5588 40.9353 34.5499 40.8858 34.5508ZM40.5099 35.6737C40.5102 35.854 40.475 36.0325 40.4062 36.1991C40.3375 36.3657 40.2365 36.5171 40.1092 36.6447C39.9818 36.7722 39.8306 36.8734 39.6641 36.9425C39.4976 37.0115 39.3191 37.0471 39.1388 37.0471H36.2643C36.5892 36.6632 36.7676 36.1766 36.7679 35.6737V35.3002H40.5099V35.6737Z" fill="white"/>
<path d="M48.393 34.8693L46.7918 32.9511C46.6761 32.8125 46.5135 32.7202 46.3342 32.6913C46.1548 32.6624 45.971 32.6989 45.8168 32.794L43.7009 34.0931C43.6118 34.142 43.5337 34.2082 43.4714 34.2878C43.409 34.3673 43.3636 34.4586 43.338 34.556C43.3124 34.6535 43.3071 34.755 43.3224 34.8545C43.3377 34.9541 43.3733 35.0495 43.427 35.1351C43.4807 35.2206 43.5514 35.2945 43.6349 35.3522C43.7183 35.4098 43.8128 35.4501 43.9125 35.4707C44.0122 35.4912 44.115 35.4915 44.2149 35.4716C44.3147 35.4516 44.4093 35.4119 44.4931 35.3547L45.1669 34.9419C44.593 37.0253 43.3766 38.8803 41.6869 40.2486C40.5139 41.2215 39.1114 41.8859 37.6095 42.1802C36.1075 42.4746 34.5547 42.3892 33.095 41.9322C31.3137 41.3865 29.72 40.3639 28.4906 38.9777C27.3443 37.6756 26.5553 36.1042 26.1991 34.4143C26.1801 34.3173 26.1417 34.2252 26.0863 34.143C26.0308 34.0609 25.9593 33.9905 25.876 33.936C25.7927 33.8815 25.6992 33.844 25.6011 33.8256C25.5029 33.8072 25.4021 33.8083 25.3044 33.8288C25.2067 33.8494 25.1141 33.8891 25.032 33.9454C24.95 34.0017 24.8801 34.0736 24.8265 34.1569C24.7729 34.2402 24.7366 34.3333 24.7197 34.4307C24.7029 34.528 24.7059 34.6277 24.7284 34.7239C25.1466 36.7291 26.1012 38.5867 27.4926 40.1032C28.884 41.6197 30.6614 42.7397 32.6395 43.3463C33.673 43.6744 34.7518 43.8413 35.8372 43.8411C38.3258 43.8345 40.734 42.9685 42.6452 41.3929C44.6327 39.7884 46.0464 37.5952 46.6779 35.1365L47.2448 35.8166C47.3031 35.9028 47.379 35.9761 47.4677 36.0316C47.5563 36.0871 47.6557 36.1236 47.7595 36.1389C47.8633 36.1541 47.9692 36.1477 48.0703 36.1201C48.1714 36.0925 48.2656 36.0442 48.3468 35.9785C48.4279 35.9127 48.4942 35.831 48.5415 35.7384C48.5887 35.6457 48.6158 35.5444 48.6211 35.4408C48.6263 35.3372 48.6096 35.2336 48.5719 35.1368C48.5343 35.04 48.4765 34.952 48.4024 34.8786L48.393 34.8693Z" fill="white"/>
<path d="M25.4983 31.884C25.6385 31.8834 25.7758 31.8446 25.8949 31.772L28.0112 30.4793C28.1702 30.3713 28.281 30.2074 28.3204 30.0214C28.3598 29.8355 28.325 29.6417 28.223 29.4803C28.121 29.3189 27.9598 29.2023 27.7727 29.1545C27.5855 29.1067 27.3869 29.1315 27.2179 29.2237L26.5243 29.6461C27.0125 27.7774 28.0334 26.0845 29.4671 24.7663C30.7542 23.5619 32.3598 22.7372 34.101 22.3861C35.8275 22.0399 37.6188 22.1882 39.2621 22.8132C40.8903 23.4202 42.3294 24.4336 43.4375 25.7536C44.4802 27.0058 45.2019 28.4855 45.5419 30.0685C45.5865 30.2574 45.7047 30.4215 45.8712 30.5255C46.0377 30.6296 46.2391 30.6653 46.4321 30.6249C46.6251 30.5845 46.7943 30.4714 46.9032 30.3097C47.0121 30.148 47.0521 29.9508 47.0145 29.7605C46.6234 27.9454 45.7951 26.2488 44.599 24.8131C43.3268 23.2971 41.675 22.1325 39.806 21.4339C37.8943 20.7068 35.8103 20.5343 33.8017 20.9369C31.7809 21.3415 29.9166 22.2966 28.4221 23.693C27.3578 24.6833 26.4876 25.8571 25.8546 27.1561C25.4819 27.8726 25.2026 28.6323 25.0233 29.4174L24.4722 28.764C24.4121 28.6829 24.3357 28.6148 24.2478 28.5637C24.1598 28.5126 24.0622 28.4797 23.9609 28.4669C23.8596 28.4542 23.7567 28.4619 23.6585 28.4896C23.5604 28.5173 23.469 28.5644 23.39 28.6281C23.311 28.6917 23.246 28.7705 23.1991 28.8596C23.1522 28.9487 23.1243 29.0464 23.1171 29.1465C23.1099 29.2466 23.1236 29.3472 23.1573 29.4419C23.191 29.5366 23.2441 29.6236 23.3132 29.6975L24.9164 31.6063C24.9864 31.6921 25.0749 31.7615 25.1755 31.8095C25.2762 31.8575 25.3864 31.883 25.4983 31.884Z" fill="white"/>
</g>
<defs>
<filter id="filter0_bd_4394_9080" x="14.1289" y="10.334" width="43.4785" height="47.0879" filterUnits="userSpaceOnUse" color-interpolation-filters="sRGB">
<feFlood flood-opacity="0" result="BackgroundImageFix"/>
<feGaussianBlur in="BackgroundImage" stdDeviation="2.5"/>
<feComposite in2="SourceAlpha" operator="in" result="effect1_backgroundBlur_4394_9080"/>
<feColorMatrix in="SourceAlpha" type="matrix" values="0 0 0 0 0 0 0 0 0 0 0 0 0 0 0 0 0 0 127 0" result="hardAlpha"/>
<feOffset dy="4"/>
<feGaussianBlur stdDeviation="2"/>
<feComposite in2="hardAlpha" operator="out"/>
<feColorMatrix type="matrix" values="0 0 0 0 0.7125 0 0 0 0 0.7125 0 0 0 0 0.7125 0 0 0 0.25 0"/>
<feBlend mode="normal" in2="effect1_backgroundBlur_4394_9080" result="effect2_dropShadow_4394_9080"/>
<feBlend mode="normal" in="SourceGraphic" in2="effect2_dropShadow_4394_9080" result="shape"/>
</filter>
<linearGradient id="paint0_linear_4394_9080" x1="51.4346" y1="48.6846" x2="32.1416" y2="9.67526" gradientUnits="userSpaceOnUse">
<stop stop-color="#1E1360" stop-opacity="0"/>
<stop offset="1" stop-color="#F5F5F5" stop-opacity="0.63"/>
</linearGradient>
<clipPath id="clip0_4394_9080">
<rect width="55" height="55" fill="white"/>
</clipPath>
</defs>
</svg>
