<svg width="53" height="51" viewBox="0 0 53 51" fill="none" xmlns="http://www.w3.org/2000/svg">
<rect x="0.390625" y="0.783203" width="39.8551" height="40.5797" rx="19.9275" fill="#FF1E7A"/>
<g filter="url(#filter0_bd_4394_9132)">
<rect x="17.1289" y="11.334" width="33.4783" height="34.087" rx="6" fill="url(#paint0_linear_4394_9132)" shape-rendering="crispEdges"/>
</g>
<path fill-rule="evenodd" clip-rule="evenodd" d="M33.3388 17.8246C33.3388 17.857 33.2136 17.8835 33.0606 17.8835C32.9076 17.8835 32.7824 17.91 32.7824 17.9425C32.7824 17.9749 32.6823 18.0014 32.5599 18.0014C32.4375 18.0014 32.3373 18.0279 32.3373 18.0604C32.3373 18.0928 32.2622 18.1193 32.1704 18.1193C32.0786 18.1193 32.0035 18.1458 32.0035 18.1783C32.0035 18.2107 31.9284 18.2372 31.8366 18.2372C31.7448 18.2372 31.6697 18.2637 31.6697 18.2962C31.6697 18.3286 31.6196 18.3551 31.5584 18.3551C31.4972 18.3551 31.4471 18.3816 31.4471 18.414C31.4471 18.4465 31.397 18.473 31.3358 18.473C31.2746 18.473 31.2246 18.4995 31.2246 18.5319C31.2246 18.5644 31.1745 18.5909 31.1133 18.5909C31.0521 18.5909 31.002 18.6174 31.002 18.6498C31.002 18.6823 30.952 18.7088 30.8908 18.7088C30.8296 18.7088 30.7795 18.7353 30.7795 18.7677C30.7795 18.8002 30.7349 18.8267 30.6805 18.8267C30.626 18.8267 30.5454 18.8797 30.5013 18.9446C30.4572 19.0094 30.3866 19.0625 30.3444 19.0625C30.3023 19.0625 30.1976 19.142 30.1118 19.2393C30.0261 19.3366 29.9281 19.4162 29.8941 19.4162C29.8134 19.4162 28.7766 20.5146 28.7766 20.6002C28.7766 20.6362 28.7015 20.7401 28.6097 20.8309C28.5179 20.9217 28.4428 21.0327 28.4428 21.0773C28.4428 21.122 28.3927 21.1968 28.3315 21.2435C28.2703 21.2903 28.2202 21.3757 28.2202 21.4334C28.2202 21.491 28.1952 21.5383 28.1646 21.5383C28.134 21.5383 28.1089 21.5913 28.1089 21.6562C28.1089 21.721 28.0839 21.774 28.0533 21.774C28.0227 21.774 27.9977 21.8271 27.9977 21.8919C27.9977 21.9568 27.9726 22.0098 27.942 22.0098C27.9114 22.0098 27.8864 22.0629 27.8864 22.1277C27.8864 22.1926 27.8614 22.2456 27.8308 22.2456C27.8002 22.2456 27.7751 22.2987 27.7751 22.3635C27.7751 22.4284 27.7501 22.4814 27.7195 22.4814C27.6889 22.4814 27.6638 22.561 27.6638 22.6583C27.6638 22.7555 27.6388 22.8351 27.6082 22.8351C27.5776 22.8351 27.5526 22.9147 27.5526 23.0119C27.5526 23.1092 27.5275 23.1888 27.4969 23.1888C27.4663 23.1888 27.4413 23.2684 27.4413 23.3656C27.4413 23.4629 27.4163 23.5425 27.3857 23.5425C27.3547 23.5425 27.33 23.6997 27.33 23.8962C27.33 24.0926 27.3053 24.2498 27.2744 24.2498C27.2396 24.2498 27.2188 24.6035 27.2188 25.193C27.2188 25.7825 27.2396 26.1362 27.2744 26.1362C27.305 26.1362 27.33 26.2688 27.33 26.4309C27.33 26.593 27.3551 26.7256 27.3857 26.7256C27.4163 26.7256 27.4413 26.8052 27.4413 26.9025C27.4413 26.9997 27.4663 27.0793 27.4969 27.0793C27.5275 27.0793 27.5526 27.1589 27.5526 27.2562C27.5526 27.3534 27.5776 27.433 27.6082 27.433C27.6388 27.433 27.6638 27.5126 27.6638 27.6098C27.6638 27.7071 27.6889 27.7867 27.7195 27.7867C27.7501 27.7867 27.7751 27.8663 27.7751 27.9635C27.7751 28.0608 27.8002 28.1404 27.8308 28.1404C27.8614 28.1404 27.8864 28.1934 27.8864 28.2583C27.8864 28.3231 27.9114 28.3762 27.942 28.3762C27.9726 28.3762 27.9977 28.4557 27.9977 28.553C27.9977 28.6503 28.0227 28.7298 28.0533 28.7298C28.0839 28.7298 28.1089 28.7829 28.1089 28.8477C28.1089 28.9126 28.134 28.9656 28.1646 28.9656C28.1952 28.9656 28.2202 29.0452 28.2202 29.1425C28.2202 29.2397 28.2452 29.3193 28.2758 29.3193C28.3064 29.3193 28.3315 29.3724 28.3315 29.4372C28.3315 29.502 28.3565 29.5551 28.3871 29.5551C28.4177 29.5551 28.4428 29.6082 28.4428 29.673C28.4428 29.7378 28.4678 29.7909 28.4984 29.7909C28.529 29.7909 28.554 29.8705 28.554 29.9677C28.554 30.065 28.5791 30.1446 28.6097 30.1446C28.6403 30.1446 28.6653 30.1976 28.6653 30.2625C28.6653 30.3273 28.6903 30.3804 28.7209 30.3804C28.7515 30.3804 28.7766 30.4334 28.7766 30.4983C28.7766 30.5631 28.8016 30.6162 28.8322 30.6162C28.8628 30.6162 28.8878 30.6692 28.8878 30.734C28.8878 30.7989 28.9129 30.8519 28.9435 30.8519C28.9741 30.8519 28.9991 30.905 28.9991 30.9698C28.9991 31.0347 29.0242 31.0877 29.0548 31.0877C29.0854 31.0877 29.1104 31.1408 29.1104 31.2056C29.1104 31.2705 29.1354 31.3235 29.166 31.3235C29.1966 31.3235 29.2217 31.3766 29.2217 31.4414C29.2217 31.5063 29.2467 31.5593 29.2773 31.5593C29.3079 31.5593 29.3329 31.6124 29.3329 31.6772C29.3329 31.742 29.358 31.7951 29.3886 31.7951C29.4192 31.7951 29.4442 31.8482 29.4442 31.913C29.4442 31.9778 29.4692 32.0309 29.4998 32.0309C29.5304 32.0309 29.5555 32.0839 29.5555 32.1488C29.5555 32.2136 29.5805 32.2667 29.6111 32.2667C29.6417 32.2667 29.6668 32.3197 29.6668 32.3846C29.6668 32.4494 29.6918 32.5025 29.7224 32.5025C29.753 32.5025 29.778 32.5555 29.778 32.6204C29.778 32.6852 29.8031 32.7383 29.8337 32.7383C29.8643 32.7383 29.8893 32.7913 29.8893 32.8562C29.8893 32.921 29.9143 32.974 29.9449 32.974C29.9755 32.974 30.0006 33.0213 30.0006 33.0789C30.0006 33.1366 30.0506 33.222 30.1118 33.2688C30.173 33.3155 30.2231 33.4009 30.2231 33.4587C30.2231 33.5163 30.2482 33.5635 30.2788 33.5635C30.3094 33.5635 30.3344 33.6166 30.3344 33.6814C30.3344 33.7463 30.3594 33.7993 30.39 33.7993C30.4206 33.7993 30.4457 33.8465 30.4457 33.9042C30.4457 33.9619 30.4957 34.0473 30.5569 34.094C30.6181 34.1408 30.6682 34.2262 30.6682 34.2839C30.6682 34.3416 30.6932 34.3888 30.7238 34.3888C30.7544 34.3888 30.7795 34.4418 30.7795 34.5067C30.7795 34.5715 30.8045 34.6246 30.8351 34.6246C30.8657 34.6246 30.8908 34.6776 30.8908 34.7425C30.8908 34.8073 30.9158 34.8604 30.9464 34.8604C30.977 34.8604 31.002 34.9076 31.002 34.9652C31.002 35.0229 31.0521 35.1084 31.1133 35.1551C31.1745 35.2018 31.2246 35.2873 31.2246 35.345C31.2246 35.4026 31.2496 35.4498 31.2802 35.4498C31.3108 35.4498 31.3358 35.5029 31.3358 35.5677C31.3358 35.6326 31.3609 35.6856 31.3915 35.6856C31.4221 35.6856 31.4471 35.7328 31.4471 35.7905C31.4471 35.8482 31.4972 35.9336 31.5584 35.9804C31.6196 36.0271 31.6697 36.1125 31.6697 36.1702C31.6697 36.2279 31.6947 36.2751 31.7253 36.2751C31.7559 36.2751 31.7809 36.3281 31.7809 36.393C31.7809 36.4578 31.806 36.5109 31.8366 36.5109C31.8672 36.5109 31.8922 36.5581 31.8922 36.6158C31.8922 36.6735 31.9423 36.7589 32.0035 36.8056C32.0647 36.8524 32.1148 36.9319 32.1148 36.9825C32.1148 37.033 32.1648 37.1126 32.226 37.1593C32.2872 37.2061 32.3373 37.2915 32.3373 37.3492C32.3373 37.4068 32.3623 37.454 32.3929 37.454C32.4235 37.454 32.4486 37.5013 32.4486 37.5589C32.4486 37.6166 32.4987 37.702 32.5599 37.7488C32.6211 37.7955 32.6711 37.8751 32.6711 37.9256C32.6711 37.9761 32.7212 38.0557 32.7824 38.1025C32.8436 38.1492 32.8937 38.2232 32.8937 38.267C32.8937 38.3697 33.0309 38.5151 33.1278 38.5151C33.1691 38.5151 33.239 38.5681 33.2831 38.633C33.3272 38.6978 33.4079 38.7509 33.4623 38.7509C33.5167 38.7509 33.5613 38.7774 33.5613 38.8098C33.5613 38.8423 33.6364 38.8688 33.7282 38.8688C33.82 38.8688 33.8951 38.8953 33.8951 38.9277C33.8951 38.9621 34.0806 38.9867 34.3402 38.9867C34.5999 38.9867 34.7853 38.9621 34.7853 38.9277C34.7853 38.8953 34.8604 38.8688 34.9522 38.8688C35.044 38.8688 35.1191 38.8423 35.1191 38.8098C35.1191 38.7774 35.1692 38.7509 35.2304 38.7509C35.2916 38.7509 35.3417 38.7244 35.3417 38.6919C35.3417 38.6595 35.3801 38.633 35.427 38.633C35.5311 38.633 35.898 38.2544 35.898 38.1469C35.898 38.1044 35.9481 38.0313 36.0093 37.9846C36.0705 37.9378 36.1206 37.8524 36.1206 37.7947C36.1206 37.7371 36.1456 37.6898 36.1762 37.6898C36.2068 37.6898 36.2319 37.6426 36.2319 37.585C36.2319 37.5273 36.2819 37.4418 36.3431 37.3951C36.4043 37.3484 36.4544 37.2629 36.4544 37.2052C36.4544 37.1476 36.4794 37.1004 36.51 37.1004C36.5406 37.1004 36.5657 37.0531 36.5657 36.9955C36.5657 36.9378 36.6158 36.8524 36.677 36.8056C36.7382 36.7589 36.7882 36.6735 36.7882 36.6158C36.7882 36.5581 36.8133 36.5109 36.8439 36.5109C36.8745 36.5109 36.8995 36.4637 36.8995 36.406C36.8995 36.3483 36.9496 36.2629 37.0108 36.2162C37.072 36.1694 37.122 36.084 37.122 36.0263C37.122 35.9686 37.1471 35.9214 37.1777 35.9214C37.2083 35.9214 37.2333 35.8742 37.2333 35.8165C37.2333 35.7588 37.2834 35.6734 37.3446 35.6267C37.4058 35.5799 37.4559 35.4945 37.4559 35.4368C37.4559 35.3792 37.4809 35.3319 37.5115 35.3319C37.5421 35.3319 37.5671 35.2789 37.5671 35.214C37.5671 35.1492 37.5922 35.0962 37.6228 35.0962C37.6534 35.0962 37.6784 35.0489 37.6784 34.9913C37.6784 34.9336 37.7285 34.8482 37.7897 34.8014C37.8509 34.7547 37.901 34.6693 37.901 34.6115C37.901 34.5539 37.926 34.5067 37.9566 34.5067C37.9872 34.5067 38.0122 34.4536 38.0122 34.3888C38.0122 34.3239 38.0373 34.2709 38.0679 34.2709C38.0985 34.2709 38.1235 34.2178 38.1235 34.153C38.1235 34.0882 38.1485 34.0351 38.1791 34.0351C38.2097 34.0351 38.2348 33.982 38.2348 33.9172C38.2348 33.8524 38.2598 33.7993 38.2904 33.7993C38.321 33.7993 38.346 33.7521 38.346 33.6944C38.346 33.6367 38.3961 33.5513 38.4573 33.5046C38.5185 33.4578 38.5686 33.3724 38.5686 33.3147C38.5686 33.2571 38.5936 33.2098 38.6242 33.2098C38.6548 33.2098 38.6799 33.1568 38.6799 33.0919C38.6799 33.0271 38.7049 32.974 38.7355 32.974C38.7661 32.974 38.7911 32.921 38.7911 32.8562C38.7911 32.7913 38.8162 32.7383 38.8468 32.7383C38.8774 32.7383 38.9024 32.6852 38.9024 32.6204C38.9024 32.5555 38.9274 32.5025 38.958 32.5025C38.9886 32.5025 39.0137 32.4552 39.0137 32.3976C39.0137 32.3399 39.0638 32.2545 39.125 32.2077C39.1862 32.161 39.2362 32.0756 39.2362 32.0179C39.2362 31.9602 39.2613 31.913 39.2919 31.913C39.3225 31.913 39.3475 31.8599 39.3475 31.7951C39.3475 31.7303 39.3725 31.6772 39.4031 31.6772C39.4337 31.6772 39.4588 31.6242 39.4588 31.5593C39.4588 31.4945 39.4838 31.4414 39.5144 31.4414C39.545 31.4414 39.57 31.3618 39.57 31.2646C39.57 31.1673 39.5951 31.0877 39.6257 31.0877C39.6563 31.0877 39.6813 31.0347 39.6813 30.9698C39.6813 30.905 39.7064 30.8519 39.737 30.8519C39.7676 30.8519 39.7926 30.7989 39.7926 30.734C39.7926 30.6692 39.8176 30.6162 39.8482 30.6162C39.8788 30.6162 39.9039 30.5631 39.9039 30.4983C39.9039 30.4334 39.9289 30.3804 39.9595 30.3804C39.9901 30.3804 40.0151 30.3273 40.0151 30.2625C40.0151 30.1976 40.0402 30.1446 40.0708 30.1446C40.1014 30.1446 40.1264 30.0915 40.1264 30.0267C40.1264 29.9618 40.1515 29.9088 40.182 29.9088C40.2127 29.9088 40.2377 29.8292 40.2377 29.7319C40.2377 29.6347 40.2627 29.5551 40.2933 29.5551C40.3239 29.5551 40.349 29.502 40.349 29.4372C40.349 29.3724 40.374 29.3193 40.4046 29.3193C40.4352 29.3193 40.4602 29.2663 40.4602 29.2014C40.4602 29.1366 40.4853 29.0835 40.5159 29.0835C40.5465 29.0835 40.5715 29.0305 40.5715 28.9656C40.5715 28.9008 40.5965 28.8477 40.6271 28.8477C40.6577 28.8477 40.6828 28.7682 40.6828 28.6709C40.6828 28.5736 40.7078 28.494 40.7384 28.494C40.769 28.494 40.7941 28.4145 40.7941 28.3172C40.7941 28.2199 40.8191 28.1404 40.8497 28.1404C40.8803 28.1404 40.9053 28.0873 40.9053 28.0225C40.9053 27.9576 40.9304 27.9046 40.961 27.9046C40.9916 27.9046 41.0166 27.825 41.0166 27.7277C41.0166 27.6305 41.0416 27.5509 41.0722 27.5509C41.1028 27.5509 41.1279 27.4713 41.1279 27.374C41.1279 27.2768 41.1529 27.1972 41.1835 27.1972C41.2141 27.1972 41.2391 27.0911 41.2391 26.9614C41.2391 26.8317 41.2642 26.7256 41.2948 26.7256C41.3254 26.7256 41.3504 26.6195 41.3504 26.4898C41.3504 26.3602 41.3755 26.254 41.4061 26.254C41.4412 26.254 41.4617 25.8414 41.4617 25.134C41.4617 24.4267 41.4412 24.014 41.4061 24.014C41.3755 24.014 41.3504 23.9079 41.3504 23.7783C41.3504 23.6486 41.3254 23.5425 41.2948 23.5425C41.2642 23.5425 41.2391 23.4364 41.2391 23.3067C41.2391 23.177 41.2141 23.0709 41.1835 23.0709C41.1529 23.0709 41.1279 22.9913 41.1279 22.894C41.1279 22.7968 41.1028 22.7172 41.0722 22.7172C41.0416 22.7172 41.0166 22.6642 41.0166 22.5993C41.0166 22.5345 40.9916 22.4814 40.961 22.4814C40.9304 22.4814 40.9053 22.4284 40.9053 22.3635C40.9053 22.2987 40.8803 22.2456 40.8497 22.2456C40.8191 22.2456 40.7941 22.1719 40.7941 22.0818C40.7941 21.9856 40.7481 21.8829 40.6828 21.833C40.6216 21.7862 40.5715 21.7008 40.5715 21.6431C40.5715 21.5855 40.5465 21.5383 40.5159 21.5383C40.4853 21.5383 40.4602 21.491 40.4602 21.4334C40.4602 21.3757 40.4102 21.2903 40.349 21.2435C40.2878 21.1968 40.2377 21.1172 40.2377 21.0667C40.2377 21.0162 40.1876 20.9366 40.1264 20.8898C40.0652 20.8431 40.0151 20.7706 40.0151 20.7288C40.0151 20.6296 38.7586 19.2983 38.6649 19.2983C38.6255 19.2983 38.5571 19.2452 38.513 19.1804C38.4688 19.1155 38.3937 19.0625 38.346 19.0625C38.2984 19.0625 38.2233 19.0094 38.1791 18.9446C38.135 18.8797 38.0544 18.8267 37.9999 18.8267C37.9455 18.8267 37.901 18.8002 37.901 18.7677C37.901 18.7353 37.8509 18.7088 37.7897 18.7088C37.7285 18.7088 37.6784 18.6823 37.6784 18.6498C37.6784 18.6174 37.6283 18.5909 37.5671 18.5909C37.5059 18.5909 37.4559 18.5644 37.4559 18.5319C37.4559 18.4995 37.4058 18.473 37.3446 18.473C37.2834 18.473 37.2333 18.4465 37.2333 18.414C37.2333 18.3816 37.1832 18.3551 37.122 18.3551C37.0608 18.3551 37.0108 18.3286 37.0108 18.2962C37.0108 18.2637 36.9357 18.2372 36.8439 18.2372C36.7521 18.2372 36.677 18.2107 36.677 18.1783C36.677 18.1458 36.6018 18.1193 36.51 18.1193C36.4182 18.1193 36.3431 18.0928 36.3431 18.0604C36.3431 18.0279 36.268 18.0014 36.1762 18.0014C36.0844 18.0014 36.0093 17.9749 36.0093 17.9425C36.0093 17.9097 35.8609 17.8835 35.6755 17.8835C35.4901 17.8835 35.3417 17.8573 35.3417 17.8246C35.3417 17.7874 34.9707 17.7656 34.3402 17.7656C33.7097 17.7656 33.3388 17.7874 33.3388 17.8246ZM34.9284 21.6225C34.9878 21.6854 35.0079 21.8728 35.0079 22.3635C35.0079 23.0791 35.048 23.1888 35.3099 23.1888C35.3886 23.1888 35.4529 23.2153 35.4529 23.2477C35.4529 23.2802 35.503 23.3067 35.5642 23.3067C35.6254 23.3067 35.6755 23.3332 35.6755 23.3656C35.6755 23.398 35.7256 23.4246 35.7868 23.4246C35.848 23.4246 35.898 23.4511 35.898 23.4835C35.898 23.5159 35.9362 23.5425 35.9827 23.5425C36.1124 23.5425 36.677 24.1693 36.677 24.3133C36.677 24.3821 36.6018 24.5127 36.51 24.6035C36.4182 24.6944 36.3431 24.7988 36.3431 24.8355C36.3431 24.8721 36.2563 24.9942 36.1502 25.1065C35.8982 25.3737 35.672 25.3826 35.4529 25.134C35.3672 25.0368 35.257 24.9572 35.2081 24.9572C35.1591 24.9572 35.1191 24.9307 35.1191 24.8983C35.1191 24.8658 35.0691 24.8393 35.0079 24.8393C34.9467 24.8393 34.8966 24.8128 34.8966 24.7804C34.8966 24.7467 34.7297 24.7214 34.5071 24.7214C34.2846 24.7214 34.1177 24.7467 34.1177 24.7804C34.1177 24.8128 34.0676 24.8393 34.0064 24.8393C33.9322 24.8393 33.8951 24.8786 33.8951 24.9572C33.8951 25.022 33.8701 25.0751 33.8395 25.0751C33.8089 25.0751 33.7839 25.1282 33.7839 25.193C33.7839 25.2578 33.8089 25.3109 33.8395 25.3109C33.8701 25.3109 33.8951 25.3519 33.8951 25.402C33.8951 25.5199 34.1429 25.7825 34.2543 25.7825C34.3016 25.7825 34.3402 25.809 34.3402 25.8414C34.3402 25.8738 34.4153 25.9004 34.5071 25.9004C34.5989 25.9004 34.674 25.9269 34.674 25.9593C34.674 25.9917 34.7241 26.0183 34.7853 26.0183C34.8465 26.0183 34.8966 26.0448 34.8966 26.0772C34.8966 26.1096 34.9717 26.1362 35.0635 26.1362C35.1553 26.1362 35.2304 26.1627 35.2304 26.1951C35.2304 26.2275 35.3055 26.254 35.3973 26.254C35.4891 26.254 35.5642 26.2806 35.5642 26.313C35.5642 26.3454 35.6088 26.3719 35.6632 26.3719C35.7177 26.3719 35.7983 26.425 35.8424 26.4898C35.8865 26.5547 35.9552 26.6077 35.995 26.6077C36.0963 26.6077 36.677 27.234 36.677 27.3433C36.677 27.3926 36.702 27.433 36.7326 27.433C36.7632 27.433 36.7882 27.486 36.7882 27.5509C36.7882 27.6157 36.8133 27.6688 36.8439 27.6688C36.8779 27.6688 36.8995 27.9439 36.8995 28.3762C36.8995 28.8084 36.8779 29.0835 36.8439 29.0835C36.8133 29.0835 36.7882 29.1366 36.7882 29.2014C36.7882 29.2663 36.7632 29.3193 36.7326 29.3193C36.702 29.3193 36.677 29.3597 36.677 29.409C36.677 29.5183 36.0963 30.1446 35.995 30.1446C35.9552 30.1446 35.8865 30.1976 35.8424 30.2625C35.7953 30.3317 35.6984 30.3804 35.6076 30.3804C35.5225 30.3804 35.4529 30.4069 35.4529 30.4393C35.4529 30.4717 35.3886 30.4983 35.3099 30.4983C35.2312 30.4983 35.127 30.5405 35.0783 30.592C35.0029 30.6719 35.0015 30.6944 35.0684 30.7439C35.1286 30.7885 35.1308 30.8089 35.0774 30.8318C35.0291 30.8526 35.0079 31.0221 35.0079 31.3874V31.913H34.3959C33.821 31.913 33.7839 31.9059 33.7839 31.7951C33.7839 31.7303 33.7588 31.6772 33.7282 31.6772C33.6948 31.6772 33.6726 31.4414 33.6726 31.0877V30.4983H33.5057C33.4139 30.4983 33.3388 30.4717 33.3388 30.4393C33.3388 30.4069 33.2637 30.3804 33.1719 30.3804C33.0801 30.3804 33.0049 30.3538 33.0049 30.3214C33.0049 30.289 32.9549 30.2625 32.8937 30.2625C32.8325 30.2625 32.7824 30.2359 32.7824 30.2035C32.7824 30.1711 32.7378 30.1446 32.6834 30.1446C32.629 30.1446 32.5483 30.0915 32.5042 30.0267C32.4601 29.9618 32.3913 29.9088 32.3514 29.9088C32.3114 29.9088 32.1667 29.7901 32.0299 29.6451C31.7448 29.3431 31.692 29.0596 31.8922 28.9067C31.9534 28.8599 32.0035 28.7851 32.0035 28.7404C32.0035 28.6958 32.0786 28.5849 32.1704 28.494C32.2622 28.4032 32.3373 28.2864 32.3373 28.2346C32.3373 28.0879 32.7349 28.1067 32.838 28.2583C32.8822 28.3231 32.9573 28.3762 33.0049 28.3762C33.0526 28.3762 33.1277 28.4292 33.1719 28.494C33.216 28.5589 33.2966 28.6119 33.3511 28.6119C33.4055 28.6119 33.45 28.6385 33.45 28.6709C33.45 28.7033 33.5251 28.7298 33.6169 28.7298C33.7087 28.7298 33.7839 28.7564 33.7839 28.7888C33.7839 28.8231 33.9693 28.8477 34.2289 28.8477C34.4886 28.8477 34.674 28.8231 34.674 28.7888C34.674 28.7564 34.7241 28.7298 34.7853 28.7298C34.8595 28.7298 34.8966 28.6905 34.8966 28.6119C34.8966 28.5471 34.9216 28.494 34.9522 28.494C34.9828 28.494 35.0079 28.4145 35.0079 28.3172C35.0079 28.2199 34.9828 28.1404 34.9522 28.1404C34.9216 28.1404 34.8966 28.0987 34.8966 28.0478C34.8966 27.9286 34.7626 27.7867 34.6502 27.7867C34.6021 27.7867 34.5628 27.7602 34.5628 27.7277C34.5628 27.6953 34.5127 27.6688 34.4515 27.6688C34.3903 27.6688 34.3402 27.6423 34.3402 27.6098C34.3402 27.5774 34.2651 27.5509 34.1733 27.5509C34.0815 27.5509 34.0064 27.5244 34.0064 27.4919C34.0064 27.4595 33.9563 27.433 33.8951 27.433C33.8339 27.433 33.7839 27.4065 33.7839 27.374C33.7839 27.3416 33.7087 27.3151 33.6169 27.3151C33.5251 27.3151 33.45 27.2886 33.45 27.2562C33.45 27.2237 33.4 27.1972 33.3388 27.1972C33.2776 27.1972 33.2275 27.1707 33.2275 27.1383C33.2275 27.1058 33.1774 27.0793 33.1162 27.0793C33.055 27.0793 33.0049 27.0528 33.0049 27.0204C33.0049 26.9879 32.9668 26.9614 32.9203 26.9614C32.8101 26.9614 32.226 26.3426 32.226 26.2259C32.226 26.1765 32.201 26.1362 32.1704 26.1362C32.1398 26.1362 32.1148 26.0831 32.1148 26.0183C32.1148 25.9534 32.0897 25.9004 32.0591 25.9004C32.0254 25.9004 32.0035 25.6449 32.0035 25.2519C32.0035 24.8589 32.0254 24.6035 32.0591 24.6035C32.0897 24.6035 32.1148 24.5239 32.1148 24.4267C32.1148 24.3294 32.1398 24.2498 32.1704 24.2498C32.201 24.2498 32.226 24.2093 32.226 24.1599C32.226 24.0502 32.6952 23.5425 32.7965 23.5425C32.8364 23.5425 32.9052 23.4894 32.9493 23.4246C32.9934 23.3597 33.074 23.3067 33.1285 23.3067C33.1829 23.3067 33.2275 23.2802 33.2275 23.2477C33.2275 23.2153 33.3276 23.1888 33.45 23.1888H33.6726V22.5088C33.6726 21.8849 33.6829 21.8171 33.7978 21.6871C33.9099 21.5602 33.9712 21.5451 34.3859 21.5419C34.7167 21.5393 34.8716 21.5623 34.9284 21.6225Z" fill="white"/>
<defs>
<filter id="filter0_bd_4394_9132" x="12.1289" y="6.33398" width="43.4785" height="47.0879" filterUnits="userSpaceOnUse" color-interpolation-filters="sRGB">
<feFlood flood-opacity="0" result="BackgroundImageFix"/>
<feGaussianBlur in="BackgroundImage" stdDeviation="2.5"/>
<feComposite in2="SourceAlpha" operator="in" result="effect1_backgroundBlur_4394_9132"/>
<feColorMatrix in="SourceAlpha" type="matrix" values="0 0 0 0 0 0 0 0 0 0 0 0 0 0 0 0 0 0 127 0" result="hardAlpha"/>
<feOffset dy="4"/>
<feGaussianBlur stdDeviation="2"/>
<feComposite in2="hardAlpha" operator="out"/>
<feColorMatrix type="matrix" values="0 0 0 0 0.7125 0 0 0 0 0.7125 0 0 0 0 0.7125 0 0 0 0.25 0"/>
<feBlend mode="normal" in2="effect1_backgroundBlur_4394_9132" result="effect2_dropShadow_4394_9132"/>
<feBlend mode="normal" in="SourceGraphic" in2="effect2_dropShadow_4394_9132" result="shape"/>
</filter>
<linearGradient id="paint0_linear_4394_9132" x1="49.4346" y1="44.6846" x2="30.1416" y2="5.67526" gradientUnits="userSpaceOnUse">
<stop stop-color="#1E1360" stop-opacity="0"/>
<stop offset="1" stop-color="#F5F5F5" stop-opacity="0.63"/>
</linearGradient>
</defs>
</svg>
