<svg width="53" height="45" viewBox="0 0 53 45" fill="none" xmlns="http://www.w3.org/2000/svg">
<rect x="0.390625" y="0.783203" width="39.8551" height="39.8551" rx="19.9275" fill="#00ADEF"/>
<g filter="url(#filter0_bd_4394_9105)">
<rect x="16.5898" y="11.334" width="34.0182" height="34.087" rx="6" fill="url(#paint0_linear_4394_9105)" shape-rendering="crispEdges"/>
</g>
<path d="M44.2321 35.669C45.6189 33.7145 46.4358 31.4237 46.5942 29.0448C46.7526 26.6659 46.2466 24.2897 45.1308 22.1738C44.015 20.0578 42.3323 18.2829 40.2647 17.0414C38.1971 15.7999 35.8238 15.1392 33.4019 15.1309C31.5144 15.1281 29.6478 15.5217 27.9272 16.2856C27.7463 16.3732 27.6064 16.5258 27.5361 16.7118C27.502 16.8054 27.4875 16.9047 27.4935 17.004C27.4995 17.1032 27.5261 17.2002 27.5712 17.2891L28.3394 18.8081C28.4254 18.9789 28.5751 19.1103 28.7574 19.1745C28.9398 19.2386 29.1405 19.2304 29.3169 19.1518C31.2767 18.3002 33.4617 18.089 35.5523 18.5487C37.643 19.0084 39.5294 20.115 40.9347 21.7066C42.3399 23.2981 43.1904 25.2909 43.3616 27.3929C43.5328 29.4948 43.0157 31.5955 41.8859 33.3871L40.8034 32.3216C40.7237 32.2432 40.6271 32.1833 40.5207 32.1464C40.4144 32.1096 40.3011 32.0966 40.189 32.1085C40.0051 32.1274 39.8351 32.2134 39.7123 32.3495C39.5896 32.4856 39.5228 32.662 39.5255 32.844V37.5112C39.5254 37.6069 39.5446 37.7017 39.5818 37.7901C39.6189 37.8786 39.6733 37.959 39.742 38.0267C39.8095 38.0984 39.8919 38.1551 39.9834 38.193C40.0749 38.231 40.1736 38.2491 40.2729 38.2466H45.0142C45.1627 38.2475 45.3081 38.205 45.4319 38.1242C45.5556 38.0435 45.6521 37.9283 45.7091 37.7933C45.766 37.6583 45.7806 37.5097 45.7514 37.3664C45.7221 37.2231 45.6502 37.0917 45.5447 36.9888L44.2321 35.669Z" fill="white"/>
<path d="M39.3514 39.3065L38.5752 37.7858C38.4892 37.6165 38.3404 37.4863 38.1595 37.4222C37.9785 37.3582 37.7796 37.3651 37.6038 37.4417C35.6418 38.2942 33.454 38.5058 31.361 38.0456C29.268 37.5854 27.3798 36.4777 25.973 34.8845C24.5661 33.2913 23.7147 31.2964 23.5433 29.1922C23.3719 27.0881 23.8896 24.9852 25.0206 23.1918L26.1112 24.2583C26.2117 24.3661 26.3443 24.4397 26.4901 24.4681C26.6359 24.4966 26.7872 24.4785 26.9219 24.4166C27.0598 24.3603 27.1776 24.2647 27.2598 24.1421C27.342 24.0194 27.385 23.8754 27.3834 23.7285V19.0564C27.3824 18.8611 27.3047 18.6738 27.1666 18.5335C27.0967 18.4653 27.0137 18.4114 26.9226 18.3748C26.8314 18.3382 26.734 18.3197 26.6355 18.3203H21.8888C21.7402 18.3194 21.5946 18.362 21.4707 18.4428C21.3468 18.5236 21.2502 18.6389 21.1932 18.7741C21.1362 18.9092 21.1213 19.058 21.1505 19.2014C21.1798 19.3449 21.2518 19.4764 21.3574 19.5794L22.6995 20.8937C21.0411 23.2386 20.2088 26.0537 20.3299 28.9083C20.451 31.763 21.519 34.4999 23.3702 36.7006C25.2215 38.9012 27.7543 40.4444 30.581 41.0939C33.4078 41.7435 36.3728 41.4637 39.0227 40.2973C39.1137 40.2557 39.1954 40.1964 39.2627 40.1231C39.3299 40.0498 39.3814 39.964 39.4142 39.8706C39.4451 39.7776 39.4555 39.6792 39.4446 39.5819C39.4338 39.4846 39.4021 39.3908 39.3514 39.3065Z" fill="white"/>
<path d="M33.7725 25.775C33.6148 25.7732 33.4639 25.7098 33.3523 25.5983C33.2408 25.4867 33.1776 25.336 33.1758 25.1783V22.7981C33.1758 22.6398 33.2387 22.4879 33.3506 22.376C33.4625 22.2641 33.6142 22.2012 33.7725 22.2012C33.9308 22.2012 34.0824 22.2641 34.1944 22.376C34.3063 22.4879 34.3692 22.6398 34.3692 22.7981V25.1783C34.3674 25.336 34.3039 25.4867 34.1923 25.5983C34.0808 25.7098 33.9302 25.7732 33.7725 25.775Z" fill="white"/>
<path d="M33.7725 34.3943C33.6142 34.3943 33.4625 34.3314 33.3506 34.2195C33.2387 34.1075 33.1758 33.9557 33.1758 33.7974V31.4172C33.1758 31.2589 33.2387 31.1071 33.3506 30.9952C33.4625 30.8832 33.6142 30.8203 33.7725 30.8203C33.9308 30.8203 34.0824 30.8832 34.1944 30.9952C34.3063 31.1071 34.3692 31.2589 34.3692 31.4172V33.7974C34.3692 33.8758 34.3538 33.9534 34.3238 34.0258C34.2938 34.0982 34.2498 34.164 34.1944 34.2195C34.1389 34.2749 34.0733 34.3189 34.0009 34.3489C33.9285 34.3789 33.8509 34.3943 33.7725 34.3943Z" fill="white"/>
<path d="M30.6352 28.8914H28.2548C28.1715 28.9005 28.0872 28.8917 28.0075 28.866C27.9277 28.8403 27.8543 28.7981 27.792 28.7422C27.7296 28.6862 27.6797 28.6178 27.6456 28.5412C27.6115 28.4647 27.5938 28.3817 27.5938 28.2979C27.5938 28.2141 27.6115 28.1313 27.6456 28.0548C27.6797 27.9783 27.7296 27.9099 27.792 27.8539C27.8543 27.7979 27.9277 27.7557 28.0075 27.73C28.0872 27.7043 28.1715 27.6956 28.2548 27.7046H30.6352C30.7185 27.6956 30.8028 27.7043 30.8826 27.73C30.9624 27.7557 31.0357 27.7979 31.0981 27.8539C31.1605 27.9099 31.2103 27.9783 31.2445 28.0548C31.2786 28.1313 31.2963 28.2141 31.2963 28.2979C31.2963 28.3817 31.2786 28.4647 31.2445 28.5412C31.2103 28.6178 31.1605 28.6862 31.0981 28.7422C31.0357 28.7981 30.9624 28.8403 30.8826 28.866C30.8028 28.8917 30.7185 28.9005 30.6352 28.8914Z" fill="white"/>
<path d="M39.2761 28.8914H36.8818C36.7985 28.9005 36.7142 28.8917 36.6344 28.866C36.5547 28.8403 36.4813 28.7981 36.4189 28.7422C36.3566 28.6862 36.3067 28.6178 36.2725 28.5412C36.2384 28.4647 36.2207 28.3817 36.2207 28.2979C36.2207 28.2141 36.2384 28.1313 36.2725 28.0548C36.3067 27.9783 36.3566 27.9099 36.4189 27.8539C36.4813 27.7979 36.5547 27.7557 36.6344 27.73C36.7142 27.7043 36.7985 27.6956 36.8818 27.7046H39.2622C39.3455 27.6956 39.4298 27.7043 39.5096 27.73C39.5893 27.7557 39.6627 27.7979 39.7251 27.8539C39.7874 27.9099 39.8373 27.9783 39.8714 28.0548C39.9056 28.1313 39.9233 28.2141 39.9233 28.2979C39.9233 28.3817 39.9056 28.4647 39.8714 28.5412C39.8373 28.6178 39.7874 28.6862 39.7251 28.7422C39.6627 28.7981 39.5893 28.8403 39.5096 28.866C39.4298 28.8917 39.3455 28.9005 39.2622 28.8914H39.2761Z" fill="white"/>
<path d="M35.9794 26.6844C35.8624 26.6836 35.7482 26.6485 35.6511 26.5833C35.5539 26.5181 35.4779 26.4258 35.4328 26.3178C35.3877 26.2098 35.3754 26.091 35.3973 25.9761C35.4192 25.8611 35.4742 25.7551 35.5558 25.6713L37.2423 23.985C37.3523 23.8762 37.5003 23.8143 37.655 23.8125C37.8097 23.8107 37.9589 23.8691 38.0714 23.9754C38.184 24.0816 38.251 24.2274 38.2581 24.382C38.2653 24.5365 38.212 24.6877 38.1097 24.8038L36.4233 26.4832C36.3682 26.5468 36.3 26.5979 36.2234 26.6326C36.1467 26.6673 36.0636 26.6849 35.9794 26.6844Z" fill="white"/>
<path d="M29.879 32.784C29.7219 32.7822 29.5716 32.7185 29.4612 32.6068C29.3508 32.495 29.2891 32.3444 29.2891 32.1873C29.2899 32.029 29.3521 31.8772 29.4626 31.7639L31.1419 30.0846C31.196 30.0248 31.2618 29.9767 31.335 29.9431C31.4083 29.9095 31.4876 29.891 31.5681 29.8889C31.6487 29.8867 31.729 29.9009 31.804 29.9306C31.8789 29.9603 31.947 30.0049 32.0042 30.0617C32.0615 30.1185 32.1067 30.1862 32.1371 30.2609C32.1674 30.3356 32.1822 30.4157 32.1808 30.4963C32.1793 30.5769 32.1613 30.6564 32.1283 30.7299C32.0952 30.8034 32.0479 30.8696 31.9887 30.9242L30.3022 32.6105C30.2465 32.6658 30.1804 32.7097 30.1077 32.7394C30.0351 32.7692 29.9575 32.7843 29.879 32.784Z" fill="white"/>
<path d="M31.5646 26.6846C31.4861 26.685 31.4085 26.6698 31.3358 26.6401C31.2632 26.6103 31.197 26.5665 31.1413 26.5111L29.462 24.8318C29.4019 24.7789 29.353 24.7143 29.3183 24.6421C29.2837 24.5698 29.2641 24.4915 29.2604 24.4115C29.2567 24.3315 29.2691 24.2514 29.297 24.1763C29.3249 24.1012 29.3674 24.0326 29.4224 23.9744C29.4774 23.9161 29.5435 23.8694 29.6169 23.8373C29.6902 23.8052 29.7696 23.7881 29.8497 23.7871C29.9297 23.7862 30.009 23.8014 30.0831 23.8319C30.1572 23.8623 30.2247 23.9074 30.281 23.9644L32.0227 25.6854C32.1333 25.7971 32.1955 25.948 32.1955 26.1052C32.1955 26.2624 32.1333 26.4133 32.0227 26.525C31.9109 26.6387 31.7589 26.7036 31.5995 26.7055L31.5646 26.6846Z" fill="white"/>
<path d="M37.6657 32.7846C37.5872 32.785 37.5096 32.7699 37.4369 32.7401C37.3643 32.7103 37.2981 32.6665 37.2424 32.6112L35.556 30.9249C35.4516 30.8069 35.3981 30.6524 35.4072 30.4951C35.4163 30.3377 35.4875 30.1904 35.6048 30.0852C35.7136 29.9852 35.8558 29.9297 36.0036 29.9297C36.1514 29.9297 36.2939 29.9852 36.4028 30.0852L38.0821 31.7645C38.1661 31.848 38.2235 31.9546 38.2468 32.0707C38.27 32.1868 38.2579 32.3073 38.2126 32.4167C38.1672 32.526 38.0903 32.6193 37.9916 32.6849C37.893 32.7504 37.7773 32.7852 37.6589 32.7846H37.6657Z" fill="white"/>
<defs>
<filter id="filter0_bd_4394_9105" x="11.5898" y="6.33398" width="44.0176" height="47.0879" filterUnits="userSpaceOnUse" color-interpolation-filters="sRGB">
<feFlood flood-opacity="0" result="BackgroundImageFix"/>
<feGaussianBlur in="BackgroundImage" stdDeviation="2.5"/>
<feComposite in2="SourceAlpha" operator="in" result="effect1_backgroundBlur_4394_9105"/>
<feColorMatrix in="SourceAlpha" type="matrix" values="0 0 0 0 0 0 0 0 0 0 0 0 0 0 0 0 0 0 127 0" result="hardAlpha"/>
<feOffset dy="4"/>
<feGaussianBlur stdDeviation="2"/>
<feComposite in2="hardAlpha" operator="out"/>
<feColorMatrix type="matrix" values="0 0 0 0 0.7125 0 0 0 0 0.7125 0 0 0 0 0.7125 0 0 0 0.25 0"/>
<feBlend mode="normal" in2="effect1_backgroundBlur_4394_9105" result="effect2_dropShadow_4394_9105"/>
<feBlend mode="normal" in="SourceGraphic" in2="effect2_dropShadow_4394_9105" result="shape"/>
</filter>
<linearGradient id="paint0_linear_4394_9105" x1="49.4166" y1="44.6846" x2="30.3116" y2="5.43231" gradientUnits="userSpaceOnUse">
<stop stop-color="#1E1360" stop-opacity="0"/>
<stop offset="1" stop-color="#F5F5F5" stop-opacity="0.63"/>
</linearGradient>
</defs>
</svg>
