<svg width="53" height="51" viewBox="0 0 53 51" fill="none" xmlns="http://www.w3.org/2000/svg">
<rect x="0.390625" y="0.783203" width="39.8551" height="39.8551" rx="19.9275" fill="#FFD233"/>
<g filter="url(#filter0_bd_4394_9064)">
<rect x="17.1289" y="11.9434" width="33.4783" height="33.4783" rx="6" fill="url(#paint0_linear_4394_9064)" shape-rendering="crispEdges"/>
</g>
<path fill-rule="evenodd" clip-rule="evenodd" d="M25.631 15.999C25.631 16.0371 25.5848 16.0683 25.5284 16.0683C25.4719 16.0683 25.3524 16.1448 25.2627 16.2384L25.0996 16.4084V27.5714V38.7344L25.5646 39.2128C25.8203 39.4759 26.0296 39.7394 26.0296 39.7985C26.0296 39.8574 26.0765 39.9057 26.1339 39.9057C26.2556 39.9057 26.4281 40.0683 26.4281 40.1829C26.4281 40.2852 26.5958 40.4601 26.6938 40.4601C26.7911 40.4601 26.9595 40.6347 26.9595 40.7355C26.9595 40.8432 27.2667 41.153 27.3736 41.153C27.422 41.153 27.5047 41.2154 27.5573 41.2916C27.6276 41.3933 27.7293 41.4302 27.9392 41.4302C28.2175 41.4302 28.2484 41.406 29.0851 40.5294C29.5581 40.0339 29.9766 39.6285 30.0152 39.6285C30.0538 39.6285 30.4423 40.0027 30.8786 40.4601C31.3149 40.9174 31.7175 41.2916 31.7734 41.2916C31.8293 41.2916 31.875 41.3228 31.875 41.3609C31.875 41.399 31.9945 41.4302 32.1407 41.4302C32.2868 41.4302 32.4064 41.399 32.4064 41.3609C32.4064 41.3228 32.4521 41.2916 32.5079 41.2916C32.5639 41.2916 32.9665 40.9174 33.4028 40.4601C33.839 40.0027 34.2275 39.6285 34.2661 39.6285C34.3047 39.6285 34.7233 40.0339 35.1962 40.5294C36.0459 41.4195 36.0597 41.4302 36.3569 41.4302C36.5223 41.4302 36.6576 41.399 36.6576 41.3609C36.6576 41.3228 36.7032 41.2916 36.7589 41.2916C36.8908 41.2916 37.4547 40.7034 37.4547 40.5658C37.4547 40.5077 37.5008 40.4601 37.5573 40.4601C37.6902 40.4601 37.9861 40.1514 37.9861 40.0128C37.9861 39.9539 38.0393 39.9057 38.1043 39.9057C38.1693 39.9057 38.2655 39.8434 38.3182 39.7671C38.3709 39.6909 38.453 39.6285 38.5007 39.6285C38.5485 39.6285 38.9745 40.0339 39.4474 40.5294C40.6463 41.7853 40.4797 41.8095 42.0717 40.1487C42.7473 39.4439 43.3001 38.8202 43.3001 38.7628C43.3001 38.7054 43.33 38.6584 43.3665 38.6584C43.4106 38.6584 43.4329 34.9165 43.4329 27.5712C43.4329 20.226 43.4106 16.484 43.3665 16.484C43.33 16.484 43.3001 16.4351 43.3001 16.3752C43.3001 16.2351 43.1401 16.0683 43.0059 16.0683C42.9485 16.0683 42.9015 16.0371 42.9015 15.999C42.9015 15.9531 39.9788 15.9297 34.2663 15.9297C28.5537 15.9297 25.631 15.9531 25.631 15.999ZM34.9305 19.8498C34.9305 20.6052 34.9859 20.7803 35.2247 20.7803C35.2821 20.7803 35.3291 20.8115 35.3291 20.8496C35.3291 20.8877 35.3889 20.9189 35.4619 20.9189C35.535 20.9189 35.5948 20.9501 35.5948 20.9882C35.5948 21.0263 35.6546 21.0575 35.7276 21.0575C35.8007 21.0575 35.8605 21.0887 35.8605 21.1268C35.8605 21.1649 35.906 21.1961 35.9616 21.1961C36.0847 21.1961 36.7904 21.9193 36.7904 22.0455C36.7904 22.0951 36.7306 22.1806 36.6576 22.2355C36.5845 22.2905 36.5247 22.3761 36.5247 22.4259C36.5247 22.5436 35.9565 23.1364 35.8437 23.1364C35.796 23.1364 35.7139 23.074 35.6612 22.9978C35.6085 22.9215 35.5189 22.8592 35.4619 22.8592C35.405 22.8592 35.3153 22.7968 35.2627 22.7206C35.21 22.6444 35.1137 22.582 35.0487 22.582C34.9837 22.582 34.9305 22.5508 34.9305 22.5127C34.9305 22.4726 34.7186 22.4434 34.4276 22.4434C33.9104 22.4434 33.7349 22.5212 33.7349 22.7503C33.7349 22.8102 33.705 22.8592 33.6685 22.8592C33.6319 22.8592 33.602 22.9382 33.602 23.0347C33.602 23.2688 34.0065 23.6907 34.2309 23.6907C34.3234 23.6907 34.3991 23.7219 34.3991 23.76C34.3991 23.7981 34.4589 23.8293 34.532 23.8293C34.605 23.8293 34.6648 23.8605 34.6648 23.8986C34.6648 23.9367 34.7545 23.9679 34.8641 23.9679C34.9737 23.9679 35.0634 23.9991 35.0634 24.0372C35.0634 24.0753 35.1232 24.1065 35.1962 24.1065C35.2693 24.1065 35.3291 24.1377 35.3291 24.1758C35.3291 24.2139 35.3889 24.2451 35.4619 24.2451C35.535 24.2451 35.5948 24.2763 35.5948 24.3144C35.5948 24.3525 35.6546 24.3837 35.7276 24.3837C35.8007 24.3837 35.8605 24.4148 35.8605 24.453C35.8605 24.4911 35.906 24.5223 35.9616 24.5223C36.0172 24.5223 36.2264 24.6931 36.4266 24.9019C36.6267 25.1106 36.7904 25.3289 36.7904 25.3869C36.7904 25.4449 36.8203 25.4924 36.8569 25.4924C36.8934 25.4924 36.9233 25.5547 36.9233 25.631C36.9233 25.7072 36.9532 25.7696 36.9897 25.7696C37.0291 25.7696 37.0561 26.0237 37.0561 26.3932C37.0561 26.7628 37.0291 27.0169 36.9897 27.0169C36.9532 27.0169 36.9233 27.1104 36.9233 27.2248C36.9233 27.3391 36.8934 27.4326 36.8569 27.4326C36.8203 27.4326 36.7904 27.4801 36.7904 27.5381C36.7904 27.6753 36.0931 28.4028 35.9616 28.4028C35.906 28.4028 35.8605 28.434 35.8605 28.4721C35.8605 28.5102 35.8007 28.5414 35.7276 28.5414C35.6546 28.5414 35.5948 28.5725 35.5948 28.6107C35.5948 28.6488 35.488 28.6799 35.3576 28.6799C34.9832 28.6799 34.9305 28.7862 34.9305 29.5412V30.2044H34.2663H33.602V29.5412C33.602 28.7862 33.5494 28.6799 33.175 28.6799C33.0445 28.6799 32.9378 28.6488 32.9378 28.6107C32.9378 28.5725 32.878 28.5414 32.8049 28.5414C32.7319 28.5414 32.6721 28.5102 32.6721 28.4721C32.6721 28.434 32.6123 28.4028 32.5392 28.4028C32.4662 28.4028 32.4064 28.3716 32.4064 28.3335C32.4064 28.2954 32.3609 28.2642 32.3053 28.2642C32.2497 28.2642 32.0404 28.0934 31.8403 27.8846C31.3994 27.4245 31.3602 27.1857 31.6757 26.8783C31.7853 26.7715 31.875 26.6484 31.875 26.6048C31.875 26.4882 32.1845 26.1853 32.3037 26.1853C32.3602 26.1853 32.4064 26.2165 32.4064 26.2546C32.4064 26.2927 32.4596 26.3239 32.5245 26.3239C32.5896 26.3239 32.6858 26.3863 32.7385 26.4625C32.7912 26.5387 32.8874 26.6011 32.9525 26.6011C33.0174 26.6011 33.0706 26.6323 33.0706 26.6704C33.0706 26.7085 33.1304 26.7397 33.2035 26.7397C33.2765 26.7397 33.3363 26.7709 33.3363 26.809C33.3363 26.8471 33.3961 26.8783 33.4692 26.8783C33.5422 26.8783 33.602 26.9095 33.602 26.9476C33.602 26.9876 33.8134 27.0169 34.1032 27.0169C34.5468 27.0169 34.6232 26.9973 34.7675 26.8468C34.994 26.6104 34.994 26.176 34.7675 25.9397C34.6778 25.8461 34.5582 25.7696 34.5018 25.7696C34.4453 25.7696 34.3991 25.7384 34.3991 25.7003C34.3991 25.6622 34.3393 25.631 34.2663 25.631C34.1932 25.631 34.1334 25.5998 34.1334 25.5617C34.1334 25.5236 34.0736 25.4924 34.0006 25.4924C33.9275 25.4924 33.8677 25.4612 33.8677 25.4231C33.8677 25.385 33.7781 25.3538 33.6685 25.3538C33.5588 25.3538 33.4692 25.3226 33.4692 25.2845C33.4692 25.2464 33.4094 25.2152 33.3363 25.2152C33.2633 25.2152 33.2035 25.184 33.2035 25.1459C33.2035 25.1078 33.1437 25.0766 33.0706 25.0766C32.9976 25.0766 32.9378 25.0454 32.9378 25.0073C32.9378 24.9692 32.8846 24.938 32.8196 24.938C32.7546 24.938 32.6583 24.8757 32.6056 24.7994C32.553 24.7232 32.4703 24.6608 32.4219 24.6608C32.3079 24.6608 32.0078 24.3478 32.0078 24.2289C32.0078 24.1784 31.948 24.0921 31.875 24.0372C31.797 23.9785 31.7421 23.8578 31.7421 23.7447C31.7421 23.6388 31.7122 23.5521 31.6757 23.5521C31.6378 23.5521 31.6093 23.3442 31.6093 23.0671C31.6093 22.7899 31.6378 22.582 31.6757 22.582C31.7122 22.582 31.7421 22.4884 31.7421 22.3741C31.7421 22.2598 31.772 22.1662 31.8085 22.1662C31.8451 22.1662 31.875 22.1039 31.875 22.0276C31.875 21.9514 31.9049 21.889 31.9414 21.889C31.9779 21.889 32.0078 21.8409 32.0078 21.782C32.0078 21.651 32.3007 21.3347 32.4219 21.3347C32.4703 21.3347 32.553 21.2723 32.6056 21.1961C32.6583 21.1199 32.7546 21.0575 32.8196 21.0575C32.8846 21.0575 32.9378 21.0263 32.9378 20.9882C32.9378 20.9501 32.9976 20.9189 33.0706 20.9189C33.1437 20.9189 33.2035 20.8877 33.2035 20.8496C33.2035 20.8115 33.2931 20.7803 33.4028 20.7803H33.602V19.9488V19.1173H34.2663H34.9305V19.8498ZM38.5529 33.7708C38.7401 33.9662 38.7832 34.0637 38.7832 34.2928C38.7832 34.522 38.7401 34.6195 38.5529 34.8148L38.3227 35.0551H34.2663H30.2099L29.9797 34.8148C29.7771 34.6035 29.7494 34.5321 29.7494 34.2209C29.7494 33.8565 29.8492 33.6692 30.0436 33.6692C30.101 33.6692 30.1479 33.638 30.1479 33.5999C30.1479 33.5544 31.5547 33.5306 34.2353 33.5306H38.3227L38.5529 33.7708Z" fill="white"/>
<defs>
<filter id="filter0_bd_4394_9064" x="5.12891" y="-0.0566406" width="57.4785" height="57.4785" filterUnits="userSpaceOnUse" color-interpolation-filters="sRGB">
<feFlood flood-opacity="0" result="BackgroundImageFix"/>
<feGaussianBlur in="BackgroundImage" stdDeviation="6"/>
<feComposite in2="SourceAlpha" operator="in" result="effect1_backgroundBlur_4394_9064"/>
<feColorMatrix in="SourceAlpha" type="matrix" values="0 0 0 0 0 0 0 0 0 0 0 0 0 0 0 0 0 0 127 0" result="hardAlpha"/>
<feOffset dy="4"/>
<feGaussianBlur stdDeviation="2"/>
<feComposite in2="hardAlpha" operator="out"/>
<feColorMatrix type="matrix" values="0 0 0 0 0.7125 0 0 0 0 0.7125 0 0 0 0 0.7125 0 0 0 0.25 0"/>
<feBlend mode="normal" in2="effect1_backgroundBlur_4394_9064" result="effect2_dropShadow_4394_9064"/>
<feBlend mode="normal" in="SourceGraphic" in2="effect2_dropShadow_4394_9064" result="shape"/>
</filter>
<linearGradient id="paint0_linear_4394_9064" x1="49.4346" y1="44.6984" x2="30.6941" y2="6.1173" gradientUnits="userSpaceOnUse">
<stop stop-color="#1E1360" stop-opacity="0"/>
<stop offset="1" stop-color="#F5F5F5" stop-opacity="0.63"/>
</linearGradient>
</defs>
</svg>
