<svg width="53" height="51" viewBox="0 0 53 51" fill="none" xmlns="http://www.w3.org/2000/svg">
<rect x="0.390625" y="0.783203" width="39.8551" height="40.5797" rx="19.9275" fill="#FF8A8A"/>
<g filter="url(#filter0_bd_4394_9150)">
<rect x="17.1289" y="11.334" width="33.4783" height="34.087" rx="6" fill="url(#paint0_linear_4394_9150)" shape-rendering="crispEdges"/>
</g>
<path d="M40.3414 19.965L24.1062 23.8679C23.6354 23.9824 23.2294 24.2778 22.977 24.6895C22.7247 25.1011 22.6465 25.5956 22.7596 26.0645L25.1873 36.0596C25.3018 36.5284 25.5985 36.9327 26.0124 37.184C26.4264 37.4352 26.9236 37.5127 27.3949 37.3994L43.6301 33.4966C44.1012 33.3827 44.5077 33.0873 44.7601 32.6755C45.0126 32.2636 45.0905 31.7689 44.9767 31.3L42.5491 21.3049C42.4346 20.8361 42.1378 20.4316 41.7239 20.1804C41.3099 19.9292 40.8127 19.8517 40.3414 19.965ZM29.8177 28.192C29.9056 28.5593 29.8437 28.9462 29.6456 29.2682C29.4475 29.5902 29.1293 29.821 28.7606 29.9101L27.8326 30.1338C27.4638 30.2213 27.0752 30.1601 26.7516 29.9635C26.4281 29.7668 26.1959 29.4508 26.1058 29.0844L25.8809 28.161C25.793 27.7937 25.8549 27.4068 26.053 27.0848C26.2511 26.7628 26.5694 26.532 26.9381 26.4428L27.8637 26.2191C28.2328 26.1309 28.622 26.1917 28.9461 26.3884C29.2702 26.5851 29.5028 26.9016 29.5929 27.2685L29.8177 28.192ZM38.5309 29.4223C38.3924 29.4565 38.2463 29.4422 38.1171 29.3819C38.0412 29.3475 37.9728 29.2984 37.9159 29.2377C37.859 29.1769 37.8146 29.1057 37.7855 29.0278C37.7564 28.95 37.743 28.8671 37.7462 28.7841C37.7493 28.7012 37.7689 28.6196 37.8038 28.5442C37.9237 28.2859 37.9515 27.9945 37.8827 27.7184C37.818 27.4413 37.6592 27.1951 37.4331 27.0211C37.3673 26.9697 37.3123 26.9059 37.2713 26.8334C37.2302 26.7608 37.204 26.6809 37.194 26.5983C37.184 26.5156 37.1905 26.4318 37.213 26.3516C37.2356 26.2714 37.2738 26.1965 37.3255 26.131C37.3771 26.0656 37.4413 26.0109 37.5142 25.9701C37.5871 25.9293 37.6674 25.9031 37.7504 25.8932C37.8335 25.8832 37.9177 25.8897 37.9982 25.9121C38.0788 25.9346 38.1542 25.9725 38.22 26.0239C38.6687 26.3761 38.9856 26.8681 39.1196 27.421C39.2536 27.9738 39.1971 28.5554 38.959 29.0724C38.9192 29.1594 38.8599 29.2362 38.7857 29.2968C38.7115 29.3575 38.6244 29.4004 38.5309 29.4223ZM40.8485 30.2671C40.7683 30.4151 40.6322 30.5253 40.4703 30.5735C40.3084 30.6217 40.1338 30.604 39.9851 30.5241C39.8363 30.4443 39.7255 30.309 39.6771 30.1479C39.6286 29.9868 39.6465 29.8131 39.7268 29.6651C40.1366 28.9096 40.2514 28.0301 40.0492 27.1956C39.847 26.361 39.3421 25.6302 38.6313 25.1435C38.4981 25.0464 38.4081 24.9015 38.3802 24.7395C38.3523 24.5776 38.3889 24.4112 38.482 24.2756C38.5752 24.1399 38.7177 24.0456 38.8794 24.0126C39.0412 23.9796 39.2096 24.0105 39.3489 24.0987C40.316 24.7636 41.0032 25.7595 41.2793 26.8963C41.5555 28.0332 41.4013 29.2314 40.8461 30.2623L40.8485 30.2671Z" fill="white"/>
<defs>
<filter id="filter0_bd_4394_9150" x="12.1289" y="6.33398" width="43.4785" height="47.0879" filterUnits="userSpaceOnUse" color-interpolation-filters="sRGB">
<feFlood flood-opacity="0" result="BackgroundImageFix"/>
<feGaussianBlur in="BackgroundImage" stdDeviation="2.5"/>
<feComposite in2="SourceAlpha" operator="in" result="effect1_backgroundBlur_4394_9150"/>
<feColorMatrix in="SourceAlpha" type="matrix" values="0 0 0 0 0 0 0 0 0 0 0 0 0 0 0 0 0 0 127 0" result="hardAlpha"/>
<feOffset dy="4"/>
<feGaussianBlur stdDeviation="2"/>
<feComposite in2="hardAlpha" operator="out"/>
<feColorMatrix type="matrix" values="0 0 0 0 0.7125 0 0 0 0 0.7125 0 0 0 0 0.7125 0 0 0 0.25 0"/>
<feBlend mode="normal" in2="effect1_backgroundBlur_4394_9150" result="effect2_dropShadow_4394_9150"/>
<feBlend mode="normal" in="SourceGraphic" in2="effect2_dropShadow_4394_9150" result="shape"/>
</filter>
<linearGradient id="paint0_linear_4394_9150" x1="49.4346" y1="44.6846" x2="30.1416" y2="5.67526" gradientUnits="userSpaceOnUse">
<stop stop-color="#1E1360" stop-opacity="0"/>
<stop offset="1" stop-color="#F5F5F5" stop-opacity="0.63"/>
</linearGradient>
</defs>
</svg>
