<svg width="54" height="45" viewBox="0 0 54 45" fill="none" xmlns="http://www.w3.org/2000/svg">
<rect x="0.59375" y="0.783203" width="39.8551" height="39.8551" rx="19.9275" fill="#5CE300"/>
<g filter="url(#filter0_bd_4394_9160)">
<rect x="18.8555" y="11.334" width="31.9565" height="34.087" rx="6" fill="url(#paint0_linear_4394_9160)" shape-rendering="crispEdges"/>
</g>
<path fill-rule="evenodd" clip-rule="evenodd" d="M34.4121 17.8651C34.4121 17.8941 34.3051 17.9177 34.1744 17.9177C34.0436 17.9177 33.9366 17.9414 33.9366 17.9704C33.9366 17.9993 33.8725 18.023 33.794 18.023C33.7156 18.023 33.6514 18.0467 33.6514 18.0756C33.6514 18.1045 33.5872 18.1282 33.5087 18.1282C33.4303 18.1282 33.3661 18.1519 33.3661 18.1808C33.3661 18.2098 33.3233 18.2335 33.271 18.2335C33.2187 18.2335 33.1759 18.2571 33.1759 18.2861C33.1759 18.315 33.1331 18.3387 33.0808 18.3387C33.0285 18.3387 32.9857 18.3624 32.9857 18.3913C32.9857 18.4203 32.9429 18.4439 32.8906 18.4439C32.8383 18.4439 32.7955 18.4676 32.7955 18.4966C32.7955 18.5255 32.7574 18.5492 32.7109 18.5492C32.6644 18.5492 32.5955 18.5965 32.5578 18.6544C32.5201 18.7123 32.4605 18.7597 32.4253 18.7597C32.3902 18.7597 32.2573 18.8781 32.1299 19.0228C32.0025 19.1675 31.8746 19.2859 31.8455 19.2859C31.7767 19.2859 31.5593 19.527 31.5593 19.6033C31.5593 19.6358 31.4737 19.7534 31.3691 19.8647C31.2645 19.9759 31.179 20.0991 31.179 20.1384C31.179 20.1777 31.1362 20.2439 31.0839 20.2856C31.0316 20.3274 30.9888 20.3984 30.9888 20.4435C30.9888 20.4886 30.946 20.5596 30.8937 20.6014C30.8414 20.6431 30.7986 20.7193 30.7986 20.7709C30.7986 20.8223 30.7772 20.8645 30.751 20.8645C30.7249 20.8645 30.7035 20.9118 30.7035 20.9697C30.7035 21.0276 30.6821 21.0749 30.6559 21.0749C30.6298 21.0749 30.6084 21.146 30.6084 21.2328C30.6084 21.3196 30.587 21.3907 30.5609 21.3907C30.5347 21.3907 30.5133 21.4617 30.5133 21.5485C30.5133 21.6353 30.4919 21.7064 30.4658 21.7064C30.4396 21.7064 30.4182 21.8011 30.4182 21.9169C30.4182 22.0326 30.3968 22.1273 30.3707 22.1273C30.3445 22.1273 30.3231 22.2457 30.3231 22.3904C30.3231 22.5352 30.3017 22.6535 30.2756 22.6535C30.2463 22.6535 30.228 22.9166 30.228 23.3376C30.228 23.7586 30.2463 24.0217 30.2756 24.0217C30.302 24.0217 30.3231 24.162 30.3231 24.3374C30.3231 24.5128 30.3442 24.6531 30.3707 24.6531C30.3968 24.6531 30.4182 24.7478 30.4182 24.8636C30.4182 24.9794 30.4396 25.0741 30.4658 25.0741C30.4919 25.0741 30.5133 25.1451 30.5133 25.2319C30.5133 25.3188 30.5347 25.3898 30.5609 25.3898C30.587 25.3898 30.6084 25.4372 30.6084 25.495C30.6084 25.5529 30.6298 25.6003 30.6559 25.6003C30.6821 25.6003 30.7035 25.6476 30.7035 25.7055C30.7035 25.7634 30.7249 25.8108 30.751 25.8108C30.7772 25.8108 30.7986 25.8581 30.7986 25.916C30.7986 25.9739 30.82 26.0212 30.8461 26.0212C30.8723 26.0212 30.8937 26.0634 30.8937 26.1148C30.8937 26.1664 30.9365 26.2426 30.9888 26.2843C31.0411 26.3261 31.0839 26.3971 31.0839 26.4422C31.0839 26.4873 31.1267 26.5583 31.179 26.6001C31.2313 26.6418 31.274 26.7065 31.274 26.7439C31.274 26.8326 32.1575 27.8103 32.2376 27.8103C32.2714 27.8103 32.3299 27.8577 32.3676 27.9156C32.4053 27.9734 32.4695 28.0208 32.5103 28.0208C32.551 28.0208 32.6152 28.0682 32.6529 28.126C32.6906 28.1839 32.7595 28.2313 32.806 28.2313C32.8525 28.2313 32.8906 28.255 32.8906 28.2839C32.8906 28.3128 32.9334 28.3365 32.9857 28.3365C33.038 28.3365 33.0808 28.3602 33.0808 28.3891C33.0808 28.4181 33.1236 28.4418 33.1759 28.4418C33.2282 28.4418 33.271 28.4654 33.271 28.4944C33.271 28.5233 33.3352 28.547 33.4136 28.547C33.4921 28.547 33.5563 28.5707 33.5563 28.5996C33.5563 28.6286 33.6205 28.6522 33.6989 28.6522C33.7774 28.6522 33.8416 28.6759 33.8416 28.7049C33.8416 28.7338 33.9057 28.7575 33.9842 28.7575C34.0626 28.7575 34.1268 28.7812 34.1268 28.8101C34.1268 28.8401 34.2695 28.8627 34.4597 28.8627C34.6498 28.8627 34.7925 28.8853 34.7925 28.9153C34.7925 28.9472 34.9985 28.968 35.3155 28.968C35.6325 28.968 35.8385 28.9472 35.8385 28.9153C35.8385 28.8861 35.9653 28.8627 36.1238 28.8627C36.2823 28.8627 36.4091 28.8394 36.4091 28.8101C36.4091 28.7812 36.4946 28.7575 36.5992 28.7575C36.7038 28.7575 36.7894 28.7338 36.7894 28.7049C36.7894 28.6759 36.8536 28.6522 36.9321 28.6522C37.0105 28.6522 37.0747 28.6286 37.0747 28.5996C37.0747 28.5707 37.1175 28.547 37.1698 28.547C37.2221 28.547 37.2649 28.5233 37.2649 28.4944C37.2649 28.4654 37.3244 28.4418 37.397 28.4418C37.4746 28.4418 37.5574 28.3983 37.5977 28.3365C37.6354 28.2786 37.7043 28.2313 37.7509 28.2313C37.7974 28.2313 37.8355 28.2076 37.8355 28.1787C37.8355 28.1497 37.8735 28.126 37.92 28.126C37.9666 28.126 38.0355 28.0787 38.0732 28.0208C38.1109 27.9629 38.1712 27.9156 38.2073 27.9156C38.2433 27.9156 38.3327 27.8445 38.406 27.7577C38.4793 27.6709 38.5635 27.5998 38.5931 27.5998C38.6622 27.5998 38.9766 27.2534 38.9766 27.1772C38.9766 27.1454 39.0835 27.0041 39.2143 26.8632C39.345 26.7222 39.452 26.5699 39.452 26.5245C39.452 26.4792 39.4734 26.4422 39.4996 26.4422C39.5257 26.4422 39.5471 26.4 39.5471 26.3486C39.5471 26.2971 39.5899 26.2208 39.6422 26.1791C39.6945 26.1374 39.7373 26.0611 39.7373 26.0096C39.7373 25.9581 39.7587 25.916 39.7849 25.916C39.811 25.916 39.8324 25.8686 39.8324 25.8108C39.8324 25.7529 39.8538 25.7055 39.8799 25.7055C39.9061 25.7055 39.9275 25.6582 39.9275 25.6003C39.9275 25.5424 39.9489 25.495 39.975 25.495C40.0012 25.495 40.0226 25.424 40.0226 25.3372C40.0226 25.2503 40.044 25.1793 40.0701 25.1793C40.0963 25.1793 40.1177 25.1083 40.1177 25.0215C40.1177 24.9346 40.1391 24.8636 40.1652 24.8636C40.1914 24.8636 40.2128 24.7452 40.2128 24.6005C40.2128 24.4558 40.2342 24.3374 40.2603 24.3374C40.2904 24.3374 40.3079 23.969 40.3079 23.3376C40.3079 22.7062 40.2904 22.3378 40.2603 22.3378C40.2342 22.3378 40.2128 22.2431 40.2128 22.1273C40.2128 22.0116 40.1914 21.9169 40.1652 21.9169C40.1391 21.9169 40.1177 21.8458 40.1177 21.759C40.1177 21.6722 40.0963 21.6011 40.0701 21.6011C40.044 21.6011 40.0226 21.5301 40.0226 21.4433C40.0226 21.3565 40.0012 21.2854 39.975 21.2854C39.9489 21.2854 39.9275 21.2381 39.9275 21.1802C39.9275 21.1223 39.9061 21.0749 39.8799 21.0749C39.8538 21.0749 39.8324 21.0091 39.8324 20.9287C39.8324 20.8428 39.7931 20.7512 39.7373 20.7066C39.685 20.6649 39.6422 20.5886 39.6422 20.5371C39.6422 20.4857 39.6208 20.4435 39.5947 20.4435C39.5685 20.4435 39.5471 20.4057 39.5471 20.3594C39.5471 20.3131 39.4829 20.2089 39.4045 20.1278C39.326 20.0467 39.2618 19.954 39.2618 19.9218C39.2618 19.8453 38.4711 18.9701 38.402 18.9701C38.3729 18.9701 38.2891 18.8991 38.2158 18.8123C38.1426 18.7255 38.0484 18.6544 38.0066 18.6544C37.9647 18.6544 37.9305 18.6307 37.9305 18.6018C37.9305 18.5729 37.8925 18.5492 37.846 18.5492C37.7994 18.5492 37.7305 18.5018 37.6928 18.4439C37.6551 18.3861 37.5862 18.3387 37.5397 18.3387C37.4932 18.3387 37.4551 18.315 37.4551 18.2861C37.4551 18.2571 37.3909 18.2335 37.3124 18.2335C37.234 18.2335 37.1698 18.2098 37.1698 18.1808C37.1698 18.1519 37.127 18.1282 37.0747 18.1282C37.0224 18.1282 36.9796 18.1045 36.9796 18.0756C36.9796 18.0467 36.894 18.023 36.7894 18.023C36.6848 18.023 36.5992 17.9993 36.5992 17.9704C36.5992 17.9414 36.5137 17.9177 36.4091 17.9177C36.3045 17.9177 36.2189 17.8941 36.2189 17.8651C36.2189 17.8319 35.886 17.8125 35.3155 17.8125C34.7449 17.8125 34.4121 17.8319 34.4121 17.8651ZM35.6755 19.6768C35.7249 19.7314 35.7434 19.8893 35.7434 20.2556C35.7434 20.7241 35.75 20.7592 35.8385 20.7592C35.8908 20.7592 35.9336 20.7829 35.9336 20.8118C35.9336 20.8408 35.9978 20.8645 36.0762 20.8645C36.1547 20.8645 36.2189 20.8881 36.2189 20.9171C36.2189 20.946 36.2531 20.9697 36.2949 20.9697C36.3367 20.9697 36.4309 21.0407 36.5042 21.1276C36.5774 21.2144 36.6716 21.2854 36.7134 21.2854C36.7577 21.2854 36.7894 21.3293 36.7894 21.3907C36.7894 21.4485 36.8108 21.4959 36.837 21.4959C36.8631 21.4959 36.8845 21.5556 36.8845 21.6286C36.8845 21.7965 36.41 22.3378 36.2628 22.3378C36.2073 22.3378 36.102 22.2668 36.0287 22.18C35.9554 22.0931 35.8612 22.0221 35.8194 22.0221C35.7776 22.0221 35.7434 21.9984 35.7434 21.9695C35.7434 21.9398 35.608 21.9169 35.4322 21.9169C35.1651 21.9169 35.1044 21.9352 35.0043 22.046C34.8861 22.1768 34.848 22.3378 34.9351 22.3378C34.9613 22.3378 34.9827 22.375 34.9827 22.4205C34.9827 22.5268 35.0972 22.6535 35.1932 22.6535C35.2343 22.6535 35.2679 22.6772 35.2679 22.7062C35.2679 22.7351 35.3321 22.7588 35.4106 22.7588C35.489 22.7588 35.5532 22.7825 35.5532 22.8114C35.5532 22.8403 35.596 22.864 35.6483 22.864C35.7006 22.864 35.7434 22.8877 35.7434 22.9166C35.7434 22.9456 35.8076 22.9693 35.886 22.9693C35.9645 22.9693 36.0287 22.9929 36.0287 23.0219C36.0287 23.0508 36.0715 23.0745 36.1238 23.0745C36.1761 23.0745 36.2189 23.0982 36.2189 23.1271C36.2189 23.1561 36.2531 23.1797 36.2949 23.1797C36.3367 23.1797 36.4309 23.2508 36.5042 23.3376C36.5774 23.4244 36.6716 23.4955 36.7134 23.4955C36.7552 23.4955 36.7894 23.5376 36.7894 23.5891C36.7894 23.6406 36.8322 23.7168 36.8845 23.7586C36.9403 23.8031 36.9796 23.8948 36.9796 23.9807C36.9796 24.0611 37.001 24.1269 37.0272 24.1269C37.0549 24.1269 37.0747 24.3023 37.0747 24.5479C37.0747 24.7934 37.0549 24.9688 37.0272 24.9688C37.001 24.9688 36.9796 25.0347 36.9796 25.1151C36.9796 25.2009 36.9403 25.2926 36.8845 25.3372C36.8322 25.3789 36.7894 25.445 36.7894 25.4841C36.7894 25.5757 36.6721 25.7055 36.5894 25.7055C36.554 25.7055 36.4943 25.7529 36.4566 25.8108C36.4189 25.8686 36.35 25.916 36.3035 25.916C36.257 25.916 36.2189 25.9397 36.2189 25.9686C36.2189 25.9976 36.1547 26.0212 36.0762 26.0212C35.9978 26.0212 35.9336 26.0449 35.9336 26.0739C35.9336 26.1028 35.8908 26.1265 35.8385 26.1265C35.7504 26.1265 35.7434 26.1616 35.7434 26.6001V27.0736H35.3155H34.8876V26.6001C34.8876 26.1616 34.8805 26.1265 34.7925 26.1265C34.7402 26.1265 34.6974 26.1028 34.6974 26.0739C34.6974 26.0449 34.6332 26.0212 34.5547 26.0212C34.4763 26.0212 34.4121 25.9976 34.4121 25.9686C34.4121 25.9397 34.3693 25.916 34.317 25.916C34.2647 25.916 34.2219 25.8923 34.2219 25.8634C34.2219 25.8344 34.1838 25.8108 34.1373 25.8108C34.0908 25.8108 34.0219 25.7634 33.9842 25.7055C33.9465 25.6476 33.8873 25.6003 33.8527 25.6003C33.7678 25.6003 33.5563 25.361 33.5563 25.265C33.5563 25.2227 33.5296 25.1743 33.4968 25.1574C33.4493 25.1328 33.4493 25.1205 33.4968 25.096C33.5296 25.0791 33.5563 25.0294 33.5563 24.9856C33.5563 24.9417 33.6205 24.8394 33.6989 24.7584C33.7774 24.6773 33.8416 24.5832 33.8416 24.5493C33.8416 24.461 33.9644 24.3374 34.0521 24.3374C34.0932 24.3374 34.1268 24.3611 34.1268 24.39C34.1268 24.419 34.1649 24.4426 34.2114 24.4426C34.258 24.4426 34.3269 24.49 34.3646 24.5479C34.4023 24.6058 34.4712 24.6531 34.5177 24.6531C34.5642 24.6531 34.6023 24.6768 34.6023 24.7057C34.6023 24.7347 34.6451 24.7584 34.6974 24.7584C34.7497 24.7584 34.7925 24.782 34.7925 24.811C34.7925 24.8414 34.9438 24.8636 35.1512 24.8636C35.4687 24.8636 35.5234 24.8488 35.6267 24.7344C35.6909 24.6634 35.7434 24.556 35.7434 24.4959C35.7434 24.3403 35.441 24.0217 35.2933 24.0217C35.2271 24.0217 35.1729 23.998 35.1729 23.969C35.1729 23.9401 35.1301 23.9164 35.0778 23.9164C35.0255 23.9164 34.9827 23.8928 34.9827 23.8638C34.9827 23.8349 34.9185 23.8112 34.84 23.8112C34.7616 23.8112 34.6974 23.7875 34.6974 23.7586C34.6974 23.7296 34.6546 23.7059 34.6023 23.7059C34.55 23.7059 34.5072 23.6823 34.5072 23.6533C34.5072 23.6244 34.4691 23.6007 34.4226 23.6007C34.3761 23.6007 34.3072 23.5534 34.2695 23.4955C34.2318 23.4376 34.172 23.3902 34.1367 23.3902C34.0539 23.3902 33.9366 23.2604 33.9366 23.1688C33.9366 23.1297 33.8939 23.0636 33.8416 23.0219C33.7893 22.9802 33.7465 22.9039 33.7465 22.8524C33.7465 22.8009 33.7251 22.7588 33.6989 22.7588C33.6707 22.7588 33.6514 22.5658 33.6514 22.2852C33.6514 22.0046 33.6707 21.8116 33.6989 21.8116C33.7251 21.8116 33.7465 21.7643 33.7465 21.7064C33.7465 21.6485 33.7679 21.6011 33.794 21.6011C33.8202 21.6011 33.8416 21.565 33.8416 21.5208C33.8416 21.4766 33.9373 21.3346 34.0543 21.2051C34.1712 21.0756 34.2996 20.9697 34.3396 20.9697C34.3794 20.9697 34.4121 20.946 34.4121 20.9171C34.4121 20.8881 34.4763 20.8645 34.5547 20.8645C34.6332 20.8645 34.6974 20.8408 34.6974 20.8118C34.6974 20.7829 34.7402 20.7592 34.7925 20.7592C34.8809 20.7592 34.8876 20.7241 34.8876 20.2571C34.8876 19.9304 34.9084 19.7289 34.947 19.6803C35.0291 19.5772 35.583 19.5745 35.6755 19.6768ZM31.274 29.652C31.274 29.681 31.1885 29.7046 31.0839 29.7046C30.9793 29.7046 30.8937 29.7283 30.8937 29.7573C30.8937 29.7862 30.8509 29.8099 30.7986 29.8099C30.7463 29.8099 30.7035 29.8336 30.7035 29.8625C30.7035 29.8914 30.6393 29.9151 30.5609 29.9151C30.4824 29.9151 30.4182 29.9388 30.4182 29.9677C30.4182 29.9967 30.3754 30.0204 30.3231 30.0204C30.2708 30.0204 30.228 30.044 30.228 30.073C30.228 30.1019 30.1852 30.1256 30.1329 30.1256C30.0806 30.1256 30.0378 30.1493 30.0378 30.1782C30.0378 30.2072 29.9951 30.2308 29.9427 30.2308C29.8904 30.2308 29.8477 30.2545 29.8477 30.2835C29.8477 30.3124 29.8049 30.3361 29.7526 30.3361C29.7003 30.3361 29.6575 30.3598 29.6575 30.3887C29.6575 30.4176 29.6147 30.4413 29.5624 30.4413C29.5101 30.4413 29.4673 30.465 29.4673 30.4939C29.4673 30.5229 29.4245 30.5466 29.3722 30.5466C29.3199 30.5466 29.2771 30.5702 29.2771 30.5992C29.2771 30.6281 29.2343 30.6518 29.182 30.6518C29.1297 30.6518 29.0869 30.6755 29.0869 30.7044C29.0869 30.7334 29.0441 30.757 28.9918 30.757C28.9395 30.757 28.8967 30.7807 28.8967 30.8097C28.8967 30.8386 28.8325 30.8623 28.7541 30.8623C28.6756 30.8623 28.6115 30.886 28.6115 30.9149C28.6115 30.9438 28.5687 30.9675 28.5164 30.9675C28.4641 30.9675 28.4213 30.9912 28.4213 31.0201C28.4213 31.0491 28.3785 31.0728 28.3262 31.0728C28.2739 31.0728 28.2311 31.0964 28.2311 31.1254C28.2311 31.1543 28.1883 31.178 28.136 31.178C28.0837 31.178 28.0409 31.2017 28.0409 31.2306C28.0409 31.2596 27.9981 31.2832 27.9458 31.2832C27.8935 31.2832 27.8507 31.3069 27.8507 31.3359C27.8507 31.3648 27.8079 31.3885 27.7556 31.3885C27.7033 31.3885 27.6605 31.4122 27.6605 31.4411C27.6605 31.47 27.6177 31.4937 27.5654 31.4937C27.5131 31.4937 27.4703 31.5174 27.4703 31.5463C27.4703 31.5753 27.4275 31.599 27.3752 31.599C27.3229 31.599 27.2802 31.6226 27.2802 31.6516C27.2802 31.6805 27.216 31.7042 27.1375 31.7042C27.0591 31.7042 26.9949 31.7279 26.9949 31.7568C26.9949 31.7858 26.9521 31.8094 26.8998 31.8094C26.8475 31.8094 26.8047 31.8331 26.8047 31.8621C26.8047 31.891 26.7619 31.9147 26.7096 31.9147C26.6573 31.9147 26.6145 31.9384 26.6145 31.9673C26.6145 31.9962 26.5717 32.0199 26.5194 32.0199C26.4671 32.0199 26.4243 32.0436 26.4243 32.0725C26.4243 32.1015 26.3815 32.1252 26.3292 32.1252C26.2769 32.1252 26.2341 32.1488 26.2341 32.1778C26.2341 32.2067 26.1913 32.2304 26.139 32.2304C26.0867 32.2304 26.0439 32.2541 26.0439 32.283C26.0439 32.312 26.0012 32.3356 25.9489 32.3356C25.8966 32.3356 25.8538 32.3593 25.8538 32.3883C25.8538 32.4172 25.811 32.4409 25.7587 32.4409C25.7064 32.4409 25.6636 32.4646 25.6636 32.4935C25.6636 32.5224 25.63 32.5461 25.5889 32.5461C25.4928 32.5461 25.3783 32.6728 25.3783 32.7792C25.3783 32.8246 25.3569 32.8618 25.3307 32.8618C25.3046 32.8618 25.2832 32.9329 25.2832 33.0197C25.2832 33.1065 25.3046 33.1776 25.3307 33.1776C25.3569 33.1776 25.3783 33.2486 25.3783 33.3354C25.3783 33.4222 25.3997 33.4933 25.4258 33.4933C25.452 33.4933 25.4734 33.5406 25.4734 33.5985C25.4734 33.6564 25.4948 33.7038 25.5209 33.7038C25.5471 33.7038 25.5685 33.7748 25.5685 33.8616C25.5685 33.9485 25.5899 34.0195 25.616 34.0195C25.6422 34.0195 25.6636 34.0668 25.6636 34.1247C25.6636 34.1826 25.685 34.23 25.7111 34.23C25.7373 34.23 25.7587 34.301 25.7587 34.3878C25.7587 34.4747 25.7801 34.5457 25.8062 34.5457C25.8324 34.5457 25.8538 34.593 25.8538 34.6509C25.8538 34.7088 25.8752 34.7562 25.9013 34.7562C25.9275 34.7562 25.9489 34.8272 25.9489 34.914C25.9489 35.0009 25.9702 35.0719 25.9964 35.0719C26.0225 35.0719 26.0439 35.1192 26.0439 35.1771C26.0439 35.235 26.0653 35.2824 26.0915 35.2824C26.1176 35.2824 26.139 35.3297 26.139 35.3876C26.139 35.4455 26.1604 35.4928 26.1866 35.4928C26.2127 35.4928 26.2341 35.5639 26.2341 35.6507C26.2341 35.7375 26.2555 35.8086 26.2817 35.8086C26.3078 35.8086 26.3292 35.8559 26.3292 35.9138C26.3292 35.9717 26.3506 36.0191 26.3768 36.0191C26.4029 36.0191 26.4243 36.0901 26.4243 36.1769C26.4243 36.2637 26.4457 36.3348 26.4719 36.3348C26.498 36.3348 26.5194 36.3821 26.5194 36.44C26.5194 36.4979 26.5408 36.5453 26.567 36.5453C26.5931 36.5453 26.6145 36.6163 26.6145 36.7031C26.6145 36.7899 26.6359 36.861 26.662 36.861C26.6882 36.861 26.7096 36.9083 26.7096 36.9662C26.7096 37.0241 26.731 37.0715 26.7571 37.0715C26.7833 37.0715 26.8047 37.1188 26.8047 37.1767C26.8047 37.2346 26.8261 37.2819 26.8522 37.2819C26.8784 37.2819 26.8998 37.353 26.8998 37.4398C26.8998 37.5266 26.9212 37.5977 26.9473 37.5977C26.9735 37.5977 26.9949 37.645 26.9949 37.7029C26.9949 37.7608 27.0163 37.8081 27.0424 37.8081C27.0686 37.8081 27.09 37.8555 27.09 37.9134C27.09 37.9713 27.1114 38.0186 27.1375 38.0186C27.1637 38.0186 27.1851 38.0897 27.1851 38.1765C27.1851 38.2633 27.2065 38.3343 27.2326 38.3343C27.2588 38.3343 27.2802 38.3709 27.2802 38.4156C27.2802 38.4604 27.3327 38.5551 27.3969 38.6261C27.4866 38.7254 27.5636 38.7553 27.7297 38.7553C27.8486 38.7553 27.9458 38.7316 27.9458 38.7027C27.9458 38.6737 28.01 38.6501 28.0884 38.6501C28.1669 38.6501 28.2311 38.6264 28.2311 38.5974C28.2311 38.5685 28.2739 38.5448 28.3262 38.5448C28.3785 38.5448 28.4213 38.5211 28.4213 38.4922C28.4213 38.4633 28.4641 38.4396 28.5164 38.4396C28.5687 38.4396 28.6115 38.4159 28.6115 38.387C28.6115 38.358 28.6542 38.3343 28.7065 38.3343C28.7588 38.3343 28.8016 38.3107 28.8016 38.2817C28.8016 38.2528 28.8444 38.2291 28.8967 38.2291C28.949 38.2291 28.9918 38.2054 28.9918 38.1765C28.9918 38.1475 29.0346 38.1239 29.0869 38.1239C29.1392 38.1239 29.182 38.1002 29.182 38.0712C29.182 38.0423 29.2248 38.0186 29.2771 38.0186C29.3294 38.0186 29.3722 37.9949 29.3722 37.966C29.3722 37.9371 29.415 37.9134 29.4673 37.9134C29.5196 37.9134 29.5624 37.8897 29.5624 37.8608C29.5624 37.8318 29.6052 37.8081 29.6575 37.8081C29.7098 37.8081 29.7526 37.7845 29.7526 37.7555C29.7526 37.7266 29.7954 37.7029 29.8477 37.7029C29.9 37.7029 29.9427 37.6792 29.9427 37.6503C29.9427 37.6213 29.9855 37.5977 30.0378 37.5977C30.0901 37.5977 30.1329 37.574 30.1329 37.545C30.1329 37.5161 30.1757 37.4924 30.228 37.4924C30.2803 37.4924 30.3231 37.4687 30.3231 37.4398C30.3231 37.4109 30.3659 37.3872 30.4182 37.3872C30.4705 37.3872 30.5133 37.3635 30.5133 37.3346C30.5133 37.3056 30.5561 37.2819 30.6084 37.2819C30.6607 37.2819 30.7035 37.2583 30.7035 37.2293C30.7035 37.2004 30.7463 37.1767 30.7986 37.1767C30.8509 37.1767 30.8937 37.153 30.8937 37.1241C30.8937 37.0925 31.0839 37.0715 31.3691 37.0715C31.6544 37.0715 31.8446 37.0925 31.8446 37.1241C31.8446 37.153 31.9302 37.1767 32.0348 37.1767C32.1394 37.1767 32.225 37.2004 32.225 37.2293C32.225 37.2583 32.2892 37.2819 32.3676 37.2819C32.4461 37.2819 32.5103 37.3056 32.5103 37.3346C32.5103 37.3635 32.5958 37.3872 32.7004 37.3872C32.805 37.3872 32.8906 37.4109 32.8906 37.4398C32.8906 37.4687 32.9548 37.4924 33.0333 37.4924C33.1117 37.4924 33.1759 37.5161 33.1759 37.545C33.1759 37.574 33.2615 37.5977 33.3661 37.5977C33.4707 37.5977 33.5563 37.6213 33.5563 37.6503C33.5563 37.6792 33.6205 37.7029 33.6989 37.7029C33.7774 37.7029 33.8416 37.7266 33.8416 37.7555C33.8416 37.7845 33.9271 37.8081 34.0317 37.8081C34.1363 37.8081 34.2219 37.8318 34.2219 37.8608C34.2219 37.8897 34.2861 37.9134 34.3646 37.9134C34.443 37.9134 34.5072 37.9371 34.5072 37.966C34.5072 37.9949 34.5714 38.0186 34.6498 38.0186C34.7283 38.0186 34.7925 38.0423 34.7925 38.0712C34.7925 38.1041 35.0778 38.1239 35.5532 38.1239C36.0287 38.1239 36.314 38.1041 36.314 38.0712C36.314 38.0423 36.3995 38.0186 36.5042 38.0186C36.6088 38.0186 36.6943 37.9949 36.6943 37.966C36.6943 37.9371 36.7799 37.9134 36.8845 37.9134C36.9891 37.9134 37.0747 37.8897 37.0747 37.8608C37.0747 37.8318 37.1175 37.8081 37.1698 37.8081C37.2221 37.8081 37.2649 37.7845 37.2649 37.7555C37.2649 37.7266 37.3291 37.7029 37.4075 37.7029C37.486 37.7029 37.5502 37.6792 37.5502 37.6503C37.5502 37.6213 37.6144 37.5977 37.6928 37.5977C37.7713 37.5977 37.8355 37.574 37.8355 37.545C37.8355 37.5161 37.8996 37.4924 37.9781 37.4924C38.0565 37.4924 38.1207 37.4687 38.1207 37.4398C38.1207 37.4109 38.1635 37.3872 38.2158 37.3872C38.2681 37.3872 38.3109 37.3635 38.3109 37.3346C38.3109 37.3056 38.3751 37.2819 38.4536 37.2819C38.532 37.2819 38.5962 37.2583 38.5962 37.2293C38.5962 37.2004 38.639 37.1767 38.6913 37.1767C38.7436 37.1767 38.7864 37.153 38.7864 37.1241C38.7864 37.0951 38.8506 37.0715 38.929 37.0715C39.0075 37.0715 39.0717 37.0478 39.0717 37.0188C39.0717 36.9899 39.1358 36.9662 39.2143 36.9662C39.2927 36.9662 39.3569 36.9425 39.3569 36.9136C39.3569 36.8847 39.3997 36.861 39.452 36.861C39.5043 36.861 39.5471 36.8373 39.5471 36.8084C39.5471 36.7794 39.6113 36.7557 39.6898 36.7557C39.7682 36.7557 39.8324 36.7321 39.8324 36.7031C39.8324 36.6742 39.8966 36.6505 39.975 36.6505C40.0535 36.6505 40.1177 36.6268 40.1177 36.5979C40.1177 36.5689 40.1605 36.5453 40.2128 36.5453C40.2651 36.5453 40.3079 36.5216 40.3079 36.4926C40.3079 36.4637 40.3721 36.44 40.4505 36.44C40.529 36.44 40.5931 36.4163 40.5931 36.3874C40.5931 36.3584 40.6573 36.3348 40.7358 36.3348C40.8142 36.3348 40.8784 36.3111 40.8784 36.2822C40.8784 36.2532 40.9212 36.2295 40.9735 36.2295C41.0258 36.2295 41.0686 36.2059 41.0686 36.1769C41.0686 36.148 41.1114 36.1243 41.1637 36.1243C41.216 36.1243 41.2588 36.1006 41.2588 36.0717C41.2588 36.0427 41.323 36.0191 41.4014 36.0191C41.4799 36.0191 41.5441 35.9954 41.5441 35.9664C41.5441 35.9375 41.5869 35.9138 41.6392 35.9138C41.6915 35.9138 41.7343 35.8901 41.7343 35.8612C41.7343 35.8322 41.7984 35.8086 41.8769 35.8086C41.9553 35.8086 42.0195 35.7849 42.0195 35.7559C42.0195 35.727 42.0837 35.7033 42.1622 35.7033C42.2406 35.7033 42.3048 35.6797 42.3048 35.6507C42.3048 35.6218 42.3476 35.5981 42.3999 35.5981C42.4522 35.5981 42.495 35.5744 42.495 35.5455C42.495 35.5165 42.5592 35.4928 42.6376 35.4928C42.7161 35.4928 42.7803 35.4692 42.7803 35.4402C42.7803 35.4113 42.8231 35.3876 42.8754 35.3876C42.9277 35.3876 42.9705 35.3639 42.9705 35.335C42.9705 35.306 43.0346 35.2824 43.1131 35.2824C43.1916 35.2824 43.2557 35.2587 43.2557 35.2297C43.2557 35.2008 43.3199 35.1771 43.3984 35.1771C43.4768 35.1771 43.541 35.1535 43.541 35.1245C43.541 35.0956 43.5838 35.0719 43.6361 35.0719C43.6884 35.0719 43.7312 35.0482 43.7312 35.0193C43.7312 34.9903 43.7954 34.9666 43.8738 34.9666C43.9523 34.9666 44.0165 34.943 44.0165 34.914C44.0165 34.8851 44.0546 34.8614 44.1011 34.8614C44.1476 34.8614 44.2165 34.8141 44.2542 34.7562C44.2919 34.6983 44.3508 34.6509 44.3852 34.6509C44.4663 34.6509 44.7772 34.3068 44.7772 34.217C44.7772 34.179 44.82 34.1138 44.8723 34.0721C44.9246 34.0304 44.9674 33.9541 44.9674 33.9026C44.9674 33.8512 44.9888 33.809 45.015 33.809C45.0411 33.809 45.0625 33.7616 45.0625 33.7038C45.0625 33.6459 45.0839 33.5985 45.11 33.5985C45.1362 33.5985 45.1576 33.5512 45.1576 33.4933C45.1576 33.4354 45.179 33.388 45.2051 33.388C45.2344 33.388 45.2527 33.1249 45.2527 32.704C45.2527 32.283 45.2344 32.0199 45.2051 32.0199C45.179 32.0199 45.1576 31.9726 45.1576 31.9147C45.1576 31.8568 45.1362 31.8094 45.11 31.8094C45.0839 31.8094 45.0625 31.7733 45.0625 31.7291C45.0625 31.6247 44.6589 31.178 44.5645 31.178C44.5246 31.178 44.4919 31.1543 44.4919 31.1254C44.4919 31.0964 44.4492 31.0728 44.3969 31.0728C44.3446 31.0728 44.3018 31.0491 44.3018 31.0201C44.3018 30.9912 44.2376 30.9675 44.1591 30.9675C44.0807 30.9675 44.0165 30.9438 44.0165 30.9149C44.0165 30.882 43.7312 30.8623 43.2557 30.8623C42.7803 30.8623 42.495 30.882 42.495 30.9149C42.495 30.9438 42.388 30.9675 42.2573 30.9675C42.1265 30.9675 42.0195 30.9912 42.0195 31.0201C42.0195 31.0491 41.9553 31.0728 41.8769 31.0728C41.7984 31.0728 41.7343 31.0964 41.7343 31.1254C41.7343 31.1543 41.6487 31.178 41.5441 31.178C41.4395 31.178 41.3539 31.2017 41.3539 31.2306C41.3539 31.2596 41.2897 31.2832 41.2112 31.2832C41.1328 31.2832 41.0686 31.3069 41.0686 31.3359C41.0686 31.3648 41.0044 31.3885 40.926 31.3885C40.8475 31.3885 40.7833 31.4122 40.7833 31.4411C40.7833 31.47 40.6977 31.4937 40.5931 31.4937C40.4885 31.4937 40.403 31.5174 40.403 31.5463C40.403 31.5753 40.3388 31.599 40.2603 31.599C40.1819 31.599 40.1177 31.6226 40.1177 31.6516C40.1177 31.6805 40.0321 31.7042 39.9275 31.7042C39.8229 31.7042 39.7373 31.7279 39.7373 31.7568C39.7373 31.7858 39.6731 31.8094 39.5947 31.8094C39.5162 31.8094 39.452 31.8331 39.452 31.8621C39.452 31.891 39.3664 31.9147 39.2618 31.9147C39.1572 31.9147 39.0717 31.9384 39.0717 31.9673C39.0717 31.9962 39.0075 32.0199 38.929 32.0199C38.8506 32.0199 38.7864 32.0436 38.7864 32.0725C38.7864 32.1015 38.7222 32.1252 38.6437 32.1252C38.5653 32.1252 38.5011 32.1488 38.5011 32.1778C38.5011 32.2067 38.4464 32.2304 38.3796 32.2304C38.2939 32.2304 38.1755 32.1374 37.9781 31.9147C37.8241 31.741 37.6648 31.599 37.6241 31.599C37.5835 31.599 37.5502 31.5753 37.5502 31.5463C37.5502 31.5174 37.5074 31.4937 37.4551 31.4937C37.4028 31.4937 37.36 31.47 37.36 31.4411C37.36 31.4122 37.2744 31.3885 37.1698 31.3885C37.0652 31.3885 36.9796 31.3648 36.9796 31.3359C36.9796 31.3069 36.9154 31.2832 36.837 31.2832C36.7585 31.2832 36.6943 31.2596 36.6943 31.2306C36.6943 31.2017 36.6088 31.178 36.5042 31.178C36.3995 31.178 36.314 31.1543 36.314 31.1254C36.314 31.0964 36.2284 31.0728 36.1238 31.0728C36.0192 31.0728 35.9336 31.0491 35.9336 31.0201C35.9336 30.9912 35.848 30.9675 35.7434 30.9675C35.6388 30.9675 35.5532 30.9438 35.5532 30.9149C35.5532 30.886 35.489 30.8623 35.4106 30.8623C35.3321 30.8623 35.2679 30.8386 35.2679 30.8097C35.2679 30.7807 35.1824 30.757 35.0778 30.757C34.9732 30.757 34.8876 30.7334 34.8876 30.7044C34.8876 30.6755 34.802 30.6518 34.6974 30.6518C34.5928 30.6518 34.5072 30.6281 34.5072 30.5992C34.5072 30.5702 34.4691 30.5466 34.4226 30.5466C34.3761 30.5466 34.3072 30.4992 34.2695 30.4413C34.2318 30.3834 34.1676 30.3361 34.1268 30.3361C34.0861 30.3361 34.0219 30.2887 33.9842 30.2308C33.9465 30.173 33.8776 30.1256 33.831 30.1256C33.7845 30.1256 33.7465 30.1019 33.7465 30.073C33.7465 30.044 33.7037 30.0204 33.6514 30.0204C33.5991 30.0204 33.5563 29.9967 33.5563 29.9677C33.5563 29.9388 33.5135 29.9151 33.4612 29.9151C33.4089 29.9151 33.3661 29.8914 33.3661 29.8625C33.3661 29.8336 33.3019 29.8099 33.2235 29.8099C33.145 29.8099 33.0808 29.7862 33.0808 29.7573C33.0808 29.7283 33.0166 29.7046 32.9382 29.7046C32.8597 29.7046 32.7955 29.681 32.7955 29.652C32.7955 29.6191 32.5103 29.5994 32.0348 29.5994C31.5593 29.5994 31.274 29.6191 31.274 29.652ZM32.3201 30.7044C32.3201 30.7334 32.4057 30.757 32.5103 30.757C32.6149 30.757 32.7004 30.7807 32.7004 30.8097C32.7004 30.8386 32.7646 30.8623 32.8431 30.8623C32.9215 30.8623 32.9857 30.886 32.9857 30.9149C32.9857 30.9438 33.0285 30.9675 33.0808 30.9675C33.1331 30.9675 33.1759 30.9912 33.1759 31.0201C33.1759 31.0491 33.2187 31.0728 33.271 31.0728C33.3233 31.0728 33.3661 31.0964 33.3661 31.1254C33.3661 31.1543 33.4042 31.178 33.4507 31.178C33.4972 31.178 33.5661 31.2254 33.6038 31.2832C33.6415 31.3411 33.7057 31.3885 33.7465 31.3885C33.7872 31.3885 33.8514 31.4358 33.8891 31.4937C33.9268 31.5516 33.9957 31.599 34.0422 31.599C34.0887 31.599 34.1268 31.6226 34.1268 31.6516C34.1268 31.6805 34.191 31.7042 34.2695 31.7042C34.3479 31.7042 34.4121 31.7279 34.4121 31.7568C34.4121 31.7858 34.4977 31.8094 34.6023 31.8094C34.7069 31.8094 34.7925 31.8331 34.7925 31.8621C34.7925 31.891 34.8781 31.9147 34.9827 31.9147C35.0873 31.9147 35.1729 31.9384 35.1729 31.9673C35.1729 31.9962 35.2584 32.0199 35.363 32.0199C35.4676 32.0199 35.5532 32.0436 35.5532 32.0725C35.5532 32.1015 35.6388 32.1252 35.7434 32.1252C35.848 32.1252 35.9336 32.1488 35.9336 32.1778C35.9336 32.2067 35.9978 32.2304 36.0762 32.2304C36.1547 32.2304 36.2189 32.2541 36.2189 32.283C36.2189 32.312 36.3045 32.3356 36.4091 32.3356C36.5137 32.3356 36.5992 32.3593 36.5992 32.3883C36.5992 32.4172 36.6848 32.4409 36.7894 32.4409C36.894 32.4409 36.9796 32.4646 36.9796 32.4935C36.9796 32.5224 37.0127 32.5461 37.0531 32.5461C37.1482 32.5461 37.36 32.7805 37.36 32.8858C37.36 32.9305 37.3814 32.9671 37.4075 32.9671C37.4344 32.9671 37.4551 33.1166 37.4551 33.3105C37.4551 33.647 37.4508 33.6586 37.2424 33.8893L37.0297 34.1247H36.6243C36.3857 34.1247 36.2189 34.103 36.2189 34.0721C36.2189 34.0432 36.1547 34.0195 36.0762 34.0195C35.9978 34.0195 35.9336 33.9958 35.9336 33.9669C35.9336 33.9379 35.848 33.9142 35.7434 33.9142C35.6388 33.9142 35.5532 33.8906 35.5532 33.8616C35.5532 33.8327 35.4676 33.809 35.363 33.809C35.2584 33.809 35.1729 33.7853 35.1729 33.7564C35.1729 33.7274 35.0873 33.7038 34.9827 33.7038C34.8781 33.7038 34.7925 33.6801 34.7925 33.6511C34.7925 33.6222 34.7283 33.5985 34.6498 33.5985C34.5714 33.5985 34.5072 33.5748 34.5072 33.5459C34.5072 33.517 34.4216 33.4933 34.317 33.4933C34.2124 33.4933 34.1268 33.4696 34.1268 33.4407C34.1268 33.4117 34.0412 33.388 33.9366 33.388C33.832 33.388 33.7465 33.3644 33.7465 33.3354C33.7465 33.3065 33.6609 33.2828 33.5563 33.2828C33.4517 33.2828 33.3661 33.2591 33.3661 33.2302C33.3661 33.2012 33.2805 33.1776 33.1759 33.1776C33.0713 33.1776 32.9857 33.1539 32.9857 33.1249C32.9857 33.096 32.8671 33.0723 32.7221 33.0723C32.3609 33.0723 32.225 33.2162 32.225 33.5985C32.225 33.8128 32.2483 33.8923 32.3417 33.9955C32.4059 34.0666 32.4915 34.1247 32.5319 34.1247C32.5723 34.1247 32.6053 34.1484 32.6053 34.1773C32.6053 34.2063 32.6909 34.23 32.7955 34.23C32.9001 34.23 32.9857 34.2536 32.9857 34.2826C32.9857 34.3115 33.0713 34.3352 33.1759 34.3352C33.2805 34.3352 33.3661 34.3589 33.3661 34.3878C33.3661 34.4168 33.4517 34.4404 33.5563 34.4404C33.6609 34.4404 33.7465 34.4641 33.7465 34.4931C33.7465 34.522 33.8106 34.5457 33.8891 34.5457C33.9676 34.5457 34.0317 34.5694 34.0317 34.5983C34.0317 34.6272 34.1173 34.6509 34.2219 34.6509C34.3265 34.6509 34.4121 34.6746 34.4121 34.7035C34.4121 34.7325 34.4977 34.7562 34.6023 34.7562C34.7069 34.7562 34.7925 34.7798 34.7925 34.8088C34.7925 34.8377 34.8567 34.8614 34.9351 34.8614C35.0136 34.8614 35.0778 34.8851 35.0778 34.914C35.0778 34.943 35.1633 34.9666 35.2679 34.9666C35.3725 34.9666 35.4581 34.9903 35.4581 35.0193C35.4581 35.0482 35.5437 35.0719 35.6483 35.0719C35.7529 35.0719 35.8385 35.0956 35.8385 35.1245C35.8385 35.1535 35.9241 35.1771 36.0287 35.1771C36.1333 35.1771 36.2189 35.2008 36.2189 35.2297C36.2189 35.2613 36.4091 35.2824 36.6943 35.2824C36.9796 35.2824 37.1698 35.2613 37.1698 35.2297C37.1698 35.2008 37.234 35.1771 37.3124 35.1771C37.3909 35.1771 37.4551 35.1535 37.4551 35.1245C37.4551 35.0956 37.4893 35.0719 37.5311 35.0719C37.5729 35.0719 37.6671 35.0009 37.7404 34.914C37.8136 34.8272 37.8986 34.7562 37.9293 34.7562C38.0048 34.7562 38.1207 34.6221 38.1207 34.5347C38.1207 34.4956 38.1635 34.4296 38.2158 34.3878C38.2681 34.3461 38.3109 34.2699 38.3109 34.2183C38.3109 34.1669 38.3323 34.1247 38.3585 34.1247C38.3846 34.1247 38.406 34.0537 38.406 33.9669C38.406 33.88 38.4274 33.809 38.4536 33.809C38.4797 33.809 38.5011 33.6906 38.5011 33.5459C38.5011 33.2886 38.5043 33.2828 38.6437 33.2828C38.7222 33.2828 38.7864 33.2591 38.7864 33.2302C38.7864 33.2012 38.872 33.1776 38.9766 33.1776C39.0812 33.1776 39.1667 33.1539 39.1667 33.1249C39.1667 33.096 39.2309 33.0723 39.3094 33.0723C39.3878 33.0723 39.452 33.0486 39.452 33.0197C39.452 32.9908 39.5376 32.9671 39.6422 32.9671C39.7468 32.9671 39.8324 32.9434 39.8324 32.9145C39.8324 32.8855 39.8966 32.8618 39.975 32.8618C40.0535 32.8618 40.1177 32.8382 40.1177 32.8092C40.1177 32.7803 40.2033 32.7566 40.3079 32.7566C40.4125 32.7566 40.498 32.7329 40.498 32.704C40.498 32.675 40.5622 32.6514 40.6407 32.6514C40.7191 32.6514 40.7833 32.6277 40.7833 32.5987C40.7833 32.5698 40.8689 32.5461 40.9735 32.5461C41.0781 32.5461 41.1637 32.5224 41.1637 32.4935C41.1637 32.4646 41.2279 32.4409 41.3063 32.4409C41.3848 32.4409 41.449 32.4172 41.449 32.3883C41.449 32.3593 41.5132 32.3356 41.5916 32.3356C41.6701 32.3356 41.7343 32.312 41.7343 32.283C41.7343 32.2541 41.8198 32.2304 41.9244 32.2304C42.029 32.2304 42.1146 32.2067 42.1146 32.1778C42.1146 32.1488 42.2002 32.1252 42.3048 32.1252C42.4094 32.1252 42.495 32.1015 42.495 32.0725C42.495 32.0436 42.602 32.0199 42.7327 32.0199C42.8635 32.0199 42.9705 31.9962 42.9705 31.9673C42.9705 31.9373 43.1131 31.9147 43.3033 31.9147C43.4935 31.9147 43.6361 31.9373 43.6361 31.9673C43.6361 31.9962 43.7003 32.0199 43.7787 32.0199C43.8572 32.0199 43.9214 32.0436 43.9214 32.0725C43.9214 32.1015 43.955 32.1252 43.9961 32.1252C44.0922 32.1252 44.2067 32.2519 44.2067 32.3582C44.2067 32.4037 44.2281 32.4409 44.2542 32.4409C44.2804 32.4409 44.3018 32.5356 44.3018 32.6514C44.3018 32.7671 44.2804 32.8618 44.2542 32.8618C44.2281 32.8618 44.2067 32.9329 44.2067 33.0197C44.2067 33.1065 44.1853 33.1776 44.1591 33.1776C44.133 33.1776 44.1116 33.2249 44.1116 33.2828C44.1116 33.3407 44.0902 33.388 44.064 33.388C44.0379 33.388 44.0165 33.4252 44.0165 33.4707C44.0165 33.5722 43.9035 33.7038 43.8164 33.7038C43.7811 33.7038 43.7214 33.7511 43.6837 33.809C43.6434 33.8708 43.5606 33.9142 43.483 33.9142C43.4103 33.9142 43.3508 33.9379 43.3508 33.9669C43.3508 33.9958 43.308 34.0195 43.2557 34.0195C43.2034 34.0195 43.1606 34.0432 43.1606 34.0721C43.1606 34.101 43.0965 34.1247 43.018 34.1247C42.9396 34.1247 42.8754 34.1484 42.8754 34.1773C42.8754 34.2063 42.8112 34.23 42.7327 34.23C42.6543 34.23 42.5901 34.2536 42.5901 34.2826C42.5901 34.3115 42.5473 34.3352 42.495 34.3352C42.4427 34.3352 42.3999 34.3589 42.3999 34.3878C42.3999 34.4168 42.3357 34.4404 42.2573 34.4404C42.1788 34.4404 42.1146 34.4641 42.1146 34.4931C42.1146 34.522 42.0718 34.5457 42.0195 34.5457C41.9672 34.5457 41.9244 34.5694 41.9244 34.5983C41.9244 34.6272 41.8603 34.6509 41.7818 34.6509C41.7033 34.6509 41.6392 34.6746 41.6392 34.7035C41.6392 34.7325 41.5964 34.7562 41.5441 34.7562C41.4918 34.7562 41.449 34.7798 41.449 34.8088C41.449 34.8377 41.3848 34.8614 41.3063 34.8614C41.2279 34.8614 41.1637 34.8851 41.1637 34.914C41.1637 34.943 41.1209 34.9666 41.0686 34.9666C41.0163 34.9666 40.9735 34.9903 40.9735 35.0193C40.9735 35.0482 40.9093 35.0719 40.8309 35.0719C40.7524 35.0719 40.6882 35.0956 40.6882 35.1245C40.6882 35.1535 40.624 35.1771 40.5456 35.1771C40.4671 35.1771 40.403 35.2008 40.403 35.2297C40.403 35.2587 40.3602 35.2824 40.3079 35.2824C40.2556 35.2824 40.2128 35.306 40.2128 35.335C40.2128 35.3639 40.1486 35.3876 40.0701 35.3876C39.9917 35.3876 39.9275 35.4113 39.9275 35.4402C39.9275 35.4692 39.8847 35.4928 39.8324 35.4928C39.7801 35.4928 39.7373 35.5165 39.7373 35.5455C39.7373 35.5744 39.6731 35.5981 39.5947 35.5981C39.5162 35.5981 39.452 35.6218 39.452 35.6507C39.452 35.6797 39.3878 35.7033 39.3094 35.7033C39.2309 35.7033 39.1667 35.727 39.1667 35.7559C39.1667 35.7849 39.124 35.8086 39.0717 35.8086C39.0194 35.8086 38.9766 35.8322 38.9766 35.8612C38.9766 35.8901 38.9124 35.9138 38.8339 35.9138C38.7555 35.9138 38.6913 35.9375 38.6913 35.9664C38.6913 35.9954 38.6271 36.0191 38.5486 36.0191C38.4702 36.0191 38.406 36.0427 38.406 36.0717C38.406 36.1006 38.3632 36.1243 38.3109 36.1243C38.2586 36.1243 38.2158 36.148 38.2158 36.1769C38.2158 36.2059 38.1516 36.2295 38.0732 36.2295C37.9947 36.2295 37.9305 36.2532 37.9305 36.2822C37.9305 36.3111 37.8878 36.3348 37.8355 36.3348C37.7831 36.3348 37.7404 36.3584 37.7404 36.3874C37.7404 36.4163 37.6762 36.44 37.5977 36.44C37.5193 36.44 37.4551 36.4637 37.4551 36.4926C37.4551 36.5216 37.3909 36.5453 37.3124 36.5453C37.234 36.5453 37.1698 36.5689 37.1698 36.5979C37.1698 36.6268 37.127 36.6505 37.0747 36.6505C37.0224 36.6505 36.9796 36.6742 36.9796 36.7031C36.9796 36.7321 36.9154 36.7557 36.837 36.7557C36.7585 36.7557 36.6943 36.7794 36.6943 36.8084C36.6943 36.8373 36.6088 36.861 36.5042 36.861C36.3995 36.861 36.314 36.8847 36.314 36.9136C36.314 36.9425 36.207 36.9662 36.0762 36.9662C35.9455 36.9662 35.8385 36.9899 35.8385 37.0188C35.8385 37.0478 35.7315 37.0715 35.6008 37.0715C35.47 37.0715 35.363 37.0478 35.363 37.0188C35.363 36.9899 35.2561 36.9662 35.1253 36.9662C34.9946 36.9662 34.8876 36.9425 34.8876 36.9136C34.8876 36.8847 34.8234 36.861 34.7449 36.861C34.6665 36.861 34.6023 36.8373 34.6023 36.8084C34.6023 36.7794 34.5167 36.7557 34.4121 36.7557C34.3075 36.7557 34.2219 36.7321 34.2219 36.7031C34.2219 36.6742 34.1577 36.6505 34.0793 36.6505C34.0008 36.6505 33.9366 36.6268 33.9366 36.5979C33.9366 36.5689 33.8511 36.5453 33.7465 36.5453C33.6419 36.5453 33.5563 36.5216 33.5563 36.4926C33.5563 36.4637 33.4921 36.44 33.4136 36.44C33.3352 36.44 33.271 36.4163 33.271 36.3874C33.271 36.3584 33.2068 36.3348 33.1284 36.3348C33.0499 36.3348 32.9857 36.3111 32.9857 36.2822C32.9857 36.2532 32.9001 36.2295 32.7955 36.2295C32.6909 36.2295 32.6053 36.2059 32.6053 36.1769C32.6053 36.148 32.5412 36.1243 32.4627 36.1243C32.3843 36.1243 32.3201 36.1006 32.3201 36.0717C32.3201 36.0427 32.2345 36.0191 32.1299 36.0191C32.0253 36.0191 31.9397 35.9954 31.9397 35.9664C31.9397 35.9343 31.7178 35.9138 31.3691 35.9138C31.0205 35.9138 30.7986 35.9343 30.7986 35.9664C30.7986 35.9954 30.7344 36.0191 30.6559 36.0191C30.5775 36.0191 30.5133 36.0427 30.5133 36.0717C30.5133 36.1006 30.4705 36.1243 30.4182 36.1243C30.3659 36.1243 30.3231 36.148 30.3231 36.1769C30.3231 36.2059 30.2803 36.2295 30.228 36.2295C30.1757 36.2295 30.1329 36.2532 30.1329 36.2822C30.1329 36.3111 30.0901 36.3348 30.0378 36.3348C29.9855 36.3348 29.9427 36.3584 29.9427 36.3874C29.9427 36.4163 29.9 36.44 29.8477 36.44C29.7954 36.44 29.7526 36.4637 29.7526 36.4926C29.7526 36.5216 29.7098 36.5453 29.6575 36.5453C29.6052 36.5453 29.5624 36.5689 29.5624 36.5979C29.5624 36.6268 29.5196 36.6505 29.4673 36.6505C29.415 36.6505 29.3722 36.6742 29.3722 36.7031C29.3722 36.7321 29.3294 36.7557 29.2771 36.7557C29.2248 36.7557 29.182 36.7794 29.182 36.8084C29.182 36.8373 29.1392 36.861 29.0869 36.861C29.0346 36.861 28.9918 36.8847 28.9918 36.9136C28.9918 36.9425 28.949 36.9662 28.8967 36.9662C28.8444 36.9662 28.8016 36.9899 28.8016 37.0188C28.8016 37.0478 28.7588 37.0715 28.7065 37.0715C28.6542 37.0715 28.6115 37.0951 28.6115 37.1241C28.6115 37.153 28.5687 37.1767 28.5164 37.1767C28.4641 37.1767 28.4213 37.2004 28.4213 37.2293C28.4213 37.2583 28.3785 37.2819 28.3262 37.2819C28.2739 37.2819 28.2311 37.3056 28.2311 37.3346C28.2311 37.3635 28.1669 37.3872 28.0884 37.3872C27.9775 37.3872 27.9458 37.3638 27.9458 37.2819C27.9458 37.2241 27.9244 37.1767 27.8983 37.1767C27.8721 37.1767 27.8507 37.1057 27.8507 37.0188C27.8507 36.932 27.8293 36.861 27.8032 36.861C27.777 36.861 27.7556 36.8136 27.7556 36.7557C27.7556 36.6978 27.7342 36.6505 27.7081 36.6505C27.6819 36.6505 27.6605 36.5795 27.6605 36.4926C27.6605 36.4058 27.6391 36.3348 27.613 36.3348C27.5868 36.3348 27.5654 36.2874 27.5654 36.2295C27.5654 36.1716 27.544 36.1243 27.5179 36.1243C27.4917 36.1243 27.4703 36.0769 27.4703 36.0191C27.4703 35.9612 27.4489 35.9138 27.4228 35.9138C27.3966 35.9138 27.3752 35.8428 27.3752 35.7559C27.3752 35.6691 27.3538 35.5981 27.3277 35.5981C27.3015 35.5981 27.2802 35.5507 27.2802 35.4928C27.2802 35.435 27.2588 35.3876 27.2326 35.3876C27.2065 35.3876 27.1851 35.3166 27.1851 35.2297C27.1851 35.1429 27.1637 35.0719 27.1375 35.0719C27.1114 35.0719 27.09 35.0245 27.09 34.9666C27.09 34.9088 27.0686 34.8614 27.0424 34.8614C27.0163 34.8614 26.9949 34.8141 26.9949 34.7562C26.9949 34.6983 26.9735 34.6509 26.9473 34.6509C26.9212 34.6509 26.8998 34.5799 26.8998 34.4931C26.8998 34.4062 26.8784 34.3352 26.8522 34.3352C26.8261 34.3352 26.8047 34.2878 26.8047 34.23C26.8047 34.1721 26.7833 34.1247 26.7571 34.1247C26.731 34.1247 26.7096 34.0537 26.7096 33.9669C26.7096 33.88 26.6882 33.809 26.662 33.809C26.6359 33.809 26.6145 33.7616 26.6145 33.7038C26.6145 33.6459 26.5931 33.5985 26.567 33.5985C26.4948 33.5985 26.5101 33.3382 26.5874 33.2528C26.6247 33.2114 26.6889 33.1776 26.73 33.1776C26.7711 33.1776 26.8047 33.1539 26.8047 33.1249C26.8047 33.096 26.8475 33.0723 26.8998 33.0723C26.9521 33.0723 26.9949 33.0486 26.9949 33.0197C26.9949 32.9908 27.0377 32.9671 27.09 32.9671C27.1423 32.9671 27.1851 32.9434 27.1851 32.9145C27.1851 32.8855 27.2279 32.8618 27.2802 32.8618C27.3325 32.8618 27.3752 32.8382 27.3752 32.8092C27.3752 32.7803 27.4394 32.7566 27.5179 32.7566C27.5963 32.7566 27.6605 32.7329 27.6605 32.704C27.6605 32.675 27.7033 32.6514 27.7556 32.6514C27.8079 32.6514 27.8507 32.6277 27.8507 32.5987C27.8507 32.5698 27.8935 32.5461 27.9458 32.5461C27.9981 32.5461 28.0409 32.5224 28.0409 32.4935C28.0409 32.4646 28.0837 32.4409 28.136 32.4409C28.1883 32.4409 28.2311 32.4172 28.2311 32.3883C28.2311 32.3593 28.2739 32.3356 28.3262 32.3356C28.3785 32.3356 28.4213 32.312 28.4213 32.283C28.4213 32.2541 28.4641 32.2304 28.5164 32.2304C28.5687 32.2304 28.6115 32.2067 28.6115 32.1778C28.6115 32.1488 28.6542 32.1252 28.7065 32.1252C28.7588 32.1252 28.8016 32.1015 28.8016 32.0725C28.8016 32.0436 28.8444 32.0199 28.8967 32.0199C28.949 32.0199 28.9918 31.9962 28.9918 31.9673C28.9918 31.9384 29.056 31.9147 29.1345 31.9147C29.2129 31.9147 29.2771 31.891 29.2771 31.8621C29.2771 31.8331 29.3199 31.8094 29.3722 31.8094C29.4245 31.8094 29.4673 31.7858 29.4673 31.7568C29.4673 31.7279 29.5101 31.7042 29.5624 31.7042C29.6147 31.7042 29.6575 31.6805 29.6575 31.6516C29.6575 31.6226 29.7003 31.599 29.7526 31.599C29.8049 31.599 29.8477 31.5753 29.8477 31.5463C29.8477 31.5174 29.8904 31.4937 29.9427 31.4937C29.9951 31.4937 30.0378 31.47 30.0378 31.4411C30.0378 31.4122 30.0806 31.3885 30.1329 31.3885C30.1852 31.3885 30.228 31.3648 30.228 31.3359C30.228 31.3069 30.2708 31.2832 30.3231 31.2832C30.3754 31.2832 30.4182 31.2596 30.4182 31.2306C30.4182 31.2017 30.461 31.178 30.5133 31.178C30.5656 31.178 30.6084 31.1543 30.6084 31.1254C30.6084 31.0964 30.6512 31.0728 30.7035 31.0728C30.7558 31.0728 30.7986 31.0491 30.7986 31.0201C30.7986 30.9912 30.8628 30.9675 30.9412 30.9675C31.0197 30.9675 31.0839 30.9438 31.0839 30.9149C31.0839 30.886 31.1267 30.8623 31.179 30.8623C31.2313 30.8623 31.274 30.8386 31.274 30.8097C31.274 30.7807 31.381 30.757 31.5118 30.757C31.6425 30.757 31.7495 30.7334 31.7495 30.7044C31.7495 30.6752 31.8763 30.6518 32.0348 30.6518C32.1933 30.6518 32.3201 30.6752 32.3201 30.7044Z" fill="white"/>
<defs>
<filter id="filter0_bd_4394_9160" x="13.8555" y="6.33398" width="41.957" height="47.0879" filterUnits="userSpaceOnUse" color-interpolation-filters="sRGB">
<feFlood flood-opacity="0" result="BackgroundImageFix"/>
<feGaussianBlur in="BackgroundImage" stdDeviation="2.5"/>
<feComposite in2="SourceAlpha" operator="in" result="effect1_backgroundBlur_4394_9160"/>
<feColorMatrix in="SourceAlpha" type="matrix" values="0 0 0 0 0 0 0 0 0 0 0 0 0 0 0 0 0 0 127 0" result="hardAlpha"/>
<feOffset dy="4"/>
<feGaussianBlur stdDeviation="2"/>
<feComposite in2="hardAlpha" operator="out"/>
<feColorMatrix type="matrix" values="0 0 0 0 0.7125 0 0 0 0 0.7125 0 0 0 0 0.7125 0 0 0 0.25 0"/>
<feBlend mode="normal" in2="effect1_backgroundBlur_4394_9160" result="effect2_dropShadow_4394_9160"/>
<feBlend mode="normal" in="SourceGraphic" in2="effect2_dropShadow_4394_9160" result="shape"/>
</filter>
<linearGradient id="paint0_linear_4394_9160" x1="49.6927" y1="44.6846" x2="29.861" y2="6.40874" gradientUnits="userSpaceOnUse">
<stop stop-color="#1E1360" stop-opacity="0"/>
<stop offset="1" stop-color="#F5F5F5" stop-opacity="0.63"/>
</linearGradient>
</defs>
</svg>
