<svg width="28" height="28" viewBox="0 0 28 28" fill="none" xmlns="http://www.w3.org/2000/svg">
<path d="M13.7435 27.3327C6.37949 27.3327 0.410156 21.3633 0.410156 13.9993C0.410156 6.63535 6.37949 0.666016 13.7435 0.666016C21.1075 0.666016 27.0768 6.63535 27.0768 13.9993C27.0768 21.3633 21.1075 27.3327 13.7435 27.3327ZM7.09416 22.3407C8.98155 23.8496 11.3271 24.6699 13.7435 24.666C16.3702 24.666 18.7742 23.7167 20.6328 22.1433C19.7645 21.2523 18.7262 20.5445 17.5795 20.0618C16.4328 19.579 15.201 19.3311 13.9568 19.3327C12.6669 19.3312 11.3908 19.5978 10.2094 20.1156C9.02806 20.6335 7.9672 21.3912 7.09416 22.3407ZM5.23149 20.426C6.3521 19.2368 7.70438 18.2896 9.20501 17.643C10.7056 16.9963 12.3228 16.6638 13.9568 16.666C15.5324 16.664 17.0928 16.9732 18.5485 17.5759C20.0042 18.1785 21.3265 19.0629 22.4395 20.178C23.5809 18.5715 24.255 16.6802 24.3869 14.7139C24.5188 12.7476 24.1034 10.7832 23.1868 9.03862C22.2702 7.29405 20.8882 5.83751 19.1941 4.83061C17.5 3.82371 15.5601 3.3058 13.5896 3.33435C11.6191 3.3629 9.69504 3.93679 8.03085 4.99236C6.36666 6.04792 5.02744 7.54389 4.16175 9.31428C3.29606 11.0847 2.93775 13.0603 3.12658 15.0219C3.31541 16.9836 4.04399 18.8546 5.23149 20.4273V20.426ZM13.7435 15.3327C12.329 15.3327 10.9724 14.7708 9.97225 13.7706C8.97206 12.7704 8.41016 11.4138 8.41016 9.99935C8.41016 8.58486 8.97206 7.22831 9.97225 6.22811C10.9724 5.22792 12.329 4.66602 13.7435 4.66602C15.158 4.66602 16.5145 5.22792 17.5147 6.22811C18.5149 7.22831 19.0768 8.58486 19.0768 9.99935C19.0768 11.4138 18.5149 12.7704 17.5147 13.7706C16.5145 14.7708 15.158 15.3327 13.7435 15.3327ZM13.7435 12.666C14.4507 12.666 15.129 12.3851 15.6291 11.885C16.1292 11.3849 16.4102 10.7066 16.4102 9.99935C16.4102 9.29211 16.1292 8.61383 15.6291 8.11373C15.129 7.61363 14.4507 7.33268 13.7435 7.33268C13.0362 7.33268 12.358 7.61363 11.8579 8.11373C11.3578 8.61383 11.0768 9.29211 11.0768 9.99935C11.0768 10.7066 11.3578 11.3849 11.8579 11.885C12.358 12.3851 13.0362 12.666 13.7435 12.666Z" fill="#FDFDFD"/>
</svg>
